<svg xmlns="http://www.w3.org/2000/svg" xmlns:xlink="http://www.w3.org/1999/xlink" width="320" height="320" viewBox="0 0 320 320"><defs><style>.cls-1,.cls-4,.cls-6{stroke:#fff;stroke-linecap:round;stroke-miterlimit:10;stroke-width:0.25px;}.cls-1{fill:url(#Ikke-navngivet_forløb);}.cls-2{fill:#337ba9;}.cls-3{fill:#9f5a00;}.cls-4{fill:url(#Ikke-navngivet_forløb-2);}.cls-5{fill:#0e1b58;}.cls-6,.cls-7{fill:#fff;}.cls-8{fill:url(#Ikke-navngivet_forløb_3);}.cls-9{fill:#c89fd1;}.cls-10{fill:#ffca99;}.cls-11{fill:#9854b7;}</style><radialGradient id="Ikke-navngivet_forløb" cx="2332.54" cy="928.26" r="256.9" gradientTransform="matrix(0.27, 0, 0, -0.34, -458.32, 522.44)" gradientUnits="userSpaceOnUse"><stop offset="0.79" stop-color="#fff"/><stop offset="1" stop-color="#ffca99"/></radialGradient><radialGradient id="Ikke-navngivet_forløb-2" cx="551.34" cy="1433.29" r="222.4" gradientTransform="matrix(0.16, 0, 0, -0.23, 87.56, 429.25)" xlink:href="#Ikke-navngivet_forløb"/><linearGradient id="Ikke-navngivet_forløb_3" x1="14.09" y1="231.2" x2="47.14" y2="190.09" gradientTransform="matrix(0.98, -0.19, -0.19, -0.98, 50.35, 340.88)" gradientUnits="userSpaceOnUse"><stop offset="0" stop-color="#fff"/><stop offset="0.42"/></linearGradient></defs><title>1_dråbe</title><g id="Lag_2" data-name="Lag 2"><ellipse class="cls-1" cx="165.17" cy="211.26" rx="74.13" ry="78.82"/><path class="cls-2" d="M188.51,176l55.75,27.79a3.73,3.73,0,0,1,1.5,4.39l-3,9.64c-.54,1.74-2.1,2.59-3.47,1.91l-55.75-27.79a3.73,3.73,0,0,1-1.5-4.39l3-9.64C185.58,176.17,187.14,175.32,188.51,176Z"/><path class="cls-2" d="M62.51,124a2.6,2.6,0,0,0-2.8.32,32.21,32.21,0,0,0-.18-6.21c-.85-6.87-3.55-12-6-11.56s-3.79,6.46-2.94,13.33q.09.74.21,1.44c-3.8-.13-8.68,3-12.57,8.61-5.47,7.83-6.93,17.48-3.27,21.55s11.06,1,16.53-6.82l.25-.38c.17,1.9.74,3.3,1.7,3.88,2.41,1.45,6.4-2.78,8.92-9.45S64.91,125.43,62.51,124Z"/><path class="cls-3" d="M120.9,175.39,58.41,138.13a.92.92,0,0,1-.33-1.06l.22-.66a.61.61,0,0,1,.83-.43l64.53,31.24c5.12,2.48,9.31,6.14,8.73,7.85l-1,2.86C130.85,179.64,125.87,178.35,120.9,175.39Z"/><path class="cls-2" d="M279.84,134.41a2.6,2.6,0,0,1,2.8.31,32.1,32.1,0,0,1,.18-6.2c.85-6.87,3.55-12.05,6-11.56s3.8,6.45,2.94,13.32q-.09.74-.21,1.44c3.8-.12,8.68,3,12.58,8.61,5.46,7.84,6.92,17.49,3.26,21.56s-11.05,1-16.52-6.82c-.09-.12-.18-.25-.26-.38-.17,1.9-.74,3.3-1.7,3.88-2.41,1.45-6.4-2.78-8.91-9.46S277.43,135.87,279.84,134.41Z"/><path class="cls-3" d="M224.08,186.39l62.5-37.26a.92.92,0,0,0,.33-1.06l-.22-.66a.62.62,0,0,0-.84-.43l-64.53,31.24c-5.12,2.48-9.3,6.13-8.72,7.85l1,2.86C214.14,190.64,219.13,189.35,224.08,186.39Z"/><ellipse class="cls-2" cx="179.01" cy="144.14" rx="46.67" ry="31.73"/><path class="cls-4" d="M169.74,54.07c14.37,4.84,30.08,21.92,37.81,42.44,10,26.53,5.27,54.54-16.6,54.54-26.16,0-51.46-37.11-51.46-69.39C139.49,58.43,153.78,48.7,169.74,54.07Z"/><ellipse class="cls-5" cx="176.31" cy="79.24" rx="9.55" ry="13.42"/><ellipse class="cls-6" cx="176" cy="83.27" rx="1.84" ry="5.32" transform="translate(-8.16 146.48) rotate(-44.26)"/><ellipse class="cls-7" cx="183.73" cy="83.85" rx="3.68" ry="1.76" transform="translate(17.54 198.62) rotate(-59.16)"/><ellipse class="cls-6" cx="195.32" cy="85.33" rx="1.16" ry="3.37" transform="translate(-0.63 169.2) rotate(-46.77)"/><path class="cls-8" d="M87.82,97.35c-2.06-2.9-11,2.4-22.8,12.74a1.44,1.44,0,0,0-.18-.25L49.24,90.76a2.34,2.34,0,0,0-3.81-.08l-29.3,37.45a4,4,0,0,0,.15,4.76h0l12.88,15.76c-11.29,14.63-17.77,26.5-15.55,29.64,3.12,4.4,22.27-10.14,42.76-32.49S91,101.75,87.82,97.35Z"/><path class="cls-3" d="M200.18,131.35a2.82,2.82,0,0,1,1.69,3.05h0c-.32,1.08-1.61,1.48-2.86.89L188,130a2.81,2.81,0,0,1-1.68-3h0"/><path class="cls-3" d="M206.91,130l1.74.53c1.43.44,2.32,2.27,2,4.09l-.43,2.19c-.35,1.82-1.8,2.93-3.24,2.49l-1.73-.54c-1.44-.44-2.32-2.27-2-4.09l.42-2.19C204,130.69,205.47,129.57,206.91,130Z"/><ellipse class="cls-2" cx="187.05" cy="175.86" rx="13.17" ry="16.64"/><path class="cls-2" d="M187.68,173.77l36,60.48a4,4,0,0,1-.53,4.74l-6.55,6.23a2.34,2.34,0,0,1-3.75-.67l-36-60.48a4,4,0,0,1,.53-4.74l6.56-6.23A2.34,2.34,0,0,1,187.68,173.77Z"/><path class="cls-2" d="M222,235.73a6,6,0,0,0-1.51,2.4,4.31,4.31,0,0,0-2.23,1.16l-.15.16c-2.23-1.81-5.2-1-6.63,1.82s-.79,6.56,1.44,8.37a4,4,0,0,0,5.48-.25l.15-.16c2.22,1.81,5.19,1,6.63-1.81a6.89,6.89,0,0,0,.35-.83c2.63-.45,4.47-3.51,4.12-6.82s-2.77-5.65-5.4-5.2a4.34,4.34,0,0,0-2.24,1.16Z"/><path class="cls-2" d="M244.85,206a6.87,6.87,0,0,0-.86,2.86,5.28,5.28,0,0,0-1.86,2,2,2,0,0,0-.1.21c-2.56-.87-5.2,1-5.89,4.27s.83,6.56,3.39,7.43a4.33,4.33,0,0,0,5.16-2.34l.1-.21c2.55.89,5.19-1,5.89-4.22.06-.32.11-.64.14-1,2.39-1.45,3.4-5.07,2.26-8.09s-4-4.29-6.41-2.85A5.25,5.25,0,0,0,244.85,206Z"/><ellipse class="cls-9" cx="167.06" cy="200.82" rx="6.59" ry="8.32"/><ellipse class="cls-10" cx="180.01" cy="219.72" rx="6.59" ry="8.32"/><ellipse class="cls-11" cx="169.3" cy="238.61" rx="6.59" ry="8.32"/></g></svg>
