<svg xmlns="http://www.w3.org/2000/svg" xmlns:xlink="http://www.w3.org/1999/xlink" width="320" height="320" viewBox="0 0 320 320"><defs><style>.cls-1,.cls-4,.cls-6{stroke:#fff;stroke-linecap:round;stroke-miterlimit:10;stroke-width:0.25px;}.cls-1{fill:url(#Ikke-navngivet_forløb);}.cls-2{fill:#337ba9;}.cls-3{fill:#9f5a00;}.cls-4{fill:url(#Ikke-navngivet_forløb-2);}.cls-5,.cls-6{fill:#fff;}.cls-7{fill:url(#Ikke-navngivet_forløb_3);}.cls-8{fill:#c89fd1;}.cls-9{fill:#ffca99;}.cls-10{fill:#9854b7;}</style><radialGradient id="Ikke-navngivet_forløb" cx="4176.17" cy="902.39" r="256.9" gradientTransform="matrix(0.27, 0, 0, -0.34, -956.12, 522.44)" gradientUnits="userSpaceOnUse"><stop offset="0.79" stop-color="#fff"/><stop offset="1" stop-color="#ffca99"/></radialGradient><radialGradient id="Ikke-navngivet_forløb-2" cx="4093.98" cy="1395.29" r="222.4" gradientTransform="matrix(0.15, 0, 0, -0.11, -455.09, 294.49)" xlink:href="#Ikke-navngivet_forløb"/><linearGradient id="Ikke-navngivet_forløb_3" x1="-4.36" y1="91.02" x2="28.69" y2="49.91" gradientTransform="matrix(0.98, -0.19, -0.19, -0.98, 37.33, 208.47)" gradientUnits="userSpaceOnUse"><stop offset="0" stop-color="#fff"/><stop offset="0.42"/></linearGradient></defs><title>2_dråbe</title><g id="Lag_2" data-name="Lag 2"><ellipse class="cls-1" cx="161.35" cy="219.94" rx="74.13" ry="78.82"/><path class="cls-2" d="M184.7,184.69l55.74,27.79a3.73,3.73,0,0,1,1.51,4.39l-3,9.63c-.54,1.74-2.1,2.59-3.47,1.91l-55.74-27.79a3.72,3.72,0,0,1-1.51-4.39l3-9.64C181.76,184.85,183.32,184,184.7,184.69Z"/><path class="cls-2" d="M58.7,132.65a2.62,2.62,0,0,0-2.81.32,30.68,30.68,0,0,0-.18-6.21c-.85-6.87-3.54-12-6-11.56s-3.79,6.46-2.94,13.33q.09.74.21,1.44c-3.79-.13-8.68,3-12.57,8.61-5.46,7.83-6.92,17.49-3.26,21.55s11.05,1,16.52-6.81l.26-.39c.17,1.9.73,3.3,1.69,3.89,2.41,1.44,6.4-2.79,8.92-9.46S61.09,134.11,58.7,132.65Z"/><path class="cls-3" d="M117.08,184.07,54.59,146.81a.92.92,0,0,1-.33-1.06l.22-.66a.62.62,0,0,1,.84-.43l64.52,31.24c5.12,2.48,9.31,6.14,8.73,7.85l-1,2.86C127,188.32,122.05,187,117.08,184.07Z"/><path class="cls-2" d="M276,143.09a2.6,2.6,0,0,1,2.8.31,32.1,32.1,0,0,1,.18-6.2c.85-6.87,3.55-12,6-11.56s3.8,6.45,2.94,13.32q-.09.73-.21,1.44c3.8-.12,8.68,3,12.58,8.61,5.46,7.84,6.92,17.49,3.26,21.56s-11.05,1-16.52-6.82c-.09-.12-.17-.25-.26-.38-.17,1.9-.73,3.3-1.7,3.88-2.41,1.45-6.4-2.78-8.91-9.46S273.61,144.55,276,143.09Z"/><path class="cls-3" d="M220.27,195.07l62.49-37.26a.92.92,0,0,0,.33-1.06l-.22-.66a.61.61,0,0,0-.83-.43L217.51,186.9c-5.12,2.48-9.31,6.13-8.73,7.85l1,2.86C210.32,199.32,215.31,198,220.27,195.07Z"/><ellipse class="cls-2" cx="175.19" cy="152.82" rx="46.67" ry="31.73"/><path class="cls-4" d="M167.68,111.24c13.78,2.42,28.85,11,36.25,21.22,9.58,13.26,5.06,27.27-15.91,27.27-25.08,0-49.35-18.56-49.35-34.7C138.67,113.42,152.38,108.55,167.68,111.24Z"/><ellipse class="cls-5" cx="179.91" cy="92.53" rx="3.68" ry="1.76" transform="translate(8.23 199.57) rotate(-59.16)"/><ellipse class="cls-6" cx="191.5" cy="94.01" rx="1.16" ry="3.37" transform="translate(-8.16 169.16) rotate(-46.77)"/><path class="cls-7" d="M84,106c-2-2.9-11,2.4-22.79,12.74-.06-.08-.12-.17-.19-.25L45.42,99.44a2.34,2.34,0,0,0-3.81-.08l-29.3,37.45a4,4,0,0,0,.15,4.76h0l12.88,15.76C14.05,172,7.57,183.83,9.79,187c3.12,4.4,22.27-10.14,42.76-32.49S87.13,110.43,84,106Z"/><path class="cls-3" d="M196.37,140a2.81,2.81,0,0,1,1.68,3.05h0c-.32,1.08-1.61,1.48-2.86.89l-11-5.25a2.8,2.8,0,0,1-1.69-3h0"/><path class="cls-3" d="M203.09,138.7l1.74.53c1.44.44,2.32,2.27,2,4.09l-.43,2.19c-.35,1.82-1.8,2.93-3.23,2.49l-1.74-.54c-1.44-.44-2.32-2.27-2-4.08l.43-2.2C200.21,139.37,201.66,138.25,203.09,138.7Z"/><ellipse class="cls-2" cx="183.23" cy="184.54" rx="13.17" ry="16.64"/><path class="cls-2" d="M183.86,182.45l36,60.48a4,4,0,0,1-.53,4.74l-6.55,6.23a2.34,2.34,0,0,1-3.75-.67l-36-60.48a4,4,0,0,1,.53-4.74l6.55-6.23A2.34,2.34,0,0,1,183.86,182.45Z"/><path class="cls-2" d="M218.19,244.41a6,6,0,0,0-1.51,2.4,4.34,4.34,0,0,0-2.23,1.16l-.15.16c-2.22-1.81-5.19-1-6.63,1.82s-.78,6.56,1.45,8.37a4,4,0,0,0,5.47-.25c.06-.05.1-.11.15-.16,2.23,1.81,5.19,1,6.63-1.81a5.62,5.62,0,0,0,.36-.83c2.62-.45,4.47-3.51,4.11-6.82s-2.77-5.65-5.4-5.2a4.37,4.37,0,0,0-2.24,1.16Z"/><path class="cls-2" d="M241,214.72a7,7,0,0,0-.86,2.86,5.39,5.39,0,0,0-1.86,2,1.24,1.24,0,0,0-.1.2c-2.56-.87-5.19,1-5.88,4.27s.82,6.56,3.38,7.43a4.33,4.33,0,0,0,5.16-2.34l.1-.2c2.55.88,5.19-1,5.89-4.23a7.81,7.81,0,0,0,.14-1c2.39-1.45,3.4-5.07,2.26-8.09s-4-4.29-6.41-2.85A5.33,5.33,0,0,0,241,214.72Z"/><ellipse class="cls-8" cx="163.25" cy="209.5" rx="6.59" ry="8.32"/><ellipse class="cls-9" cx="176.2" cy="228.4" rx="6.59" ry="8.32"/><ellipse class="cls-10" cx="165.48" cy="247.29" rx="6.59" ry="8.32"/></g></svg>
