<svg xmlns="http://www.w3.org/2000/svg" xmlns:xlink="http://www.w3.org/1999/xlink" width="320" height="320" viewBox="0 0 320 320"><defs><style>.cls-1,.cls-4{stroke:#fff;stroke-linecap:round;stroke-miterlimit:10;stroke-width:0.25px;}.cls-1{fill:url(#Ikke-navngivet_forløb);}.cls-2{fill:#337ba9;}.cls-3{fill:#9f5a00;}.cls-4,.cls-5{fill:#fff;}.cls-6{fill:url(#Ikke-navngivet_forløb_3);}.cls-7{fill:#c89fd1;}.cls-8{fill:#ffca99;}.cls-9{fill:#9854b7;}</style><radialGradient id="Ikke-navngivet_forløb" cx="5114.49" cy="911.47" r="256.9" gradientTransform="matrix(0.27, 0, 0, -0.34, -1205.02, 522.44)" gradientUnits="userSpaceOnUse"><stop offset="0.79" stop-color="#fff"/><stop offset="1" stop-color="#ffca99"/></radialGradient><linearGradient id="Ikke-navngivet_forløb_3" x1="-7.81" y1="27.31" x2="25.24" y2="-13.8" gradientTransform="matrix(0.98, -0.19, -0.19, -0.98, 30.83, 142.27)" gradientUnits="userSpaceOnUse"><stop offset="0" stop-color="#fff"/><stop offset="0.42"/></linearGradient></defs><title>3_dråbe</title><g id="Lag_2" data-name="Lag 2"><ellipse class="cls-1" cx="163.86" cy="216.89" rx="74.13" ry="78.82"/><path class="cls-2" d="M187.21,181.64,243,209.43a3.73,3.73,0,0,1,1.51,4.39l-3,9.63c-.54,1.74-2.1,2.6-3.48,1.91l-55.74-27.79a3.73,3.73,0,0,1-1.51-4.39l3-9.63C184.28,181.81,185.83,181,187.21,181.64Z"/><path class="cls-2" d="M61.21,129.61a2.6,2.6,0,0,0-2.8.31,32.1,32.1,0,0,0-.18-6.2c-.85-6.87-3.55-12-6-11.56s-3.8,6.45-2.94,13.32q.09.73.21,1.44c-3.8-.12-8.68,3-12.58,8.61C31.43,143.37,30,153,33.63,157.09s11,1,16.52-6.82c.09-.12.18-.25.26-.38.17,1.9.73,3.3,1.7,3.88,2.4,1.45,6.4-2.78,8.91-9.46S63.61,131.07,61.21,129.61Z"/><path class="cls-3" d="M119.6,181,57.1,143.76a.92.92,0,0,1-.33-1l.23-.66a.62.62,0,0,1,.83-.44l64.53,31.24c5.12,2.48,9.3,6.14,8.72,7.85l-1,2.86C129.54,185.27,124.56,184,119.6,181Z"/><path class="cls-2" d="M278.54,140a2.6,2.6,0,0,1,2.8.32,30.68,30.68,0,0,1,.18-6.21c.85-6.87,3.55-12,6-11.56s3.79,6.46,2.94,13.33q-.09.74-.21,1.44c3.79-.13,8.68,3,12.57,8.61,5.46,7.83,6.92,17.48,3.26,21.55s-11.05,1-16.52-6.82c-.09-.12-.17-.25-.26-.38-.17,1.9-.73,3.3-1.69,3.88-2.41,1.45-6.4-2.78-8.92-9.45S276.13,141.5,278.54,140Z"/><path class="cls-3" d="M222.78,192l62.5-37.27a.93.93,0,0,0,.33-1.06l-.23-.66a.61.61,0,0,0-.83-.43L220,183.85c-5.12,2.48-9.3,6.14-8.73,7.85l1,2.86C212.84,196.27,217.82,195,222.78,192Z"/><ellipse class="cls-2" cx="177.71" cy="149.77" rx="46.67" ry="31.73"/><ellipse class="cls-4" cx="174.69" cy="88.9" rx="1.84" ry="5.32" transform="translate(-12.46 147.16) rotate(-44.26)"/><ellipse class="cls-5" cx="182.43" cy="89.49" rx="3.68" ry="1.76" transform="translate(12.07 200.24) rotate(-59.16)"/><ellipse class="cls-4" cx="194.01" cy="90.96" rx="1.16" ry="3.37" transform="translate(-5.14 170.03) rotate(-46.77)"/><path class="cls-6" d="M86.52,103c-2.06-2.91-11,2.39-22.8,12.74l-.18-.25L47.93,96.4a2.33,2.33,0,0,0-3.81-.08L14.83,133.76a4,4,0,0,0,.14,4.76h0l12.89,15.77c-11.3,14.63-17.78,26.5-15.56,29.63,3.13,4.41,22.27-10.13,42.76-32.48S89.64,107.39,86.52,103Z"/><path class="cls-3" d="M266.05,279.54a2.8,2.8,0,0,1,1.68,3h0c-.32,1.08-1.61,1.48-2.85.89l-11-5.25a2.8,2.8,0,0,1-1.69-3h0"/><path class="cls-3" d="M296.19,279.62l1.74.54c1.44.44,2.32,2.27,2,4.09l-.43,2.19c-.35,1.81-1.8,2.93-3.23,2.48l-1.74-.53c-1.44-.44-2.32-2.27-2-4.09l.43-2.19C293.31,280.29,294.76,279.18,296.19,279.62Z"/><ellipse class="cls-2" cx="185.74" cy="181.5" rx="13.17" ry="16.64"/><path class="cls-2" d="M186.38,179.41l36,60.48a4,4,0,0,1-.53,4.73l-6.56,6.23a2.33,2.33,0,0,1-3.75-.67l-36-60.48a4,4,0,0,1,.53-4.74l6.55-6.22A2.33,2.33,0,0,1,186.38,179.41Z"/><path class="cls-2" d="M220.7,241.37a6.06,6.06,0,0,0-1.5,2.4,4.16,4.16,0,0,0-2.23,1.16,1.06,1.06,0,0,0-.15.15c-2.23-1.81-5.2-1-6.63,1.82s-.79,6.57,1.44,8.38a4,4,0,0,0,5.48-.26l.14-.15c2.23,1.81,5.2,1,6.63-1.81a6.24,6.24,0,0,0,.36-.84c2.63-.45,4.47-3.5,4.12-6.82s-2.78-5.64-5.4-5.2a4.31,4.31,0,0,0-2.25,1.17Z"/><path class="cls-2" d="M243.54,211.67a7.23,7.23,0,0,0-.86,2.87,5.28,5.28,0,0,0-1.86,2l-.1.2c-2.56-.87-5.19,1-5.88,4.28s.83,6.56,3.39,7.43c1.93.66,4-.28,5.15-2.34l.11-.21c2.55.88,5.18-1,5.88-4.23a7.83,7.83,0,0,0,.15-1c2.39-1.44,3.4-5.06,2.25-8.08s-4-4.3-6.4-2.85A5.24,5.24,0,0,0,243.54,211.67Z"/><ellipse class="cls-7" cx="165.76" cy="206.46" rx="6.59" ry="8.32"/><ellipse class="cls-8" cx="178.71" cy="225.35" rx="6.59" ry="8.32"/><ellipse class="cls-9" cx="167.99" cy="244.25" rx="6.59" ry="8.32"/></g></svg>
