<svg xmlns="http://www.w3.org/2000/svg" xmlns:xlink="http://www.w3.org/1999/xlink" width="1920" height="1080" viewBox="0 0 1920 1080"><defs><style>.cls-1{fill:none;}.cls-2{isolation:isolate;}.cls-3{clip-path:url(#clip-path);}.cls-4{clip-path:url(#clip-path-2);}.cls-5,.cls-79{mix-blend-mode:soft-light;}.cls-6{fill:url(#Ikke-navngivet_forløb_76);}.cls-10,.cls-11,.cls-12,.cls-13,.cls-14,.cls-15,.cls-16,.cls-17,.cls-18,.cls-19,.cls-20,.cls-21,.cls-22,.cls-23,.cls-24,.cls-25,.cls-26,.cls-27,.cls-28,.cls-29,.cls-30,.cls-31,.cls-32,.cls-33,.cls-34,.cls-35,.cls-36,.cls-37,.cls-38,.cls-39,.cls-40,.cls-45,.cls-46,.cls-47,.cls-48,.cls-49,.cls-50,.cls-51,.cls-52,.cls-53,.cls-54,.cls-55,.cls-56,.cls-57,.cls-58,.cls-59,.cls-60,.cls-61,.cls-62,.cls-63,.cls-64,.cls-65,.cls-66,.cls-67,.cls-7{fill:#fff;}.cls-8{fill:url(#Ikke-navngivet_forløb_76-2);}.cls-9{opacity:0.4;}.cls-10,.cls-11,.cls-12,.cls-13,.cls-14,.cls-15,.cls-16,.cls-17,.cls-18,.cls-19,.cls-20,.cls-21,.cls-22,.cls-23,.cls-24,.cls-25,.cls-26,.cls-27,.cls-28,.cls-29,.cls-30,.cls-31,.cls-32,.cls-33,.cls-34,.cls-35,.cls-36,.cls-37,.cls-38,.cls-39,.cls-40,.cls-45,.cls-46,.cls-47,.cls-48,.cls-49,.cls-50,.cls-51,.cls-52,.cls-53,.cls-54,.cls-55,.cls-56,.cls-57,.cls-58,.cls-59,.cls-60,.cls-61,.cls-62,.cls-63,.cls-64,.cls-65,.cls-66,.cls-67{stroke:#fff;}.cls-10,.cls-11,.cls-12,.cls-13,.cls-14,.cls-15,.cls-16,.cls-17,.cls-18,.cls-19,.cls-20,.cls-21,.cls-22,.cls-23,.cls-24,.cls-25,.cls-26,.cls-27,.cls-28,.cls-29,.cls-30,.cls-31,.cls-32,.cls-33,.cls-34,.cls-35,.cls-36,.cls-37,.cls-38,.cls-39,.cls-40,.cls-45,.cls-46,.cls-47,.cls-48,.cls-49,.cls-50,.cls-51,.cls-52,.cls-53,.cls-54,.cls-55,.cls-56,.cls-57,.cls-58,.cls-59,.cls-60,.cls-61,.cls-62,.cls-63,.cls-64,.cls-65,.cls-66,.cls-67,.cls-76{stroke-miterlimit:10;}.cls-10{stroke-width:0.18px;}.cls-11{stroke-width:0.17px;}.cls-12{stroke-width:0.18px;}.cls-13{stroke-width:0.17px;}.cls-14{stroke-width:0.11px;}.cls-15{stroke-width:0.28px;}.cls-16{stroke-width:0.24px;}.cls-17{stroke-width:0.27px;}.cls-18{stroke-width:0.23px;}.cls-19{stroke-width:0.22px;}.cls-20{stroke-width:0.18px;}.cls-21{stroke-width:0.27px;}.cls-22{stroke-width:0.1px;}.cls-23{stroke-width:0.21px;}.cls-24{stroke-width:0.24px;}.cls-25{stroke-width:0.15px;}.cls-26{stroke-width:0.19px;}.cls-27{stroke-width:0.23px;}.cls-28{stroke-width:0.26px;}.cls-29{stroke-width:0.15px;}.cls-30{stroke-width:0.2px;}.cls-31{stroke-width:0.13px;}.cls-32{stroke-width:0.28px;}.cls-33{stroke-width:0.18px;}.cls-34{stroke-width:0.12px;}.cls-35{stroke-width:0.21px;}.cls-36{stroke-width:0.11px;}.cls-37{stroke-width:0.29px;}.cls-38{stroke-width:0.12px;}.cls-39{stroke-width:0.29px;}.cls-40{stroke-width:0.28px;}.cls-41{clip-path:url(#clip-path-3);}.cls-42{fill:url(#Ikke-navngivet_forløb_58);}.cls-43{fill:url(#Ikke-navngivet_forløb_23);}.cls-44{fill:url(#Ikke-navngivet_forløb_23-2);}.cls-45{stroke-width:0.11px;}.cls-46{stroke-width:0.13px;}.cls-47{stroke-width:0.18px;}.cls-48{stroke-width:0.24px;}.cls-49{stroke-width:0.23px;}.cls-50{stroke-width:0.1px;}.cls-51{stroke-width:0.16px;}.cls-52{stroke-width:0.13px;}.cls-53{stroke-width:0.27px;}.cls-54{stroke-width:0.21px;}.cls-55{stroke-width:0.27px;}.cls-56{stroke-width:0.25px;}.cls-57{stroke-width:0.21px;}.cls-58{stroke-width:0.28px;}.cls-59{stroke-width:0.23px;}.cls-60{stroke-width:0.16px;}.cls-61{stroke-width:0.19px;}.cls-62{stroke-width:0.19px;}.cls-63{stroke-width:0.24px;}.cls-64{stroke-width:0.22px;}.cls-65{stroke-width:0.16px;}.cls-66{stroke-width:0.29px;}.cls-67{stroke-width:0.22px;}.cls-68{fill:url(#Ikke-navngivet_forløb_76-3);}.cls-69{opacity:0.9;mix-blend-mode:screen;}.cls-70{fill:url(#Ikke-navngivet_forløb_68);}.cls-71{fill:url(#Ikke-navngivet_forløb_26);}.cls-72{opacity:0.15;}.cls-73{fill:url(#Ikke-navngivet_forløb_26-2);}.cls-74{fill:url(#Ikke-navngivet_forløb_26-3);}.cls-75{clip-path:url(#clip-path-4);}.cls-76{stroke:#000;fill:url(#Ikke-navngivet_forløb_35);}.cls-77{clip-path:url(#clip-path-5);}.cls-78,.cls-79{opacity:0.82;}.cls-78{mix-blend-mode:multiply;}</style><clipPath id="clip-path"><rect class="cls-1" width="1920" height="1100"/></clipPath><clipPath id="clip-path-2"><rect class="cls-1" x="-3" y="-239" width="1927" height="1319"/></clipPath><linearGradient id="Ikke-navngivet_forløb_76" x1="2009.49" y1="-753" x2="2229.49" y2="-753" gradientTransform="matrix(0.57, 0.22, 0.22, 0.89, -536.98, 272.97)" gradientUnits="userSpaceOnUse"><stop offset="0" stop-color="#fff"/><stop offset="1" stop-color="#fff" stop-opacity="0"/></linearGradient><linearGradient id="Ikke-navngivet_forløb_76-2" x1="4381.54" y1="-1285.38" x2="4601.54" y2="-1285.38" gradientTransform="matrix(0.55, 0.22, 0.26, 0.87, -410.56, 217.35)" xlink:href="#Ikke-navngivet_forløb_76"/><clipPath id="clip-path-3"><rect class="cls-1" x="-3.5" y="-0.5" width="1920" height="1090"/></clipPath><linearGradient id="Ikke-navngivet_forløb_58" x1="946.89" y1="-19.56" x2="967.41" y2="1116.22" gradientUnits="userSpaceOnUse"><stop offset="0" stop-color="#0e1b58"/><stop offset="0.13" stop-color="#0f1e5b"/><stop offset="0.24" stop-color="#132963"/><stop offset="0.34" stop-color="#1a3a72"/><stop offset="0.43" stop-color="#235287"/><stop offset="0.52" stop-color="#2f72a1"/><stop offset="0.54" stop-color="#337ba9"/><stop offset="0.56" stop-color="#3a7dab"/><stop offset="0.59" stop-color="#4d81b0"/><stop offset="0.62" stop-color="#6d89b8"/><stop offset="0.66" stop-color="#9893c4"/><stop offset="0.69" stop-color="#c89fd1"/></linearGradient><linearGradient id="Ikke-navngivet_forløb_23" x1="315.16" y1="784.05" x2="320.87" y2="1100.11" gradientUnits="userSpaceOnUse"><stop offset="0" stop-color="#ffca99"/><stop offset="0.19" stop-color="#efc49a"/><stop offset="0.23" stop-color="#d0b89c"/><stop offset="0.32" stop-color="#99a3a1"/><stop offset="0.4" stop-color="#6d91a4"/><stop offset="0.47" stop-color="#4d85a7"/><stop offset="0.53" stop-color="#3a7ea8"/><stop offset="0.57" stop-color="#337ba9"/><stop offset="0.59" stop-color="#2f72a1"/><stop offset="0.66" stop-color="#235287"/><stop offset="0.74" stop-color="#1a3a72"/><stop offset="0.81" stop-color="#132963"/><stop offset="0.9" stop-color="#0f1e5b"/><stop offset="1" stop-color="#0e1b58"/></linearGradient><linearGradient id="Ikke-navngivet_forløb_23-2" x1="1842.15" y1="783.41" x2="1848.04" y2="1109.58" xlink:href="#Ikke-navngivet_forløb_23"/><linearGradient id="Ikke-navngivet_forløb_76-3" x1="1093.5" y1="225.5" x2="1313.5" y2="225.5" gradientTransform="matrix(1, 0, 0, 1, 0, 0)" xlink:href="#Ikke-navngivet_forløb_76"/><linearGradient id="Ikke-navngivet_forløb_68" x1="268.03" y1="174.01" x2="270.97" y2="336.99" gradientTransform="matrix(1, 0, 0, 1, 0, 0)" xlink:href="#Ikke-navngivet_forløb_76"/><linearGradient id="Ikke-navngivet_forløb_26" x1="1394.48" y1="412.06" x2="1402.15" y2="836.7" gradientUnits="userSpaceOnUse"><stop offset="0" stop-color="#ffca99"/><stop offset="0" stop-color="#efc49a"/><stop offset="0.04" stop-color="#d0b89c"/><stop offset="0.12" stop-color="#99a3a1"/><stop offset="0.2" stop-color="#6d91a4"/><stop offset="0.27" stop-color="#4d85a7"/><stop offset="0.32" stop-color="#3a7ea8"/><stop offset="0.36" stop-color="#337ba9"/><stop offset="0.39" stop-color="#2f72a1"/><stop offset="0.5" stop-color="#235287"/><stop offset="0.61" stop-color="#1a3a72"/><stop offset="0.72" stop-color="#132963"/><stop offset="0.85" stop-color="#0f1e5b"/><stop offset="1" stop-color="#0e1b58"/></linearGradient><linearGradient id="Ikke-navngivet_forløb_26-2" x1="496.96" y1="673.61" x2="500.28" y2="856.96" xlink:href="#Ikke-navngivet_forløb_26"/><linearGradient id="Ikke-navngivet_forløb_26-3" x1="136.57" y1="577.37" x2="141.87" y2="870.33" xlink:href="#Ikke-navngivet_forløb_26"/><clipPath id="clip-path-4"><rect class="cls-1" x="1937" y="-6" width="1926" height="1081"/></clipPath><linearGradient id="Ikke-navngivet_forløb_35" x1="2910.7" y1="673.63" x2="2909.26" y2="1401.96" gradientUnits="userSpaceOnUse"><stop offset="0" stop-color="#fff"/><stop offset="0.32" stop-color="#9854b7"/><stop offset="0.54" stop-color="#141d5c"/><stop offset="1" stop-color="#0e1b58"/></linearGradient><clipPath id="clip-path-5"><rect class="cls-1" x="-1940" width="1920" height="1069"/></clipPath></defs><title>Baggrund1</title><g class="cls-2"><g id="Baggrund"><g class="cls-3"><g class="cls-4"><g class="cls-5"><line class="cls-6" x1="548.5" y1="45.5" x2="448.5" y2="96.5"/><path class="cls-7" d="M548.5,45.5,449.18,97.84a1.5,1.5,0,0,1-1.4-2.66l0,0Z"/></g><g class="cls-5"><line class="cls-8" x1="1770.5" y1="47.5" x2="1678.5" y2="97.5"/><path class="cls-7" d="M1770.5,47.5l-91.28,51.32a1.5,1.5,0,1,1-1.47-2.62l0,0Z"/></g><g class="cls-9"><rect class="cls-1" x="1688.04" y="405.35" width="5.71" height="5.71"/><circle class="cls-10" cx="1690.9" cy="408.21" r="2.76"/><rect class="cls-1" x="1355.33" y="419.96" width="5.25" height="5.25"/><circle class="cls-11" cx="1357.96" cy="422.58" r="2.54"/><rect class="cls-1" x="1531.84" y="368.79" width="5.52" height="5.52"/><circle class="cls-12" cx="1534.6" cy="371.55" r="2.67"/><rect class="cls-1" x="1731.32" y="447.71" width="5.24" height="5.24"/><circle class="cls-13" cx="1733.94" cy="450.33" r="2.54"/><rect class="cls-1" x="1797.01" y="373.8" width="3.55" height="3.55"/><circle class="cls-14" cx="1798.79" cy="375.58" r="1.72"/><rect class="cls-1" x="1913.22" y="229.98" width="8.55" height="8.55"/><circle class="cls-15" cx="1917.49" cy="234.25" r="4.14"/><rect class="cls-1" x="126.07" y="186.47" width="7.37" height="7.37"/><circle class="cls-16" cx="129.75" cy="190.16" r="3.56"/><rect class="cls-1" x="70.16" y="219.32" width="8.28" height="8.28"/><circle class="cls-17" cx="74.3" cy="223.46" r="4.01"/><rect class="cls-1" x="340.49" y="455.15" width="7.05" height="7.05"/><circle class="cls-18" cx="344.02" cy="458.67" r="3.41"/><rect class="cls-1" x="747.61" y="384.31" width="6.95" height="6.95"/><circle class="cls-19" cx="751.09" cy="387.79" r="3.36"/><rect class="cls-1" x="1189.47" y="331.76" width="5.44" height="5.44"/><circle class="cls-20" cx="1192.19" cy="334.48" r="2.63"/><rect class="cls-1" x="1553.61" y="272.11" width="8.42" height="8.42"/><circle class="cls-21" cx="1557.82" cy="276.33" r="4.08"/><rect class="cls-1" x="1686.68" y="184.68" width="3.15" height="3.15"/><circle class="cls-22" cx="1688.25" cy="186.26" r="1.52"/><rect class="cls-1" x="1044.1" y="439.55" width="6.45" height="6.45"/><circle class="cls-23" cx="1047.33" cy="442.78" r="3.12"/><rect class="cls-1" x="78.63" y="287.24" width="7.55" height="7.55"/><circle class="cls-24" cx="82.4" cy="291.02" r="3.65"/><rect class="cls-1" x="411.49" y="335.44" width="4.64" height="4.64"/><circle class="cls-25" cx="413.81" cy="337.76" r="2.25"/><rect class="cls-1" x="509.47" y="339.63" width="6.02" height="6.02"/><circle class="cls-26" cx="512.48" cy="342.65" r="2.91"/><rect class="cls-1" x="699.35" y="306.86" width="7.05" height="7.05"/><circle class="cls-27" cx="702.88" cy="310.39" r="3.41"/><rect class="cls-1" x="98.92" y="420.78" width="8.16" height="8.16"/><circle class="cls-28" cx="103" cy="424.86" r="3.95"/><rect class="cls-1" x="479.33" y="192.84" width="4.65" height="4.65"/><circle class="cls-29" cx="481.66" cy="195.16" r="2.25"/><rect class="cls-1" x="749.41" y="411.27" width="6.31" height="6.31"/><circle class="cls-30" cx="752.57" cy="414.43" r="3.06"/><rect class="cls-1" x="1104.22" y="266.59" width="4.16" height="4.16"/><circle class="cls-31" cx="1106.29" cy="268.67" r="2.01"/><rect class="cls-1" x="1497.07" y="331.33" width="8.8" height="8.8"/><circle class="cls-32" cx="1501.47" cy="335.73" r="4.26"/><rect class="cls-1" x="1792.35" y="207.2" width="5.54" height="5.54"/><circle class="cls-33" cx="1795.12" cy="209.97" r="2.68"/><rect class="cls-1" x="1845.88" y="176.32" width="3.64" height="3.64"/><circle class="cls-34" cx="1847.7" cy="178.14" r="1.76"/><rect class="cls-1" x="311.55" y="428.96" width="6.64" height="6.64"/><circle class="cls-35" cx="314.88" cy="432.28" r="3.21"/><rect class="cls-1" x="488.69" y="260.21" width="3.41" height="3.41"/><circle class="cls-36" cx="490.39" cy="261.92" r="1.65"/><rect class="cls-1" x="827.47" y="373.23" width="8.92" height="8.92"/><circle class="cls-37" cx="831.93" cy="377.69" r="4.32"/><rect class="cls-1" x="1161.51" y="336.86" width="3.6" height="3.6"/><circle class="cls-38" cx="1163.31" cy="338.67" r="1.74"/><rect class="cls-1" x="1560.04" y="356.99" width="9.13" height="9.13"/><circle class="cls-39" cx="1564.6" cy="361.55" r="4.42"/><rect class="cls-1" x="1875.62" y="220.48" width="8.8" height="8.8"/><circle class="cls-40" cx="1880.02" cy="224.88" r="4.26"/></g><g class="cls-41"><rect class="cls-42" x="-3" width="1920" height="1080"/><path class="cls-43" d="M-499,1080c0-162.92,366.9-295,819.5-295S1140,917.08,1140,1080"/><path class="cls-44" d="M513,1080c0-162.92,597.48-295,1334.5-295S3182,917.08,3182,1080"/><g class="cls-9"><rect class="cls-1" x="1883.77" y="23.82" width="3.39" height="3.39"/><circle class="cls-45" cx="1885.46" cy="25.51" r="1.64"/><rect class="cls-1" x="1443.47" y="45.57" width="4.1" height="4.1"/><circle class="cls-46" cx="1445.52" cy="47.62" r="1.98"/><rect class="cls-1" x="1322.71" y="666.19" width="5.7" height="5.7"/><circle class="cls-47" cx="1325.55" cy="669.03" r="2.76"/><rect class="cls-1" x="1660.16" y="738.49" width="5.25" height="5.25"/><circle class="cls-11" cx="1662.78" cy="741.12" r="2.54"/><rect class="cls-1" x="1841.34" y="681.33" width="5.52" height="5.52"/><circle class="cls-12" cx="1844.1" cy="684.09" r="2.67"/><rect class="cls-1" x="1763.48" y="38.62" width="7.33" height="7.33"/><circle class="cls-48" cx="1767.15" cy="42.29" r="3.55"/><rect class="cls-1" x="1347.89" y="41.83" width="7.17" height="7.17"/><circle class="cls-49" cx="1351.48" cy="45.41" r="3.47"/><rect class="cls-1" x="826.34" y="150.37" width="3.11" height="3.11"/><circle class="cls-50" cx="827.9" cy="151.92" r="1.51"/><rect class="cls-1" x="677.97" y="40" width="4.99" height="4.99"/><circle class="cls-51" cx="680.46" cy="42.5" r="2.41"/><rect class="cls-1" x="553.61" y="147.17" width="3.94" height="3.94"/><circle class="cls-52" cx="555.58" cy="149.14" r="1.91"/><rect class="cls-1" x="117.89" y="704.61" width="8.3" height="8.3"/><circle class="cls-53" cx="122.04" cy="708.75" r="4.01"/><rect class="cls-1" x="82.69" y="176.67" width="7.37" height="7.37"/><circle class="cls-16" cx="86.37" cy="180.35" r="3.56"/><rect class="cls-1" x="17.86" y="516.24" width="6.56" height="6.56"/><circle class="cls-54" cx="21.14" cy="519.52" r="3.18"/><rect class="cls-1" x="265.94" y="455.25" width="8.28" height="8.28"/><circle class="cls-17" cx="270.08" cy="459.38" r="4.01"/><rect class="cls-1" x="591.35" y="686.93" width="7.05" height="7.05"/><circle class="cls-18" cx="594.88" cy="690.46" r="3.41"/><rect class="cls-1" x="975.7" y="583.75" width="6.95" height="6.95"/><circle class="cls-19" cx="979.18" cy="587.23" r="3.36"/><rect class="cls-1" x="1375.99" y="604.45" width="5.44" height="5.44"/><circle class="cls-20" cx="1378.7" cy="607.17" r="2.63"/><rect class="cls-1" x="1748.3" y="527.36" width="8.42" height="8.42"/><circle class="cls-21" cx="1752.52" cy="531.57" r="4.08"/><rect class="cls-1" x="1891.85" y="408.99" width="3.15" height="3.15"/><circle class="cls-22" cx="1893.42" cy="410.56" r="1.52"/><rect class="cls-1" x="1285.02" y="60.71" width="8.26" height="8.26"/><circle class="cls-55" cx="1289.16" cy="64.84" r="4"/><rect class="cls-1" x="800.14" y="591.71" width="7.73" height="7.73"/><circle class="cls-56" cx="804" cy="595.57" r="3.74"/><rect class="cls-1" x="344.14" y="65.29" width="6.54" height="6.54"/><circle class="cls-57" cx="347.41" cy="68.56" r="3.17"/><rect class="cls-1" x="269.87" y="541.59" width="7.55" height="7.55"/><circle class="cls-24" cx="273.65" cy="545.37" r="3.65"/><rect class="cls-1" x="525.39" y="577.9" width="4.64" height="4.64"/><circle class="cls-25" cx="527.71" cy="580.22" r="2.25"/><rect class="cls-1" x="623.03" y="586.73" width="6.02" height="6.02"/><circle class="cls-26" cx="626.04" cy="589.74" r="2.91"/><rect class="cls-1" x="813.52" y="565.25" width="7.05" height="7.05"/><circle class="cls-27" cx="817.04" cy="568.77" r="3.41"/><rect class="cls-1" x="225.83" y="103" width="8.83" height="8.83"/><circle class="cls-58" cx="230.25" cy="107.42" r="4.27"/><rect class="cls-1" x="31.86" y="472.6" width="7.01" height="7.01"/><circle class="cls-59" cx="35.37" cy="476.1" r="3.39"/><rect class="cls-1" x="61.66" y="504.27" width="5.09" height="5.09"/><circle class="cls-60" cx="64.2" cy="506.82" r="2.46"/><rect class="cls-1" x="21.39" y="201.02" width="5.89" height="5.89"/><circle class="cls-61" cx="24.33" cy="203.97" r="2.85"/><rect class="cls-1" x="103.14" y="726.42" width="5.78" height="5.78"/><circle class="cls-62" cx="106.03" cy="729.31" r="2.8"/><rect class="cls-1" x="159.78" y="701.04" width="8.16" height="8.16"/><circle class="cls-28" cx="163.86" cy="705.12" r="3.95"/><rect class="cls-1" x="576.06" y="509.82" width="4.65" height="4.65"/><circle class="cls-29" cx="578.38" cy="512.14" r="2.25"/><rect class="cls-1" x="879.69" y="716.95" width="6.31" height="6.31"/><circle class="cls-30" cx="882.85" cy="720.1" r="3.06"/><rect class="cls-1" x="1210.35" y="549.34" width="4.16" height="4.16"/><circle class="cls-31" cx="1212.43" cy="551.42" r="2.01"/><rect class="cls-1" x="1591.23" y="607.67" width="8.8" height="8.8"/><circle class="cls-32" cx="1595.64" cy="612.07" r="4.26"/><rect class="cls-1" x="1877.53" y="492.21" width="5.54" height="5.54"/><circle class="cls-33" cx="1880.31" cy="494.98" r="2.68"/><rect class="cls-1" x="1913.33" y="465.11" width="3.64" height="3.64"/><circle class="cls-34" cx="1915.15" cy="466.93" r="1.76"/><rect class="cls-1" x="1593.33" y="62.42" width="7.49" height="7.49"/><circle class="cls-63" cx="1597.07" cy="66.16" r="3.63"/><rect class="cls-1" x="1424.22" y="100.35" width="6.71" height="6.71"/><circle class="cls-64" cx="1427.58" cy="103.7" r="3.25"/><rect class="cls-1" x="1349.6" y="171.8" width="4.87" height="4.87"/><circle class="cls-65" cx="1352.03" cy="174.23" r="2.36"/><rect class="cls-1" x="666.97" y="7.48" width="8.99" height="8.99"/><circle class="cls-66" cx="671.46" cy="11.98" r="4.35"/><rect class="cls-1" x="117.63" y="32.46" width="6.86" height="6.86"/><circle class="cls-67" cx="121.05" cy="35.88" r="3.32"/><rect class="cls-1" x="393.83" y="763.01" width="6.64" height="6.64"/><circle class="cls-35" cx="397.15" cy="766.33" r="3.21"/><rect class="cls-1" x="572.91" y="596.29" width="3.41" height="3.41"/><circle class="cls-36" cx="574.62" cy="598" r="1.65"/><rect class="cls-1" x="913.9" y="712.19" width="8.92" height="8.92"/><circle class="cls-37" cx="918.36" cy="716.65" r="4.32"/><rect class="cls-1" x="1248.5" y="676.11" width="3.6" height="3.6"/><circle class="cls-38" cx="1250.3" cy="677.91" r="1.74"/><rect class="cls-1" x="1646.89" y="696.35" width="9.13" height="9.13"/><circle class="cls-39" cx="1651.45" cy="700.91" r="4.42"/></g><g class="cls-5"><line class="cls-68" x1="1313.5" y1="169.5" x2="1093.5" y2="281.5"/><path class="cls-7" d="M1313.5,169.5,1094.18,282.84a1.5,1.5,0,0,1-1.38-2.67h0Z"/></g><image class="cls-69" width="643" height="643" transform="translate(-52 -66)" xlink:href="Baggrund11.png"/><circle class="cls-70" cx="269.5" cy="255.5" r="81.5"/><path class="cls-71" d="M1525.38,535.7a44.67,44.67,0,0,0,1.29-10.64c0-21.48-15.08-38.89-33.67-38.89a29.29,29.29,0,0,0-6.44.72C1484.31,445.77,1443.28,413,1393,413c-50,0-90.86,32.41-93.53,73.21-17.84.92-32.07,17.88-32.13,38.7C1223.39,531.3,1190,563,1190,601.19c0,42.78,41.94,77.45,93.67,77.45a109.21,109.21,0,0,0,43.81-9,117.91,117.91,0,0,0,55.33,19.08l-14.31,48.82L1342,828l51.66.38,51.67.38-25.15-90.86-13.69-49.46A118.28,118.28,0,0,0,1453.93,673c16,10.57,36.32,16.9,58.4,16.9,51.73,0,93.67-34.68,93.67-77.45C1606,573.28,1570.93,541,1525.38,535.7Z"/><path class="cls-72" d="M1696.06,948.26c-17.68-23.7-74-42.91-125.68-42.91-22.09,0-39.77,3.5-51.42,9.36a276.41,276.41,0,0,0-53.87-8.61l-6.75-27.4L1451,848.77c13.62-5.06,22-12,22-19.77,0-15.46-33.8-28-75.5-28s-75.5,12.54-75.5,28c0,12.91,23.58,23.78,55.63,27l29.2,22.9L1441.31,906c-19.84,1-36,4.75-47.44,10.57a239,239,0,0,0-47.53-5c-51.73,0-79.33,19.21-61.65,42.91,15.78,21.15,62.28,38.72,108.86,42.26,8.68,11.54,29.92,20.94,48.14,21.45,19.53,22.6,73.78,40.56,123.79,40.56,50.28,0,77.76-18.16,63-40.94a59.5,59.5,0,0,0,6.73.4c18.6,0,26.47-9.65,17.6-21.55a36,36,0,0,0-5.69-5.89C1690.53,987.85,1712.23,969.93,1696.06,948.26Z"/><path class="cls-73" d="M538.58,727a25.28,25.28,0,0,0,.41-4.59c0-9.28-4.75-16.81-10.6-16.81a7,7,0,0,0-2,.31c-.71-17.76-13.62-31.92-29.45-31.92s-28.61,14-29.45,31.63c-5.61.4-10.09,7.73-10.11,16.72-13.84,2.76-24.35,16.47-24.35,33,0,18.48,13.2,33.46,29.49,33.46a26.6,26.6,0,0,0,13.79-3.88,31.3,31.3,0,0,0,17.42,8.25l-4.51,21.09-8.34,39.09,16.26.17,16.27.16-7.92-39.26L501.15,793a30.86,30.86,0,0,0,14.94-6.72,27.27,27.27,0,0,0,18.39,7.31c16.28,0,29.48-15,29.48-33.47C564,743.25,552.93,729.28,538.58,727Z"/><path class="cls-72" d="M592.32,905.27C586.75,895,569,886.73,552.75,886.73c-7,0-12.52,1.51-16.19,4a65.39,65.39,0,0,0-17-3.72l-2.12-11.84-2.32-12.93c4.28-2.19,6.93-5.21,6.93-8.54,0-6.68-10.64-12.1-23.77-12.1s-23.76,5.42-23.76,12.1c0,5.58,7.42,10.27,17.51,11.67l9.19,9.89L512.12,887c-6.25.42-11.33,2-14.94,4.57a55.71,55.71,0,0,0-15-2.15c-16.29,0-25,8.3-19.41,18.54,5,9.14,19.61,16.73,34.27,18.26,2.73,5,9.42,9,15.16,9.26,6.14,9.77,23.22,17.53,39,17.53s24.48-7.84,19.84-17.69a14,14,0,0,0,2.12.17c5.85,0,8.33-4.16,5.54-9.31a14.66,14.66,0,0,0-1.79-2.54C590.57,922.37,597.41,914.63,592.32,905.27Z"/><path class="cls-74" d="M205.76,662.69a40.47,40.47,0,0,0,.67-7.34c0-14.83-7.9-26.84-17.64-26.84a12,12,0,0,0-3.38.49c-1.18-28.38-22.68-51-49-51s-47.61,22.37-49,50.54c-9.35.63-16.81,12.34-16.84,26.71C47.5,659.66,30,681.56,30,707.9c0,29.53,22,53.47,49.09,53.47a45.75,45.75,0,0,0,23-6.2,52.93,52.93,0,0,0,29,13.16L123.54,802l-13.89,62.45,27.07.26,27.08.27L150.62,802.3l-7.18-34.14a52.59,52.59,0,0,0,24.87-10.72,46.45,46.45,0,0,0,30.61,11.66C226,769.1,248,745.17,248,715.64,248,688.64,229.63,666.32,205.76,662.69Z"/><path class="cls-72" d="M295.2,933.91c-9.27-14.17-38.75-25.66-65.86-25.66-11.58,0-20.85,2.09-27,5.6a128,128,0,0,0-28.23-5.15l-3.54-16.39-3.86-17.91c7.13-3,11.55-7.21,11.55-11.82,0-9.25-17.72-16.75-39.57-16.75s-39.57,7.5-39.57,16.75c0,7.72,12.36,14.22,29.16,16.15l15.3,13.7,18.07,16.18c-10.4.58-18.85,2.84-24.86,6.33a110.18,110.18,0,0,0-24.91-3c-27.11,0-41.57,11.49-32.31,25.67,8.27,12.65,32.64,23.16,57,25.28,4.55,6.9,15.68,12.52,25.23,12.83,10.23,13.52,38.66,24.26,64.87,24.26s40.75-10.86,33-24.49a26.73,26.73,0,0,0,3.53.24c9.75,0,13.87-5.77,9.22-12.89a20.48,20.48,0,0,0-3-3.52C292.3,957.59,303.67,946.88,295.2,933.91Z"/></g></g></g></g><g id="Baggrund2"><g class="cls-75"><ellipse class="cls-76" cx="2910" cy="1027.5" rx="1042.5" ry="342"/><image class="cls-69" width="653" height="646" transform="translate(1707 -242)" xlink:href="Baggrund12.png"/></g></g><g id="MELT"><g class="cls-77"><image class="cls-78" width="2602" height="1432" transform="translate(-2281 -288)" xlink:href="Baggrund13.png"/><image class="cls-79" width="2247" height="1064" transform="translate(-2104 -98)" xlink:href="Baggrund14.png"/></g></g></g></svg>
