<?xml version="1.0" encoding="utf-8"?>
<!-- Generator: Adobe Illustrator 23.0.0, SVG Export Plug-In . SVG Version: 6.00 Build 0)  -->
<svg version="1.1" xmlns="http://www.w3.org/2000/svg" xmlns:xlink="http://www.w3.org/1999/xlink" x="0px" y="0px"
	 viewBox="0 0 1920 1080" style="enable-background:new 0 0 1920 1080;" xml:space="preserve">
<style type="text/css">
	.st0{clip-path:url(#SVGID_2_);fill:url(#SVGID_3_);stroke:#000000;stroke-miterlimit:10;}
	.st1{clip-path:url(#SVGID_2_);fill:url(#SVGID_4_);stroke:#000000;stroke-miterlimit:10;}
	.st2{display:none;opacity:0.15;clip-path:url(#SVGID_2_);enable-background:new    ;}
	.st3{display:none;clip-path:url(#SVGID_2_);fill:url(#SVGID_5_);}
	.st4{display:none;clip-path:url(#SVGID_2_);fill:url(#SVGID_6_);}
	.st5{display:none;clip-path:url(#SVGID_2_);fill:none;}
	.st6{display:none;clip-path:url(#SVGID_2_);fill:#FFFFFF;stroke:#FFFFFF;stroke-width:0.19;stroke-miterlimit:10;}
	.st7{clip-path:url(#SVGID_2_);fill:none;}
	.st8{clip-path:url(#SVGID_2_);fill:#FFFFFF;stroke:#FFFFFF;stroke-width:0.1;stroke-miterlimit:10;}
	.st9{clip-path:url(#SVGID_2_);fill:#FFFFFF;stroke:#FFFFFF;stroke-width:0.14;stroke-miterlimit:10;}
	.st10{clip-path:url(#SVGID_2_);fill:#FFFFFF;stroke:#FFFFFF;stroke-width:0.11;stroke-miterlimit:10;}
	.st11{clip-path:url(#SVGID_2_);fill:#FFFFFF;stroke:#FFFFFF;stroke-width:0.13;stroke-miterlimit:10;}
	.st12{clip-path:url(#SVGID_2_);fill:#FFFFFF;stroke:#FFFFFF;stroke-width:0.25;stroke-miterlimit:10;}
	.st13{clip-path:url(#SVGID_2_);fill:#FFFFFF;stroke:#FFFFFF;stroke-width:0.15;stroke-miterlimit:10;}
	.st14{clip-path:url(#SVGID_2_);fill:#FFFFFF;stroke:#FFFFFF;stroke-width:0.16;stroke-miterlimit:10;}
	.st15{clip-path:url(#SVGID_2_);fill:#FFFFFF;stroke:#FFFFFF;stroke-width:0.26;stroke-miterlimit:10;}
	.st16{clip-path:url(#SVGID_2_);fill:#FFFFFF;stroke:#FFFFFF;stroke-width:0.12;stroke-miterlimit:10;}
	.st17{clip-path:url(#SVGID_2_);fill:#FFFFFF;stroke:#FFFFFF;stroke-width:0.21;stroke-miterlimit:10;}
	.st18{clip-path:url(#SVGID_2_);fill:#FFFFFF;stroke:#FFFFFF;stroke-width:0.18;stroke-miterlimit:10;}
	.st19{clip-path:url(#SVGID_2_);fill:#FFFFFF;stroke:#FFFFFF;stroke-width:0.28;stroke-miterlimit:10;}
	.st20{clip-path:url(#SVGID_2_);fill:#FFFFFF;stroke:#FFFFFF;stroke-width:0.29;stroke-miterlimit:10;}
	.st21{clip-path:url(#SVGID_2_);fill:url(#SVGID_7_);}
</style>
<g id="Lag_1">
	<g>
		<defs>
			<rect id="SVGID_1_" x="-3" y="-0.5" width="1926" height="1081"/>
		</defs>
		<clipPath id="SVGID_2_">
			<use xlink:href="#SVGID_1_"  style="overflow:visible;"/>
		</clipPath>

			<linearGradient id="SVGID_3_" gradientUnits="userSpaceOnUse" x1="963.6077" y1="1100.7" x2="961.3278" y2="-53.3198" gradientTransform="matrix(1 0 0 -1 0 1080)">
			<stop  offset="0" style="stop-color:#0E1B58"/>
			<stop  offset="0.53" style="stop-color:#9854B7"/>
			<stop  offset="1" style="stop-color:#C89FD1"/>
		</linearGradient>
		<rect x="2.5" class="st0" width="1920" height="1080"/>

			<linearGradient id="SVGID_4_" gradientUnits="userSpaceOnUse" x1="970.6996" y1="400.87" x2="969.2596" y2="-327.4599" gradientTransform="matrix(1 0 0 -1 0 1080)">
			<stop  offset="0" style="stop-color:#FFFFFF"/>
			<stop  offset="0.32" style="stop-color:#9854B7"/>
			<stop  offset="0.54" style="stop-color:#141D5C"/>
			<stop  offset="1" style="stop-color:#0E1B58"/>
		</linearGradient>
		<ellipse class="st1" cx="970" cy="1033" rx="1042.5" ry="342"/>
		<path class="st2" d="M1686.9,999c-16-2.3-32.3-2.7-48.4-1.3c-21.3-12-50.6-21.9-83.7-27.4l34.7-53.8l36.4-56.3
			c42.9-13,71-34.8,71-59.7c0-39.8-72.3-72-161.5-72s-161.5,32.2-161.5,72c0,24.2,26.7,45.5,67.7,58.6l26.9,45l36.9,61.7
			c-27-0.4-51.1,3-69.3,9.3c-14.7-5.5-30-9.3-45.5-11.4c-56.2-7.8-104.6,6.2-108,31.4s39.2,51.9,95.4,59.7
			c20.2,2.8,39.3,2.8,55.8,0.4c-2.8,3.3-4.6,7.2-5.2,11.4c-3.5,25.2,39.2,51.9,95.4,59.7s104.5-6.2,108-31.4
			c0.8-5.5-0.7-11-3.9-16.4c14.9,5.6,30.4,9.5,46.1,11.6c56.2,7.8,104.5-6.3,108-31.4S1743.1,1006.8,1686.9,999z"/>

			<linearGradient id="SVGID_5_" gradientUnits="userSpaceOnUse" x1="1586.9155" y1="914.5988" x2="1585.5852" y2="239.657" gradientTransform="matrix(1 0 0 -1 0 1080)">
			<stop  offset="0" style="stop-color:#FFCA99"/>
			<stop  offset="0.47" style="stop-color:#337BA9"/>
			<stop  offset="1" style="stop-color:#001D80"/>
		</linearGradient>
		<path class="st3" d="M1721.2,286.5c-14.9,0-29.7,3.8-42.7,11c3.7-10.8,5.6-22.2,5.6-33.7c0-54.4-41.5-98.4-92.8-98.4
			s-92.8,44.1-92.8,98.4c0,8.7,1.1,17.4,3.2,25.8c-14.7-10.1-32.2-15.5-50-15.5c-51.2,0-92.8,44.1-92.8,98.4s41.5,98.4,92.8,98.4
			c14.7,0,29.2-3.7,42.2-10.7c15.8,19.1,37,33.1,60.8,40.1l-40.7,120l-68.4,201.5l109.8,9.3l109.8,9.4l-41.4-210.8l-24.4-124.2
			c29.2-1.7,56.9-13.6,78.3-33.5c13.3,7.5,28.2,11.5,43.5,11.5c51.2,0,92.8-44.1,92.8-98.4S1772.5,286.5,1721.2,286.5z"/>
		<path class="st2" d="M129.5,978c16-2.3,32.3-2.7,48.4-1.3c21.3-12,50.6-21.9,83.7-27.4l-34.7-53.8l-36.4-56.3
			c-42.9-13-71-34.8-71-59.7c0-39.8,72.3-72,161.5-72s161.5,32.2,161.5,72c0,24.2-26.7,45.5-67.7,58.6l-26.9,45L311,944.8
			c27-0.4,51.1,3,69.3,9.3c14.7-5.5,30-9.3,45.5-11.4c56.2-7.8,104.5,6.2,108,31.4s-39.2,51.9-95.4,59.7
			c-20.2,2.8-39.4,2.8-55.8,0.4c2.8,3.3,4.6,7.2,5.2,11.4c3.5,25.2-39.2,51.9-95.4,59.7s-104.5-6.2-108-31.4
			c-0.8-5.5,0.7-11,3.9-16.4c-14.9,5.6-30.4,9.5-46.1,11.6c-56.2,7.8-104.5-6.3-108-31.4S73.3,985.8,129.5,978z"/>

			<linearGradient id="SVGID_6_" gradientUnits="userSpaceOnUse" x1="-6407.0693" y1="948.5988" x2="-6408.3999" y2="273.657" gradientTransform="matrix(-1 0 0 -1 -6153.54 1080)">
			<stop  offset="0" style="stop-color:#FFCA99"/>
			<stop  offset="0.47" style="stop-color:#337BA9"/>
			<stop  offset="1" style="stop-color:#001D80"/>
		</linearGradient>
		<path class="st4" d="M119.2,252.5c14.9,0,29.7,3.8,42.7,11c-3.7-10.8-5.6-22.2-5.6-33.7c0-54.4,41.5-98.4,92.8-98.4
			s92.8,44.1,92.8,98.4c0,8.7-1.1,17.4-3.2,25.8c14.7-10.1,32.2-15.5,50-15.5c51.2,0,92.8,44.1,92.8,98.4S439.9,437,388.7,437
			c-14.7,0-29.2-3.7-42.2-10.7c-15.8,19.1-37,33.1-60.8,40.1l40.7,120l68.4,201.5L285,797.2l-109.8,9.3l41.4-210.8L241,471.5
			c-29.2-1.7-56.9-13.6-78.3-33.5c-13.3,7.5-28.2,11.5-43.5,11.5c-51.2,0-92.8-44.1-92.8-98.4S68,252.5,119.2,252.5z"/>
		<rect x="992.8" y="150.6" class="st5" width="5.8" height="5.8"/>
		<circle class="st6" cx="995.7" cy="153.5" r="2.8"/>
		<rect x="929.5" y="426.2" class="st7" width="3.2" height="3.2"/>
		<circle class="st8" cx="931.1" cy="427.8" r="1.5"/>
		<rect x="805.3" y="488.8" class="st7" width="4.2" height="4.2"/>
		<circle class="st9" cx="807.4" cy="490.9" r="2"/>
		<rect x="938" y="655.7" class="st7" width="3.5" height="3.5"/>
		<circle class="st10" cx="939.7" cy="657.5" r="1.7"/>
		<rect x="1214.9" y="633.8" class="st7" width="4.3" height="4.3"/>
		<circle class="st9" cx="1217.1" cy="636" r="2.1"/>
		<rect x="1432" y="673.1" class="st7" width="4" height="4"/>
		<circle class="st11" cx="1434" cy="675.1" r="1.9"/>
		<rect x="1368.1" y="65.4" class="st7" width="7.9" height="7.9"/>
		<circle class="st12" cx="1372.1" cy="69.3" r="3.8"/>
		<rect x="795.6" y="9.2" class="st7" width="4.6" height="4.6"/>
		<circle class="st13" cx="797.9" cy="11.6" r="2.2"/>
		<rect x="1183.7" y="481" class="st7" width="5.1" height="5.1"/>
		<circle class="st14" cx="1186.3" cy="483.5" r="2.5"/>
		<rect x="976" y="121.5" class="st7" width="8.1" height="8.1"/>
		<circle class="st15" cx="980" cy="125.6" r="3.9"/>
		<rect x="883.8" y="184.4" class="st7" width="3.9" height="3.9"/>
		<circle class="st11" cx="885.8" cy="186.4" r="1.9"/>
		<rect x="895" y="519.5" class="st7" width="3.8" height="3.8"/>
		<circle class="st16" cx="896.9" cy="521.4" r="1.8"/>
		<rect x="1170.9" y="606.2" class="st7" width="4.7" height="4.7"/>
		<circle class="st13" cx="1173.3" cy="608.5" r="2.3"/>
		<rect x="1378" y="736.6" class="st7" width="7.6" height="7.6"/>
		<circle class="st12" cx="1381.8" cy="740.4" r="3.7"/>
		<rect x="1225.4" y="102.6" class="st7" width="6.4" height="6.4"/>
		<circle class="st17" cx="1228.7" cy="105.8" r="3.1"/>
		<rect x="1151.9" y="186.1" class="st7" width="4.6" height="4.6"/>
		<circle class="st13" cx="1154.1" cy="188.4" r="2.2"/>
		<rect x="1119.9" y="313.2" class="st7" width="4.5" height="4.5"/>
		<circle class="st9" cx="1122.2" cy="315.5" r="2.2"/>
		<rect x="1133.6" y="373.5" class="st7" width="5.6" height="5.6"/>
		<circle class="st18" cx="1136.4" cy="376.3" r="2.7"/>
		<rect x="1139.7" y="338" class="st7" width="5.6" height="5.6"/>
		<circle class="st18" cx="1142.5" cy="340.8" r="2.7"/>
		<rect x="1025" y="175.9" class="st7" width="4.5" height="4.5"/>
		<circle class="st9" cx="1027.3" cy="178.1" r="2.2"/>
		<rect x="566.6" y="237.6" class="st7" width="8.7" height="8.7"/>
		<circle class="st19" cx="571" cy="241.9" r="4.2"/>
		<rect x="398.1" y="486.3" class="st7" width="9" height="9"/>
		<circle class="st20" cx="402.6" cy="490.8" r="4.4"/>
		<rect x="748.1" y="390.8" class="st7" width="4.8" height="4.8"/>
		<circle class="st14" cx="750.5" cy="393.2" r="2.3"/>

			<linearGradient id="SVGID_7_" gradientUnits="userSpaceOnUse" x1="93.66" y1="1075.9999" x2="93.34" y2="911.0001" gradientTransform="matrix(1 0 0 -1 0 1080)">
			<stop  offset="0" style="stop-color:#FFFFFF"/>
			<stop  offset="1" style="stop-color:#FFFFFF;stop-opacity:0"/>
		</linearGradient>
		<ellipse class="st21" cx="93.5" cy="86.5" rx="86" ry="82.5"/>
	</g>
</g>
<g id="Lag_2">
</g>
</svg>
