<svg id="Lag_1" data-name="Lag 1" xmlns="http://www.w3.org/2000/svg" width="320" height="320" viewBox="0 0 320 320"><defs><style>.cls-1{fill:#ffca99;}.cls-2{fill:#337ba9;}.cls-3,.cls-6{fill:#001d80;}.cls-4{fill:#9f5a00;}.cls-5,.cls-7{fill:#0e1b58;}.cls-6,.cls-7{stroke:#fff;stroke-linecap:round;stroke-miterlimit:10;stroke-width:0.25px;}</style></defs><title>dreng</title><g id="Dreng"><path class="cls-1" d="M171.3,139H148.2c-1.2,0-1.8-1.1-1.4-2.3l4.3-12.5a1.77,1.77,0,0,1,1.6-.9h14c.7,0,1.5.4,1.6.9l4.3,12.5C173.1,137.9,172.5,139,171.3,139Z"/><path class="cls-2" d="M198.4,151.8c0-8.7-4.7-15.7-10.6-15.7a8.89,8.89,0,0,0-6.1,2.8h-44a8.31,8.31,0,0,0-6.1-2.8c-5.8,0-10.6,7-10.6,15.7a19.19,19.19,0,0,0,3.7,11.9v46.9a2.61,2.61,0,0,0,2.8,2.4h63a2.67,2.67,0,0,0,2.8-2.4V165.2C196.3,162.4,198.4,157.4,198.4,151.8Z"/><path class="cls-3" d="M198.8,99.6V65.2a2.35,2.35,0,0,0-.2-.8c.2-1.5.2-3.1.3-4.6a41.45,41.45,0,1,0-82.9.1c0,1.5.1,3,.2,4.5a2.35,2.35,0,0,0-.2.8v35.2c0,12.6,18.5,22.9,41.2,22.9s41.2-10.2,41.2-22.9h0A.91.91,0,0,0,198.8,99.6Z"/><path class="cls-1" d="M194.9,97.4V75.7c0-.2-.1-.3-.1-.5a28.25,28.25,0,0,0,.2-2.9C195,57.8,178.7,46,158.6,46s-36.4,11.8-36.4,26.3a28.25,28.25,0,0,0,.2,2.9.76.76,0,0,0-.2.5V97.9c0,8,16.2,14.4,36.3,14.4s36.3-6.5,36.3-14.4h0A4.33,4.33,0,0,0,194.9,97.4Z"/><path class="cls-4" d="M164.5,84.6l-2-3.6-2.8-5-2.8,5-2,3.6a4.84,4.84,0,0,0-1.9,3.7c0,2.9,3,5.3,6.7,5.3s6.7-2.4,6.7-5.3A4.84,4.84,0,0,0,164.5,84.6Z"/><ellipse class="cls-5" cx="172.1" cy="70.3" rx="8" ry="8.2"/><ellipse class="cls-5" cx="149.2" cy="62" rx="10.5" ry="10.7"/><ellipse class="cls-2" cx="152.68" cy="69.3" rx="3.6" ry="1.1" transform="translate(-13.99 87.6) rotate(-30.68)"/><ellipse class="cls-2" cx="143.9" cy="66.82" rx="1.8" ry="5.8" transform="translate(-11.3 99.74) rotate(-36.88)"/><ellipse class="cls-2" cx="175.38" cy="76.72" rx="2.5" ry="0.7" transform="translate(-14.69 99.49) rotate(-30.46)"/><ellipse class="cls-2" cx="168.39" cy="72.81" rx="1.5" ry="3.9" transform="translate(-10.05 115.42) rotate(-36.81)"/><ellipse class="cls-1" cx="116.1" cy="88.8" rx="6.5" ry="6.6"/><ellipse class="cls-1" cx="201.4" cy="88.8" rx="6.5" ry="6.6"/><path class="cls-1" d="M196,142.1c-3-.6-6.5,2-8.2,6.2-1.8,4.6-.8,9.4,2.3,10.7a1.42,1.42,0,0,0,.6.2,7.74,7.74,0,0,0,1.6.7l41.5,14.9a1.63,1.63,0,0,0,2-.6l3.2-6.9a1.64,1.64,0,0,0-.8-1.9l-38.1-22.1A8.14,8.14,0,0,0,196,142.1Z"/><path class="cls-1" d="M85.4,175.6l3.9-5.5c.9-1.3,3.3-1.1,5.1.4L121,192.6a2,2,0,0,1,.3,2.7l-2.4,3.4a1.9,1.9,0,0,1-2.6.5l-29-18.7C85.4,179.2,84.5,177,85.4,175.6Z"/><path class="cls-6" d="M202.5,213.6c0-1.9-1.9-3.4-4.3-3.4H119c-2.4,0-4.3,1.5-4.3,3.4v21.8a3.18,3.18,0,0,0,.8,2l24.6,51.3L149,307l2-17.4,6-50.8h3.3l6,50.8,2,17.4,8.8-18.4,24.6-51.3a3,3,0,0,0,.8-2V213.6Z"/><polygon class="cls-7" points="118.7 306.8 152.8 307.1 152.8 290.5 118.2 297.4 118.7 306.8"/><polygon class="cls-7" points="200.1 306.8 167 307.2 167 290.5 200.6 297.4 200.1 306.8"/><path class="cls-2" d="M114.8,210.3c0-17.8,19.6-32.3,43.9-32.3s43.9,14.5,43.9,32.3"/><path class="cls-1" d="M236.5,176l-6.3-2.2c-1.5-.5-2-2.9-1.1-5.1l13.2-32.4a1.93,1.93,0,0,1,2.4-1.1l3.9,1.4a2,2,0,0,1,1.2,2.4l-9.4,33.8C239.8,175,238,176.6,236.5,176Z"/><ellipse class="cls-1" cx="237.29" cy="121.99" rx="4.2" ry="8.6" transform="translate(-12.47 28.15) rotate(-6.62)"/><ellipse class="cls-1" cx="261.53" cy="126.88" rx="8.7" ry="2.8" transform="translate(8.8 270.49) rotate(-55.49)"/><ellipse class="cls-1" cx="258.23" cy="121.65" rx="9.9" ry="3.8" transform="translate(35.08 299.66) rotate(-63.81)"/><ellipse class="cls-1" cx="252.62" cy="118" rx="11.8" ry="4.3" transform="translate(56.3 315.99) rotate(-70.28)"/><ellipse class="cls-1" cx="245.69" cy="117.98" rx="10.4" ry="4.3" transform="translate(83.82 337.26) rotate(-79.22)"/><ellipse class="cls-1" cx="248.22" cy="128.51" rx="9.6" ry="11.4" transform="translate(-15.62 220.81) rotate(-46.65)"/><path class="cls-1" d="M132.9,156.9c2.1-2.3,1.7-6.7-.9-10.3-2.9-4-7.4-5.6-10.1-3.5-.2.1-.3.3-.5.4a7.1,7.1,0,0,0-1.4,1L85.9,172.8a1.5,1.5,0,0,0-.5,2l4.1,6.4a1.49,1.49,0,0,0,2,.3l38.4-21.6A8.57,8.57,0,0,0,132.9,156.9Z"/></g></svg>
