<svg id="Lag_1" data-name="Lag 1" xmlns="http://www.w3.org/2000/svg" xmlns:xlink="http://www.w3.org/1999/xlink" width="200" height="200" viewBox="0 0 200 200"><defs><style>.cls-1{fill:none;}.cls-2{clip-path:url(#clip-path);}.cls-3{clip-path:url(#clip-path-2);}.cls-4{isolation:isolate;fill:url(#Ikke-navngivet_forløb_9);}</style><clipPath id="clip-path"><rect class="cls-1" width="200" height="200"/></clipPath><clipPath id="clip-path-2"/><radialGradient id="Ikke-navngivet_forløb_9" cx="-254.84" cy="1593.08" fx="-107.4248178933008" fy="1731.6752226065942" r="269.48" gradientTransform="matrix(0.35, -0.07, -0.06, -0.18, 301.13, 389.1)" gradientUnits="userSpaceOnUse"><stop offset="0" stop-color="#cce0f4"/><stop offset="0.06" stop-color="#c3dcf2"/><stop offset="0.15" stop-color="#a9d2ee"/><stop offset="0.27" stop-color="#80c2e7"/><stop offset="0.41" stop-color="#47acde"/><stop offset="0.5" stop-color="#1e9cd7"/><stop offset="0.92" stop-color="#001d80"/></radialGradient></defs><title>drobe</title><g class="cls-2"><g class="cls-3"><path class="cls-4" d="M133,67.38,121.24,61.9,99.39,51.65a.24.24,0,0,0-.06-.19c-.8-2.21-2.33-3.22-3.66-2.92s-2.73,2-3.28,4.49a5.08,5.08,0,0,1-.16.85L70.51,72.32,59.12,82c-15.88,8.44-29.92,20.48-36.51,33.9-14.87,30.37,13,57.82,71.2,46.63,60.62-11.7,90.67-52.26,73.51-77.5C160.62,75.17,147.62,69.42,133,67.38Z"/></g></g></svg>
