<svg id="Lag_1" data-name="Lag 1" xmlns="http://www.w3.org/2000/svg" xmlns:xlink="http://www.w3.org/1999/xlink" width="400" height="400" viewBox="0 0 400 400"><defs><style>.cls-1{fill:none;}.cls-2{clip-path:url(#clip-path);}.cls-3{fill:#ffca99;opacity:0.61;}.cls-4{opacity:0.62;}.cls-5{fill:url(#Ikke-navngivet_forløb);}.cls-6{clip-path:url(#clip-path-2);}.cls-7,.cls-8{fill:#9f5a00;}.cls-8{stroke:#9f5a00;stroke-miterlimit:10;stroke-width:4px;}.cls-9{fill:#ff173c;}</style><clipPath id="clip-path"><rect class="cls-1" x="24.67" y="49.48" width="350.65" height="301.05"/></clipPath><radialGradient id="Ikke-navngivet_forløb" cx="71.54" cy="-722.15" fx="218.9541059041516" fy="-583.5582799739082" r="269.48" gradientTransform="matrix(0.16, 0, 0, -0.17, 59.3, 4.15)" gradientUnits="userSpaceOnUse"><stop offset="0" stop-color="#cce0f4"/><stop offset="0.06" stop-color="#c3dcf2"/><stop offset="0.15" stop-color="#a9d2ee"/><stop offset="0.27" stop-color="#80c2e7"/><stop offset="0.41" stop-color="#47acde"/><stop offset="0.5" stop-color="#1e9cd7"/><stop offset="0.92" stop-color="#001d80"/></radialGradient><clipPath id="clip-path-2"><rect class="cls-1" x="141.96" y="-154.47" width="298.89" height="182.48"/></clipPath></defs><title>drober_liv</title><g class="cls-2"><rect class="cls-3" x="24.67" y="49.48" width="350.65" height="301.05" rx="12"/><g class="cls-4"><g id="Dråbe"><path class="cls-5" d="M93.12,99.44,89,92.12,81.31,78.47v-.19c0-2.2-.52-3.41-1.12-3.39s-1.42,1.31-2,3.54c-.07.24-.13.49-.19.75L66.27,92.08l-6.14,6.75C52.27,103.6,44.68,112,40,123.19c-10.55,25.27-2.81,56,23.16,56.74,27,.81,45.42-31,41.83-57.6C103.59,111.92,99,104.12,93.12,99.44Z"/></g></g><path class="cls-7" d="M55.9,116h-.12l-6.67,4.73-1-5.2,8.38-5.9h4.42v50.45h-5Z"/><path class="cls-7" d="M100.38,134.31c0,17.15-4.83,26.62-13.33,26.62-7.49,0-12.57-9.23-12.69-25.92,0-16.92,5.55-26.23,13.34-26.23C95.78,108.78,100.38,118.25,100.38,134.31Zm-20.82.78c0,13.11,3.06,20.56,7.78,20.56,5.32,0,7.85-8.14,7.85-21,0-12.41-2.42-20.56-7.79-20.56C82.86,114.06,79.56,121.35,79.56,135.09Z"/><path class="cls-7" d="M111.13,94.69a10.94,10.94,0,0,1,5.5-1.61c3.72,0,6.37,3.33,8.13,9.66s2.83,15.31,2.83,27.86-1,23-2.89,30.15-5,11.17-8.87,11.17a11.61,11.61,0,0,1-4.7-.92Zm2.59,68.6a4.61,4.61,0,0,0,2.62.57c5.53,0,8.54-12,8.54-32.92,0-18.3-2.65-29.92-8.13-29.92a4.63,4.63,0,0,0-3,1Z"/><path class="cls-7" d="M130.87,132.9c0-6.56,0-12.2-.12-17.38H133l.09,10.93h.12c.65-7.48,2.23-12.2,4-12.2a1,1,0,0,1,.74.35v9.55a1.27,1.27,0,0,0-.89-.34c-1.85,0-3.16,5.41-3.51,13-.06,1.38-.12,3-.12,4.72v29.7h-2.59Z"/><path class="cls-7" d="M148.43,171.23l-.2-7h-.09c-.81,4.37-2.36,8.28-4.41,8.28-2.92,0-4.41-7.94-4.41-16,0-13.46,3.1-20.83,8.67-20.71v-1.15c0-4.61-.33-12.89-3.28-12.89-1.34,0-2.74,1.61-3.75,4.14l-.59-6.68c1.19-3,2.91-5,4.73-5,4.4,0,5.48,11.63,5.48,22.79v20.84c0,4.83.06,9.55.23,13.35Zm-.38-28.43c-2.86-.23-6.11,1.72-6.11,12.54,0,6.56,1.13,9.67,2.47,9.67,1.88,0,3.07-4.6,3.49-9.32.09-1,.15-2.19.15-3.22ZM142.42,99c0-6.1,1.16-10.94,3-10.94s2.94,4.72,2.94,10.82-1.28,10.59-3,10.59S142.42,104.82,142.42,99Zm4.52-.23c0-3.46-.59-6.33-1.54-6.33s-1.46,3-1.46,6.56c0,3,.59,6.21,1.46,6.21S146.94,102.17,146.94,98.72Z"/><path class="cls-7" d="M154.69,171.23c.06-3.8.12-9.44.12-14.39V89.51h2.59v35h.06c.92-6.22,2.59-10.25,4.91-10.25,3.57,0,6.1,11.51,6.07,28.43,0,19.91-3.24,29.81-6.46,29.81-2.08,0-3.75-3.1-4.82-10.47h-.09l-.12,9.21Zm2.71-22.33c0,1.26.06,2.53.12,3.68.5,7,2,11.86,3.93,11.86,2.73,0,4.37-8.64,4.37-21.41,0-11.17-1.49-20.72-4.28-20.72-1.79,0-3.46,4.72-4,12.43-.06,1.15-.15,2.53-.15,4.14Z"/><path class="cls-7" d="M173.21,145.22c.06,13.69,2.32,19.33,4.94,19.33,1.88,0,3-1.26,4-2.88l.45,7.26c-.93,1.61-2.51,3.45-4.8,3.45-4.43,0-7.08-11.28-7.08-28.09s2.56-30,6.75-30c4.71,0,6,16,6,26.25,0,2.07-.06,3.68-.09,4.72Zm7.68-7.26c0-6.44-.69-16.46-3.63-16.46-2.65,0-3.81,9.44-4,16.46Z"/><path class="cls-7" d="M186.67,132.9c0-6.56,0-12.2-.12-17.38h2.29l.09,10.93h.12c.65-7.48,2.23-12.2,4-12.2a1,1,0,0,1,.74.35v9.55a1.27,1.27,0,0,0-.89-.34c-1.85,0-3.16,5.41-3.51,13-.06,1.38-.12,3-.12,4.72v29.7h-2.59Z"/><path class="cls-7" d="M202.71,89.51h2.62v34.76h.06a27.35,27.35,0,0,1,1.88-7.14c.77-1.73,1.7-2.88,2.68-2.88,1.93,0,5,4.61,5,23.83v33.15h-2.62v-32c0-9-.86-16.57-3.33-16.57-1.7,0-3,4.6-3.52,10.12a45.39,45.39,0,0,0-.18,4.84v33.61h-2.62Z"/><path class="cls-7" d="M227.22,171.23l-.21-7h-.09c-.8,4.37-2.35,8.28-4.4,8.28-2.92,0-4.41-7.94-4.41-16,0-13.46,3.1-20.83,8.66-20.71v-1.15c0-4.61-.32-12.89-3.27-12.89-1.34,0-2.74,1.61-3.75,4.14l-.6-6.68c1.19-3,2.92-5,4.73-5,4.41,0,5.48,11.63,5.48,22.79v20.84c0,4.83.06,9.55.24,13.35Zm-.39-28.43c-2.86-.23-6.1,1.72-6.1,12.54,0,6.56,1.13,9.67,2.47,9.67,1.88,0,3.07-4.6,3.48-9.32.09-1,.15-2.19.15-3.22Z"/><path class="cls-7" d="M233.59,132.9c0-6.56,0-12.2-.12-17.38h2.3l.09,10.93H236c.66-7.48,2.24-12.2,4-12.2a1,1,0,0,1,.75.35v9.55a1.29,1.29,0,0,0-.89-.34c-1.85,0-3.16,5.41-3.52,13-.06,1.38-.12,3-.12,4.72v29.7h-2.59Z"/><path class="cls-7" d="M262.09,89.51v67.33c0,4.95,0,10.59.12,14.39h-2.36l-.12-9.67h-.06c-.8,6.21-2.56,10.93-4.91,10.93-3.48,0-6.16-11.39-6.16-28.31,0-18.53,3-29.93,6.46-29.93,2.2,0,3.69,4,4.35,8.52h.06V89.51Zm-2.62,48.68c0-1.26,0-3-.12-4.25-.39-6.45-1.82-11.74-3.78-11.74-2.71,0-4.32,9.2-4.32,21.52,0,11.28,1.43,20.6,4.26,20.6,1.75,0,3.36-4.49,3.84-12.08.09-1.39.12-2.77.12-4.38Z"/><path class="cls-7" d="M278.49,156c0,5.76,0,10.82.12,15.2h-2.32l-.15-9.1h-.06c-.68,4.49-2.2,10.36-4.76,10.36-2.27,0-5-4.83-5-24.4V115.52H269v30.85c0,10.59.83,17.72,3.21,17.72,1.76,0,3-4.72,3.45-9.21.15-1.49.24-3.33.24-5.18V115.52h2.62Z"/><path class="cls-7" d="M289.42,171.23v-48h-2v-7.71h2v-2.65c0-7.82.45-15,1.67-19.45,1-3.68,2.29-5.18,3.51-5.18a3,3,0,0,1,2.23,1.61l-.35,7.83a2.07,2.07,0,0,0-1.67-1.27c-2.23,0-2.8,7.6-2.8,16.12v3h3.49v7.71H292v48Z"/><path class="cls-7" d="M305.83,171.23l-.21-7h-.09c-.81,4.37-2.35,8.28-4.41,8.28-2.91,0-4.4-7.94-4.4-16,0-13.46,3.09-20.83,8.66-20.71v-1.15c0-4.61-.33-12.89-3.27-12.89-1.34,0-2.74,1.61-3.76,4.14l-.59-6.68c1.19-3,2.92-5,4.73-5,4.41,0,5.48,11.63,5.48,22.79v20.84c0,4.83.06,9.55.24,13.35Zm-.39-28.43c-2.86-.23-6.1,1.72-6.1,12.54,0,6.56,1.13,9.67,2.47,9.67,1.87,0,3.06-4.6,3.48-9.32.09-1,.15-2.19.15-3.22Z"/><path class="cls-7" d="M312.2,130.6c0-5.76,0-10.48-.12-15.08h2.32l.15,9.21h.06c.72-5.3,2.38-10.48,4.77-10.48,2,0,5.09,4.61,5.09,23.71v33.27h-2.62V139.11c0-9-.87-16.45-3.34-16.45-1.72,0-3.06,4.72-3.51,10.35-.12,1.27-.18,3-.18,4.72v33.5H312.2Z"/><path class="cls-7" d="M341.14,115.52c-.06,4-.12,8.52-.12,15.31v32.34c0,12.78-.65,20.6-2,25.44-1.4,5.06-3.43,6.67-5.24,6.67s-3.63-1.61-4.8-4.6l.66-7.71c1,2.3,2.44,4.37,4.23,4.37,2.68,0,4.64-5.41,4.64-19.45v-6.22h-.06c-.8,5.18-2.35,9.33-4.58,9.33-3.58,0-6.14-11.74-6.14-27.17,0-18.87,3.19-29.58,6.49-29.58,2.5,0,3.87,5.07,4.5,9.67h.06l.12-8.4Zm-2.71,22c0-1.72,0-3.22-.15-4.6-.47-5.87-1.75-10.7-3.66-10.7-2.5,0-4.29,8.17-4.29,21.06,0,10.93,1.43,20,4.26,20,1.61,0,3.07-3.92,3.63-10.36.15-1.73.21-3.69.21-5.41Z"/><path class="cls-7" d="M346.83,145.22c.06,13.69,2.32,19.33,4.94,19.33,1.88,0,3-1.26,4-2.88l.45,7.26c-.93,1.61-2.5,3.45-4.8,3.45-4.43,0-7.08-11.28-7.08-28.09s2.56-30,6.76-30c4.7,0,6,16,6,26.25,0,2.07-.06,3.68-.09,4.72Zm7.68-7.26c0-6.44-.68-16.46-3.63-16.46-2.65,0-3.81,9.44-4,16.46Z"/><path class="cls-7" d="M363.44,99.52v16h3.75v7.71h-3.75v30c0,6.91.51,10.82,2,10.82a2.08,2.08,0,0,0,1.52-.69L367,171a2.73,2.73,0,0,1-2.32,1.38c-1.22,0-2.2-1.5-2.82-4.26-.75-3-1-7.94-1-14.5V123.23h-2.23v-7.71h2.23V102.17Z"/><line class="cls-8" x1="24.67" y1="204.86" x2="375.33" y2="204.86"/><path class="cls-7" d="M37.57,227.82h7.12V297H68.26v8.41H37.57Z"/><path class="cls-7" d="M84,234c.08,3.45-1.72,6.21-4.59,6.21-2.53,0-4.33-2.76-4.33-6.21s1.88-6.33,4.5-6.33S84,230.47,84,234ZM76,305.4V249.69h7.2V305.4Z"/><path class="cls-7" d="M97.88,249.69,105.65,281c1.31,5.06,2.37,9.66,3.19,14.27h.25c.9-4.61,2-9.21,3.35-14.27l7.69-31.31h7.53L112.12,305.4h-6.88L90.18,249.69Z"/><polygon class="cls-9" points="152.25 252.7 183.42 253.11 214.6 253.52 198.8 298.02 182.99 342.53 167.62 297.61 152.25 252.7"/><ellipse class="cls-9" cx="169.59" cy="245.97" rx="20.5" ry="30.4"/><ellipse class="cls-9" cx="196.83" cy="245.64" rx="20.01" ry="27.97"/><polygon points="231 250.02 262.18 250.43 293.35 250.84 277.55 295.34 261.74 339.85 246.37 294.93 231 250.02"/><ellipse cx="248.35" cy="243.29" rx="20.5" ry="30.4"/><ellipse cx="275.58" cy="242.96" rx="20.01" ry="27.97"/><polygon points="306.41 250.02 337.59 250.43 368.77 250.84 352.96 295.34 337.16 339.85 321.79 294.93 306.41 250.02"/><ellipse cx="323.76" cy="243.29" rx="20.5" ry="30.4"/><ellipse cx="351" cy="242.96" rx="20.01" ry="27.97"/></g></svg>
