<?xml version="1.0" encoding="utf-8"?>
<!-- Generator: Adobe Illustrator 23.0.0, SVG Export Plug-In . SVG Version: 6.00 Build 0)  -->
<svg version="1.1" id="Lag_1" xmlns="http://www.w3.org/2000/svg" xmlns:xlink="http://www.w3.org/1999/xlink" x="0px" y="0px"
	 viewBox="0 0 400 400" style="enable-background:new 0 0 400 400;" xml:space="preserve">
<style type="text/css">
	.st0{opacity:0.61;clip-path:url(#SVGID_2_);fill:#FFCA99;enable-background:new    ;}
	.st1{display:none;clip-path:url(#SVGID_2_);fill:url(#SVGID_3_);}
	.st2{display:none;clip-path:url(#SVGID_2_);fill:#9F5A00;}
	.st3{clip-path:url(#SVGID_2_);fill:none;stroke:#9F5A00;stroke-width:4;stroke-miterlimit:10;}
	.st4{display:none;clip-path:url(#SVGID_2_);fill:#FF173C;}
	.st5{display:none;clip-path:url(#SVGID_2_);}
	.st6{fill:#D00010;}
</style>
<title>drober_liv</title>
<g>
	<defs>
		<rect id="SVGID_1_" x="24.7" y="49.5" width="350.6" height="301"/>
	</defs>
	<clipPath id="SVGID_2_">
		<use xlink:href="#SVGID_1_"  style="overflow:visible;"/>
	</clipPath>
	<path class="st0" d="M36.7,49.5h326.7c6.6,0,12,5.4,12,12v277c0,6.6-5.4,12-12,12H36.7c-6.6,0-12-5.4-12-12v-277
		C24.7,54.9,30,49.5,36.7,49.5z"/>

		<radialGradient id="SVGID_3_" cx="2376.29" cy="3264.5618" r="269.48" fx="2523.7041" fy="3403.1536" gradientTransform="matrix(0.16 0 0 0.17 -309.46 -428.06)" gradientUnits="userSpaceOnUse">
		<stop  offset="0" style="stop-color:#CCE0F4"/>
		<stop  offset="6.000000e-02" style="stop-color:#C3DCF2"/>
		<stop  offset="0.15" style="stop-color:#A9D2EE"/>
		<stop  offset="0.27" style="stop-color:#80C2E7"/>
		<stop  offset="0.41" style="stop-color:#47ACDE"/>
		<stop  offset="0.5" style="stop-color:#1E9CD7"/>
		<stop  offset="0.92" style="stop-color:#001D80"/>
	</radialGradient>
	<path class="st1" d="M93.1,99.4L89,92.1l-7.7-13.7v-0.2c0-2.2-0.5-3.4-1.1-3.4s-1.4,1.3-2,3.5c-0.1,0.2-0.1,0.5-0.2,0.8L66.3,92.1
		l-6.1,6.8c-7.9,4.8-15.4,13.2-20.1,24.4c-10.5,25.3-2.8,56,23.2,56.7c27,0.8,45.4-31,41.8-57.6C103.6,111.9,99,104.1,93.1,99.4z"/>
	<path class="st2" d="M55.9,116h-0.1l-6.7,4.7l-1-5.2l8.4-5.9h4.4v50.4h-5L55.9,116z"/>
	<path class="st2" d="M100.4,134.3c0,17.1-4.8,26.6-13.3,26.6c-7.5,0-12.6-9.2-12.7-25.9c0-16.9,5.6-26.2,13.3-26.2
		C95.8,108.8,100.4,118.2,100.4,134.3z M79.6,135.1c0,13.1,3.1,20.6,7.8,20.6c5.3,0,7.8-8.1,7.8-21c0-12.4-2.4-20.6-7.8-20.6
		C82.9,114.1,79.6,121.3,79.6,135.1z"/>
	<path class="st2" d="M111.1,94.7c1.7-1,3.6-1.6,5.5-1.6c3.7,0,6.4,3.3,8.1,9.7s2.8,15.3,2.8,27.9s-1,23-2.9,30.1s-5,11.2-8.9,11.2
		c-1.6,0-3.2-0.3-4.7-0.9V94.7z M113.7,163.3c0.8,0.4,1.7,0.6,2.6,0.6c5.5,0,8.5-12,8.5-32.9c0-18.3-2.7-29.9-8.1-29.9
		c-1.1,0-2.1,0.3-3,1L113.7,163.3z"/>
	<path class="st2" d="M130.9,132.9c0-6.6,0-12.2-0.1-17.4h2.2l0.1,10.9h0.1c0.6-7.5,2.2-12.2,4-12.2c0.3,0,0.6,0.1,0.7,0.3v9.6
		c-0.2-0.2-0.6-0.3-0.9-0.3c-1.9,0-3.2,5.4-3.5,13c-0.1,1.4-0.1,3-0.1,4.7v29.7h-2.6L130.9,132.9z"/>
	<path class="st2" d="M148.4,171.2l-0.2-7h-0.1c-0.8,4.4-2.4,8.3-4.4,8.3c-2.9,0-4.4-7.9-4.4-16c0-13.5,3.1-20.8,8.7-20.7v-1.1
		c0-4.6-0.3-12.9-3.3-12.9c-1.3,0-2.7,1.6-3.8,4.1l-0.6-6.7c1.2-3,2.9-5,4.7-5c4.4,0,5.5,11.6,5.5,22.8v20.8c0,4.8,0.1,9.6,0.2,13.4
		L148.4,171.2z M148,142.8c-2.9-0.2-6.1,1.7-6.1,12.5c0,6.6,1.1,9.7,2.5,9.7c1.9,0,3.1-4.6,3.5-9.3c0.1-1,0.1-2.2,0.1-3.2V142.8z
		 M142.4,99c0-6.1,1.2-10.9,3-10.9s2.9,4.7,2.9,10.8s-1.3,10.6-3,10.6S142.4,104.8,142.4,99z M146.9,98.8c0-3.5-0.6-6.3-1.5-6.3
		s-1.5,3-1.5,6.6c0,3,0.6,6.2,1.5,6.2S146.9,102.2,146.9,98.8L146.9,98.8z"/>
	<path class="st2" d="M154.7,171.2c0.1-3.8,0.1-9.4,0.1-14.4V89.5h2.6v35h0.1c0.9-6.2,2.6-10.2,4.9-10.2c3.6,0,6.1,11.5,6.1,28.4
		c0,19.9-3.2,29.8-6.5,29.8c-2.1,0-3.8-3.1-4.8-10.5h-0.1l-0.1,9.2L154.7,171.2z M157.4,148.9c0,1.3,0.1,2.5,0.1,3.7
		c0.5,7,2,11.9,3.9,11.9c2.7,0,4.4-8.6,4.4-21.4c0-11.2-1.5-20.7-4.3-20.7c-1.8,0-3.5,4.7-4,12.4c-0.1,1.1-0.1,2.5-0.1,4.1
		L157.4,148.9z"/>
	<path class="st2" d="M173.2,145.2c0.1,13.7,2.3,19.3,4.9,19.3c1.9,0,3-1.3,4-2.9l0.4,7.3c-0.9,1.6-2.5,3.4-4.8,3.4
		c-4.4,0-7.1-11.3-7.1-28.1s2.6-30,6.8-30c4.7,0,6,16,6,26.2c0,2.1-0.1,3.7-0.1,4.7L173.2,145.2z M180.9,138
		c0-6.4-0.7-16.5-3.6-16.5c-2.6,0-3.8,9.4-4,16.5H180.9z"/>
	<path class="st2" d="M186.7,132.9c0-6.6,0-12.2-0.1-17.4h2.3l0.1,10.9h0.1c0.6-7.5,2.2-12.2,4-12.2c0.3,0,0.6,0.1,0.7,0.3v9.6
		c-0.2-0.2-0.6-0.3-0.9-0.3c-1.9,0-3.2,5.4-3.5,13c-0.1,1.4-0.1,3-0.1,4.7v29.7h-2.6L186.7,132.9z"/>
	<path class="st2" d="M202.7,89.5h2.6v34.8h0.1c0.3-2.5,0.9-4.9,1.9-7.1c0.8-1.7,1.7-2.9,2.7-2.9c1.9,0,5,4.6,5,23.8v33.2h-2.6v-32
		c0-9-0.9-16.6-3.3-16.6c-1.7,0-3,4.6-3.5,10.1c-0.1,1.6-0.2,3.2-0.2,4.8v33.6h-2.6L202.7,89.5z"/>
	<path class="st2" d="M227.2,171.2l-0.2-7h-0.1c-0.8,4.4-2.4,8.3-4.4,8.3c-2.9,0-4.4-7.9-4.4-16c0-13.5,3.1-20.8,8.7-20.7v-1.1
		c0-4.6-0.3-12.9-3.3-12.9c-1.3,0-2.7,1.6-3.8,4.1l-0.6-6.7c1.2-3,2.9-5,4.7-5c4.4,0,5.5,11.6,5.5,22.8v20.8c0,4.8,0.1,9.6,0.2,13.4
		L227.2,171.2z M226.8,142.8c-2.9-0.2-6.1,1.7-6.1,12.5c0,6.6,1.1,9.7,2.5,9.7c1.9,0,3.1-4.6,3.5-9.3c0.1-1,0.1-2.2,0.1-3.2
		L226.8,142.8z"/>
	<path class="st2" d="M233.6,132.9c0-6.6,0-12.2-0.1-17.4h2.3l0.1,10.9h0.1c0.7-7.5,2.2-12.2,4-12.2c0.3,0,0.6,0.1,0.8,0.3v9.6
		c-0.2-0.2-0.6-0.3-0.9-0.3c-1.9,0-3.2,5.4-3.5,13c-0.1,1.4-0.1,3-0.1,4.7v29.7h-2.6L233.6,132.9z"/>
	<path class="st2" d="M262.1,89.5v67.3c0,4.9,0,10.6,0.1,14.4h-2.4l-0.1-9.7h-0.1c-0.8,6.2-2.6,10.9-4.9,10.9
		c-3.5,0-6.2-11.4-6.2-28.3c0-18.5,3-29.9,6.5-29.9c2.2,0,3.7,4,4.3,8.5h0.1V89.5H262.1z M259.5,138.2c0-1.3,0-3-0.1-4.2
		c-0.4-6.4-1.8-11.7-3.8-11.7c-2.7,0-4.3,9.2-4.3,21.5c0,11.3,1.4,20.6,4.3,20.6c1.8,0,3.4-4.5,3.8-12.1c0.1-1.4,0.1-2.8,0.1-4.4
		V138.2z"/>
	<path class="st2" d="M278.5,156c0,5.8,0,10.8,0.1,15.2h-2.3l-0.1-9.1h-0.1c-0.7,4.5-2.2,10.4-4.8,10.4c-2.3,0-5-4.8-5-24.4v-32.5
		h2.7v30.8c0,10.6,0.8,17.7,3.2,17.7c1.8,0,3-4.7,3.5-9.2c0.1-1.5,0.2-3.3,0.2-5.2v-34.2h2.6L278.5,156z"/>
	<path class="st2" d="M289.4,171.2v-48h-2v-7.7h2v-2.7c0-7.8,0.5-15,1.7-19.4c1-3.7,2.3-5.2,3.5-5.2c1,0.1,1.8,0.7,2.2,1.6l-0.4,7.8
		c-0.3-0.7-0.9-1.2-1.7-1.3c-2.2,0-2.8,7.6-2.8,16.1v3h3.5v7.7H292v48L289.4,171.2z"/>
	<path class="st2" d="M305.8,171.2l-0.2-7h-0.1c-0.8,4.4-2.4,8.3-4.4,8.3c-2.9,0-4.4-7.9-4.4-16c0-13.5,3.1-20.8,8.7-20.7v-1.1
		c0-4.6-0.3-12.9-3.3-12.9c-1.3,0-2.7,1.6-3.8,4.1l-0.6-6.7c1.2-3,2.9-5,4.7-5c4.4,0,5.5,11.6,5.5,22.8v20.8c0,4.8,0.1,9.6,0.2,13.4
		L305.8,171.2z M305.4,142.8c-2.9-0.2-6.1,1.7-6.1,12.5c0,6.6,1.1,9.7,2.5,9.7c1.9,0,3.1-4.6,3.5-9.3c0.1-1,0.1-2.2,0.1-3.2V142.8z"
		/>
	<path class="st2" d="M312.2,130.6c0-5.8,0-10.5-0.1-15.1h2.3l0.1,9.2h0.1c0.7-5.3,2.4-10.5,4.8-10.5c2,0,5.1,4.6,5.1,23.7v33.3
		h-2.6v-32.1c0-9-0.9-16.4-3.3-16.4c-1.7,0-3.1,4.7-3.5,10.4c-0.1,1.3-0.2,3-0.2,4.7v33.5h-2.6V130.6z"/>
	<path class="st2" d="M341.1,115.5c-0.1,4-0.1,8.5-0.1,15.3v32.3c0,12.8-0.6,20.6-2,25.4c-1.4,5.1-3.4,6.7-5.2,6.7s-3.6-1.6-4.8-4.6
		l0.7-7.7c1,2.3,2.4,4.4,4.2,4.4c2.7,0,4.6-5.4,4.6-19.4v-6.2h-0.1c-0.8,5.2-2.4,9.3-4.6,9.3c-3.6,0-6.1-11.7-6.1-27.2
		c0-18.9,3.2-29.6,6.5-29.6c2.5,0,3.9,5.1,4.5,9.7h0.1l0.1-8.4L341.1,115.5z M338.4,137.5c0-1.7,0-3.2-0.1-4.6
		c-0.5-5.9-1.8-10.7-3.7-10.7c-2.5,0-4.3,8.2-4.3,21.1c0,10.9,1.4,20,4.3,20c1.6,0,3.1-3.9,3.6-10.4c0.1-1.7,0.2-3.7,0.2-5.4V137.5z
		"/>
	<path class="st2" d="M346.8,145.2c0.1,13.7,2.3,19.3,4.9,19.3c1.9,0,3-1.3,4-2.9l0.5,7.3c-0.9,1.6-2.5,3.4-4.8,3.4
		c-4.4,0-7.1-11.3-7.1-28.1s2.6-30,6.8-30c4.7,0,6,16,6,26.2c0,2.1-0.1,3.7-0.1,4.7L346.8,145.2z M354.5,138
		c0-6.4-0.7-16.5-3.6-16.5c-2.6,0-3.8,9.4-4,16.5H354.5z"/>
	<path class="st2" d="M363.4,99.5v16h3.8v7.7h-3.8v30c0,6.9,0.5,10.8,2,10.8c0.6,0,1.1-0.3,1.5-0.7l0,7.6c-0.5,0.8-1.4,1.4-2.3,1.4
		c-1.2,0-2.2-1.5-2.8-4.3c-0.8-3-1-7.9-1-14.5v-30.4h-2.2v-7.7h2.2v-13.4L363.4,99.5z"/>
	<line class="st3" x1="24.7" y1="204.9" x2="375.3" y2="204.9"/>
	<path class="st2" d="M37.6,227.8h7.1V297h23.6v8.4H37.6V227.8z"/>
	<path class="st2" d="M84,234c0.1,3.4-1.7,6.2-4.6,6.2c-2.5,0-4.3-2.8-4.3-6.2s1.9-6.3,4.5-6.3S84,230.5,84,234z M76,305.4v-55.7
		h7.2v55.7H76z"/>
	<path class="st2" d="M97.9,249.7l7.8,31.3c1.3,5.1,2.4,9.7,3.2,14.3h0.2c0.9-4.6,2-9.2,3.3-14.3l7.7-31.3h7.5l-15.5,55.7h-6.9
		l-15.1-55.7H97.9z"/>
	<polygon class="st4" points="152.2,252.7 183.4,253.1 214.6,253.5 198.8,298 183,342.5 167.6,297.6 	"/>
	<ellipse class="st4" cx="169.6" cy="246" rx="20.5" ry="30.4"/>
	<ellipse class="st4" cx="196.8" cy="245.6" rx="20" ry="28"/>
	<polygon class="st5" points="231,250 262.2,250.4 293.4,250.8 277.5,295.3 261.7,339.9 246.4,294.9 	"/>
	<ellipse class="st5" cx="248.4" cy="243.3" rx="20.5" ry="30.4"/>
	<ellipse class="st5" cx="275.6" cy="243" rx="20" ry="28"/>
	<polygon class="st5" points="306.4,250 337.6,250.4 368.8,250.8 353,295.3 337.2,339.9 321.8,294.9 	"/>
	<ellipse class="st5" cx="323.8" cy="243.3" rx="20.5" ry="30.4"/>
	<ellipse class="st5" cx="351" cy="243" rx="20" ry="28"/>
</g>
<path class="st6" d="M650.1,251.5c0-8.8-7.2-16-16-16c-6.1,0-11.4,3.4-14.1,8.4c-2.7-5-8-8.4-14.1-8.4c-8.8,0-16,7.2-16,16
	c0,7,4.5,13,10.8,15.1l7.3,17l10.9,25.5l11.6-25.2l7.8-16.9C645.1,265.1,650.1,258.9,650.1,251.5z"/>
<path d="M1078.9,251.5c0-8.8-7.2-16-16-16c-6.1,0-11.4,3.4-14.1,8.4c-2.7-5-8-8.4-14.1-8.4c-8.8,0-16,7.2-16,16
	c0,7,4.5,13,10.8,15.1l7.3,17l10.9,25.5l11.6-25.2l7.8-16.9C1073.8,265.1,1078.9,258.9,1078.9,251.5z"/>
</svg>
