<?xml version="1.0" encoding="utf-8"?>
<!-- Generator: Adobe Illustrator 23.0.0, SVG Export Plug-In . SVG Version: 6.00 Build 0)  -->
<svg version="1.1" id="Lag_1" xmlns="http://www.w3.org/2000/svg" xmlns:xlink="http://www.w3.org/1999/xlink" x="0px" y="0px"
	 viewBox="0 0 600 600" style="enable-background:new 0 0 600 600;" xml:space="preserve">
<style type="text/css">
	.st0{opacity:0.84;fill:#FFCA99;}
</style>
<title>instillinger2</title>
<path class="st0" d="M583,592H17c-6.6,0-12-5.4-12-12V20c0-6.6,5.4-12,12-12h566c6.6,0,12,5.4,12,12v560
	C595,586.6,589.6,592,583,592z"/>
<path d="M307.1,255.5c-0.5-4.5-1.3-9-2.4-13.4l-5.2-24c-0.1-0.4-1.8-8.8-1.9-9.6c-0.6-3.2-0.6-3.2-0.9-4.5
	c0.3,5.7,0.6,13.1,0.6,17.9v19.6c0,6.2,0.1,10.2,0.5,14h-11.2c0.3-4.1,0.5-7.8,0.5-14v-47c0-5.4-0.2-10.2-0.5-14.1h15
	c0.4,4.3,1.2,8.5,2.1,12.7l8.5,38.9l8.4-38.9c1-4.2,1.7-8.4,2.1-12.7h15c-0.3,4.3-0.5,8-0.5,14.1v47c0,6.9,0.1,10.4,0.5,14h-11.1
	c0.3-4.1,0.5-7.6,0.5-14v-19.6c0-2.2,0.2-8.9,0.3-11.7c0.2-4.8,0.2-4.8,0.2-6.1c-1.2,7-1.8,10.3-2.5,13.5l-5.5,24.7
	c-1.1,4.4-1.9,8.8-2.4,13.3L307.1,255.5z"/>
<path d="M379.8,200.5c-0.3,4.2-0.5,8-0.5,13.5v27.9c0,6.2,0.1,9.9,0.5,13.5h-11.3v-6.3c-3.7,5.6-7,7.7-11.8,7.7
	c-3.7,0.1-7.1-1.9-9-5.1c-2.3-3.6-3.2-8-3.2-15.1V214c0-5.2-0.2-9.7-0.5-13.5h11.8c-0.3,4.3-0.5,8.1-0.5,13.5v18.5
	c0,3.7,0.2,5.3,0.9,6.8c0.6,1.5,2.1,2.5,3.7,2.6c3.1,0,6.3-3.5,8.5-9.3V214c0-5.1-0.1-8.8-0.5-13.5L379.8,200.5z"/>
<path d="M395.7,237.1c0.6,4.7,2.5,6.8,6.3,6.8c3.4,0,5.3-1.5,5.3-4.3c0.1-1.2-0.4-2.4-1.3-3.2c-0.8-0.7-1.5-1.1-4.6-2.1
	c-2.9-0.8-5.7-1.9-8.4-3.2c-2.6-1.4-4.6-3.7-5.7-6.4c-1-2.8-1.4-5.7-1.4-8.6c0-10.8,5.7-17.4,15.2-17.4c5.4,0,9.4,1.9,12.1,5.8
	c1.9,2.6,2.8,5.2,3.7,10.3l-10.9,1.9c-0.3-3.7-1.7-5.3-4.8-5.3s-4.8,1.5-4.8,3.9s1.2,3.3,6.8,5.3s7.3,2.7,9.3,4.3
	c3.7,2.9,5.4,7.3,5.4,13.8c0,4.8-1,9.1-2.9,12c-2.7,4.3-7.4,6.6-13.4,6.6c-7.1,0-12.2-3.1-14.9-9c-1.2-2.9-2-5.9-2.3-9L395.7,237.1z
	"/>
<path d="M434.6,200.5c-0.3,3.7-0.5,7.3-0.5,13.6v27.8c0,4.9,0.2,9.7,0.5,13.6h-11.8c0.3-4.4,0.5-7.8,0.5-13.6v-27.8
	c0-5.9-0.1-9.6-0.5-13.6H434.6z M434.5,180.5V194H423v-13.5L434.5,180.5z"/>
<path d="M452.1,180.5c-0.3,3.7-0.5,7.6-0.5,13.6v25.3l6.2-9.8c1.9-2.9,3.6-5.9,4.9-9.1h15.1c-2.2,3.1-2.9,4.1-6,8.8l-8.2,12.7
	l9.5,22c3.5,7.9,3.7,8.5,5.3,11.5H464c-1-4.1-2.2-8.1-3.7-12.1l-4.3-11.2l-4.2,6.5v3.6c-0.1,4.4,0,8.8,0.5,13.2h-11.6
	c0.3-4.1,0.5-7.7,0.5-13.6v-47.8c0-6.1-0.2-10.3-0.5-13.6L452.1,180.5z"/>
<path d="M290,467.5c-1.9,0-3.9,0.1-5.8,0.2c0.2-2.9,0.3-6.6,0.3-12.2v-44.3c0-5.9-0.1-9.5-0.3-13.5h8.6c-0.3,4.4-0.3,6.7-0.3,13.3
	v41.6h9.5c2.2,0.1,4.4-0.1,6.5-0.6V468c-2.1-0.5-4.3-0.7-6.5-0.6H290z"/>
<path d="M309,427.5c-1.7-8.4-1.9-9.1-2.4-11.2h8.5c0.3,3.6,0.8,7.2,1.5,10.8l3.6,19.4l3.5-19c0.8-3.7,1.4-7.4,1.7-11.2h8.6
	c-1,4.4-1,4.4-2.4,11.2l-9,44.4c-1.6,7.9-4.4,11.5-8.9,11.5c-1.9,0-3.7-0.5-5.4-1.4l0.9-13.3c1.3,1.4,2,1.9,3.1,1.9
	c1.5,0,2.6-1.4,3.2-3.9l0.8-3.6L309,427.5z"/>
<path d="M354.9,464.8v-1.9c-2.6,4.5-4.6,6-8,6c-7.2,0-11.5-10.2-11.5-27.2c0-8.7,1.2-15.7,3.4-20.5c2-4.3,4.8-6.5,8-6.5
	s5.5,1.8,8.1,6.2v-10.2c0-5.9-0.1-9.5-0.3-13.2h8.1c-0.2,3.5-0.3,7.5-0.3,13.2v43.5c0,5.6,0.1,9.1,0.3,13.2h-7.8L354.9,464.8z
	 M343.1,441.9c0,4.8,0.6,8.6,1.8,11.1c1,2,2.4,3.2,3.8,3.2c3.5,0,6.1-6.2,6.1-14.5c0-8.1-2.5-14-6.1-14
	C345.3,427.6,343.1,433.1,343.1,441.9z"/>
<path d="M373.1,446.6c0.4,6.8,2.2,10.4,5.4,10.4c1.6,0,3-1.1,4-3.1c0.7-1.3,1.1-2.8,1.2-4.3l6.9,4.1c-0.5,3-1.4,5.9-2.6,8.6
	c-2.2,4.7-5.4,7.1-9.3,7.1s-6.9-2.4-9.2-7.1c-2.3-5-3.6-12.2-3.6-20.5c0-16.6,5-27.6,12.5-27.6c6.1,0,10.5,7.1,11.8,19.6
	c0.3,2.7,0.5,6.2,0.6,11v1.7L373.1,446.6z M383.3,435c-0.5-5.4-2.2-8.2-5-8.2s-4.5,2.7-5.2,8.2H383.3z"/>
<path d="M396.6,429.2c-1.5-0.1-3,0.1-4.4,0.6v-14.1c1.4,0.4,2.9,0.6,4.4,0.6h1.1v-3.9c0-11.1,3-16.2,9.4-16.2c2.1,0,4.2,0.6,6,1.8
	l-1.2,12.3c-0.9-1.3-2.3-2-3.9-2.1c-1.9,0-2.7,1.7-2.7,6v2.1h1.1c1.8,0,3.5-0.2,5.2-0.6v14.1c-1.7-0.4-3.4-0.6-5.2-0.6h-1.2v25.6
	c0,5.8,0.1,8.6,0.3,12.7h-8.2c0.2-4.1,0.3-7.2,0.3-12.7v-25.6H396.6z"/>
<path d="M418.1,429.2c-1.5-0.1-3,0.1-4.4,0.6v-14.1c1.4,0.4,2.9,0.6,4.4,0.6h1.1v-3.9c0-11.1,3-16.2,9.4-16.2c2.1,0,4.2,0.6,6,1.8
	l-1.2,12.3c-0.9-1.3-2.4-2-3.9-2.1c-1.9,0-2.7,1.7-2.7,6v2.1h1.1c1.8,0,3.5-0.2,5.2-0.6v14.1c-1.7-0.4-3.4-0.6-5.2-0.6h-1.2v25.6
	c0,5.8,0.1,8.6,0.3,12.7h-8.2c0.2-4.1,0.3-7.2,0.3-12.7v-25.6H418.1z"/>
<path d="M443.1,446.6c0.4,6.8,2.2,10.4,5.4,10.4c1.6,0,3-1.1,4-3.1c0.7-1.3,1.1-2.8,1.2-4.3l6.9,4.1c-0.5,3-1.4,5.9-2.6,8.6
	c-2.2,4.7-5.4,7.1-9.3,7.1s-6.9-2.4-9.1-7.1c-2.3-5-3.6-12.2-3.6-20.5c0-16.6,5-27.6,12.5-27.6c6.2,0,10.5,7.1,11.8,19.6
	c0.3,2.7,0.5,6.2,0.6,11v1.7L443.1,446.6z M453.4,435c-0.5-5.4-2.2-8.2-5-8.2s-4.5,2.7-5.2,8.2H453.4z"/>
<path d="M472,397.7c-0.2,3.4-0.3,7-0.3,12.7v23.6l4.3-9.1c1.4-2.7,2.5-5.6,3.4-8.5H490c-1.5,2.9-2,3.8-4.1,8.2l-5.7,11.8l6.6,20.5
	c2.4,7.4,2.6,7.9,3.7,10.7h-10.1c-0.7-3.8-1.5-7.5-2.6-11.2l-3-10.4l-3,6v3.4c-0.1,4.1,0,8.2,0.3,12.2h-8c0.2-3.8,0.3-7.1,0.3-12.7
	v-44.4c0-5.7-0.1-9.6-0.3-12.7L472,397.7z"/>
<path d="M496,414.5c0-4.2-0.1-7.5-0.3-11.5h8c-0.2,3.4-0.3,7.5-0.3,11.5v1.8h1.4c1.3,0.1,2.6-0.1,3.9-0.4v13.9
	c-1.2-0.3-2.4-0.5-3.6-0.5h-1.7v21.5c0,2.4,0.2,3.5,0.7,4.3c0.4,0.6,1.1,0.9,1.8,0.9c1.1,0,2.1-0.6,2.8-1.5l0.6,12.8
	c-1.6,1.1-3.5,1.7-5.5,1.7c-2.3,0.2-4.6-0.9-5.8-2.9c-1.5-2.4-2-5.3-2-11v-25.7h-1.5c-1.2,0-2.3,0.2-3.4,0.5v-14
	c1.1,0.4,2.3,0.5,3.5,0.5h1.4V414.5z"/>
<path d="M518,446.6c0.4,6.8,2.2,10.4,5.4,10.4c1.6,0,3-1.1,4-3.1c0.7-1.3,1.1-2.8,1.2-4.3l6.9,4.1c-0.5,3-1.4,5.9-2.6,8.6
	c-2.2,4.7-5.4,7.1-9.3,7.1s-6.9-2.4-9.2-7.1c-2.3-5-3.6-12.2-3.6-20.5c0-16.6,5-27.6,12.6-27.6c6.2,0,10.5,7.1,11.8,19.6
	c0.3,2.7,0.5,6.2,0.6,11v1.7L518,446.6z M528.3,435c-0.5-5.4-2.2-8.2-5-8.2s-4.5,2.7-5.2,8.2H528.3z"/>
<path d="M556.7,431.4c-1.8-1.2-2.8-1.6-4-1.6c-2,0-3.5,1.5-4.7,4.5c-0.8,2.4-1.2,4.9-1.2,7.5v13.1c0,5.4,0.1,8.5,0.3,12.6h-8.2
	c0.2-4.2,0.3-7.2,0.3-12.7V429c0-6.1-0.1-9.1-0.3-12.7h7.8v6.7c1.9-5.4,4.3-7.6,7.9-7.6c1.4,0,2.7,0.3,3.9,1L556.7,431.4z"/>
</svg>
