<svg id="Lag_1" data-name="Lag 1" xmlns="http://www.w3.org/2000/svg" width="150" height="100" viewBox="0 0 150 100"><defs><style>.cls-1,.cls-3{fill:#ffca99;isolation:isolate;}.cls-2{fill:#9f5a00;}.cls-3{opacity:0.62;}</style></defs><title>instillinger</title><path class="cls-1" d="M3.91,26.26H146.09c.88,0,1.6.44,1.6,1V84.18c0,.53-.72,1-1.6,1H3.91c-.88,0-1.6-.44-1.6-1V27.24C2.31,26.7,3,26.26,3.91,26.26Z"/><path class="cls-2" d="M49.63,46.62c-.09,1-.12,1.83-.12,3.62V63.36c0,1.69,0,2.59.12,3.62H46.25c.09-1,.12-2,.12-3.62V50.24c0-1.84,0-2.55-.12-3.62Z"/><path class="cls-2" d="M51.4,67c.1-1.15.13-2.18.13-3.69V55.75a35.87,35.87,0,0,0-.13-3.7h3.07v1c0,.15,0,.51,0,.68,1-1.47,1.91-2.08,3.17-2.08a2.79,2.79,0,0,1,2.48,1.37A7.34,7.34,0,0,1,61,57.17v6.14C61,64.73,61,66,61.1,67H57.9c.09-1.17.12-2.2.12-3.69v-5a4.22,4.22,0,0,0-.24-1.81,1.09,1.09,0,0,0-1-.69c-.86,0-1.63.86-2.29,2.57v4.95c0,1.39,0,2.42.12,3.69Z"/><path class="cls-2" d="M65.4,62c.15,1.27.67,1.83,1.71,1.83s1.44-.41,1.44-1.17a1.14,1.14,0,0,0-.34-.88c-.21-.2-.41-.3-1.26-.57a12.47,12.47,0,0,1-2.28-.88,3.52,3.52,0,0,1-1.54-1.73,7.11,7.11,0,0,1-.38-2.33c0-2.94,1.55-4.72,4.12-4.72a3.69,3.69,0,0,1,3.28,1.56,6.12,6.12,0,0,1,1,2.79l-3,.52c-.07-1-.46-1.45-1.29-1.45S65.6,55.38,65.6,56s.32.9,1.84,1.44A7.16,7.16,0,0,1,70,58.63a4.42,4.42,0,0,1,1.48,3.75,6.1,6.1,0,0,1-.79,3.25A4,4,0,0,1,67,67.42,4.09,4.09,0,0,1,63,65a7.89,7.89,0,0,1-.61-2.44Z"/><path class="cls-2" d="M74,51.54c0-1.23,0-2.21-.13-3.36H77c-.07,1-.12,2.18-.12,3.36v.51h.55a6.53,6.53,0,0,0,1.51-.12V56a6.16,6.16,0,0,0-1.41-.15h-.65v6.27a1.81,1.81,0,0,0,.28,1.25,1,1,0,0,0,.71.27,1.57,1.57,0,0,0,1.07-.44l.23,3.72a4.42,4.42,0,0,1-2.12.49,2.72,2.72,0,0,1-2.26-.86c-.59-.71-.8-1.54-.8-3.21V55.84H73.4a5.85,5.85,0,0,0-1.34.15V51.9a5.81,5.81,0,0,0,1.37.15H74Z"/><path class="cls-2" d="M83.36,52.05c-.09,1-.12,2-.12,3.7v7.54c0,1.32,0,2.64.12,3.69H80.14c.09-1.2.13-2.13.13-3.69V55.75c0-1.59,0-2.6-.13-3.7Zm0-5.43v3.67H80.19V46.62Z"/><path class="cls-2" d="M88.21,46.62c-.09,1-.13,2-.13,3.69v13c0,1.46,0,2.39.13,3.69H85c.09-1.1.12-1.93.12-3.69v-13c0-1.73,0-2.76-.12-3.69Z"/><path class="cls-2" d="M93,46.62c-.09,1-.12,2-.12,3.69v13c0,1.46,0,2.39.12,3.69H89.82A36.26,36.26,0,0,0,90,63.29v-13a34.57,34.57,0,0,0-.13-3.69Z"/><path class="cls-2" d="M97.88,52.05a35.74,35.74,0,0,0-.13,3.7v7.54c0,1.32,0,2.64.13,3.69H94.66c.09-1.2.12-2.13.12-3.69V55.75c0-1.59,0-2.6-.12-3.7Zm0-5.43v3.67H94.7V46.62Z"/><path class="cls-2" d="M99.51,67c.09-1.15.12-2.18.12-3.69V55.75c0-1.69,0-2.72-.12-3.7h3.06v1c0,.15,0,.51,0,.68,1-1.47,1.91-2.08,3.18-2.08a2.79,2.79,0,0,1,2.47,1.37,7.34,7.34,0,0,1,.88,4.12v6.14c0,1.42,0,2.64.13,3.67H106c.09-1.17.13-2.2.13-3.69v-5a4.18,4.18,0,0,0-.25-1.81,1.08,1.08,0,0,0-1-.69c-.86,0-1.63.86-2.29,2.57v4.95c0,1.39,0,2.42.12,3.69Z"/><path class="cls-2" d="M112.87,66.56a2.54,2.54,0,0,0,2.34,1.67,2,2,0,0,0,1.88-1.08,5.59,5.59,0,0,0,.49-2.62,3.19,3.19,0,0,1-2.8,1.62c-2.68,0-4.38-2.79-4.38-7.25s1.74-7.22,4.38-7.22a3.37,3.37,0,0,1,2.8,1.42V52.05h3a34,34,0,0,0-.13,3.4V64c0,2.94-.52,4.92-1.6,6.12a5.25,5.25,0,0,1-8.22-1.27Zm2.48-3.94c1.26,0,2.17-1.54,2.17-3.72s-.91-3.74-2.16-3.74-2,1.49-2,3.77S114.13,62.62,115.35,62.62Z"/><path class="cls-2" d="M124.66,60.89c.15,2,.88,3,2.09,3a1.88,1.88,0,0,0,1.56-.9,3,3,0,0,0,.46-1.25l2.68,1.2a8.6,8.6,0,0,1-1,2.52,4.15,4.15,0,0,1-3.63,2.08,4,4,0,0,1-3.57-2.08,11.49,11.49,0,0,1-1.4-6c0-4.85,2-8.06,4.89-8.06,2.4,0,4.08,2.08,4.62,5.73a29.65,29.65,0,0,1,.23,3.21c0,.09,0,.24,0,.49Zm4-3.38c-.21-1.57-.88-2.4-1.94-2.4s-1.75.78-2,2.4Z"/><path class="cls-2" d="M139.74,56.46a3.28,3.28,0,0,0-1.57-.47,2,2,0,0,0-1.83,1.32,5,5,0,0,0-.46,2.18v3.82c0,1.57,0,2.5.12,3.67h-3.18c.09-1.22.12-2.1.12-3.69V55.75c0-1.79,0-2.65-.12-3.7h3.06V54c.75-1.56,1.68-2.22,3.08-2.22a4.11,4.11,0,0,1,1.52.29Z"/><ellipse class="cls-2" cx="22.4" cy="56.52" rx="16.18" ry="19.62"/><ellipse class="cls-3" cx="22.4" cy="56.52" rx="4.47" ry="5.28"/><ellipse class="cls-1" cx="14.69" cy="41.77" rx="5.23" ry="6.49"/><ellipse class="cls-1" cx="32.1" cy="41.77" rx="5.23" ry="6.49"/><ellipse class="cls-1" cx="33.34" cy="66.57" rx="5.23" ry="6.49"/><ellipse class="cls-1" cx="10.77" cy="66.57" rx="5.23" ry="6.49"/></svg>
