<svg id="Lag_1" data-name="Lag 1" xmlns="http://www.w3.org/2000/svg" width="107.75" height="130" viewBox="0 0 107.75 130"><defs><style>.cls-1{fill:#9f5a00;}.cls-2{fill:#ffca99;}.cls-3{fill:none;stroke:#9f5a00;stroke-miterlimit:10;stroke-width:3px;}</style></defs><title>Lyd</title><rect class="cls-1" x="16.32" y="57.46" width="16.43" height="35.77" rx="8.21"/><ellipse class="cls-1" cx="36.43" cy="70.35" rx="11.9" ry="31.82"/><ellipse class="cls-2" cx="45.36" cy="70.35" rx="8.92" ry="30.51"/><rect class="cls-1" x="34.73" y="40.37" width="8.29" height="59.96"/><polyline class="cls-1" points="43.05 50.48 27.41 50.57 35.22 40.08 43.02 29.59"/><polyline class="cls-1" points="43.05 91.77 27.41 91.68 35.22 102.17 43.02 112.66"/><path class="cls-3" d="M56.41,50.36c2.46,0,4.45,9,4.45,20s-2,20-4.45,20"/><path class="cls-3" d="M67.34,35c4,0,7.23,14.61,7.23,32.64s-3.23,32.65-7.23,32.65"/><path class="cls-3" d="M81.43,20.09c6,0,10.89,20.72,10.89,46.29s-4.88,46.28-10.89,46.28"/></svg>
