<svg id="Lag_1" data-name="Lag 1" xmlns="http://www.w3.org/2000/svg" width="100" height="130" viewBox="0 0 100 130"><defs><style>.cls-1{fill:#9f5a00;}.cls-2{fill:#ffca99;}.cls-3{fill:none;stroke:#000;stroke-miterlimit:10;stroke-width:3px;}</style></defs><title>Lydløs</title><path class="cls-1" d="M40.27,64.67h0a9.09,9.09,0,0,1,9.1,9.1V90.49a9.09,9.09,0,0,1-9.1,9.1h0a9.09,9.09,0,0,1-9.1-9.1V73.77A9.09,9.09,0,0,1,40.27,64.67Z"/><ellipse class="cls-1" cx="53.44" cy="77.26" rx="13.18" ry="31.07"/><ellipse class="cls-2" cx="63.33" cy="77.26" rx="9.88" ry="29.79"/><rect class="cls-1" x="51.56" y="47.98" width="9.19" height="58.55"/><polyline class="cls-1" points="60.78 57.85 43.45 57.94 52.1 47.7 60.74 37.45"/><polyline class="cls-1" points="60.78 98.17 43.45 98.08 52.1 108.33 60.74 118.57"/><line class="cls-3" x1="79.16" y1="37.45" x2="20.84" y2="118.57"/></svg>
