<?xml version="1.0" encoding="utf-8"?>
<!-- Generator: Adobe Illustrator 23.0.0, SVG Export Plug-In . SVG Version: 6.00 Build 0)  -->
<svg version="1.1" id="Lag_1" xmlns="http://www.w3.org/2000/svg" xmlns:xlink="http://www.w3.org/1999/xlink" x="0px" y="0px"
	 viewBox="0 0 320 320" style="enable-background:new 0 0 320 320;" xml:space="preserve">
<style type="text/css">
	.st0{fill:#0E1B58;}
	.st1{fill:none;stroke:#FFFFFF;stroke-width:0.25;stroke-linecap:round;stroke-miterlimit:10;}
	.st2{fill:#FFCA99;}
	.st3{fill:#C89FD1;}
	.st4{fill:#9854B7;}
	.st5{fill:#9F5A00;}
	.st6{fill:#337BA9;}
	.st7{fill:#0E1B58;stroke:#FFFFFF;stroke-width:0.25;stroke-linecap:round;stroke-miterlimit:10;}
</style>
<title>Pige</title>
<g id="Pige">
	<g>
		<path class="st0" d="M194.4,112.3V53.4c0-1.3-1.1-2.4-2.4-2.4c0,0,0,0,0,0h-59.1c-1.3,0-2.4,1.1-2.4,2.4v59.5l-28.7,45.4l60.5,0.8
			l60.5,0.8L194.4,112.3z"/>
		<path class="st1" d="M194.4,112.3V53.4c0-1.3-1.1-2.4-2.4-2.4c0,0,0,0,0,0h-59.1c-1.3,0-2.4,1.1-2.4,2.4v59.5l-28.7,45.4l60.5,0.8
			l60.5,0.8L194.4,112.3z"/>
	</g>
	<path class="st2" d="M175.5,152.6h-22.2c-1.2,0-1.7-1-1.3-2.2l4.1-11.7c0.2-0.5,0.9-0.9,1.6-0.9h13.4c0.7,0,1.4,0.4,1.6,0.9
		l4.1,11.7C177.2,151.6,176.6,152.6,175.5,152.6z"/>
	<path class="st3" d="M201.5,164.7c0-8.2-4.5-14.8-10.2-14.8c-2.2,0-4.2,1-5.8,2.7h-42.2c-1.6-1.7-3.7-2.7-5.8-2.7
		c-5.6,0-10.2,6.6-10.2,14.8c0,4.5,1.4,8.5,3.5,11.2v44.2c0,1.3,1.2,2.3,2.6,2.3H194c1.5,0,2.6-1,2.6-2.3v-42.7
		C199.5,174.7,201.5,170,201.5,164.7z"/>
	<path class="st4" d="M201.8,115.5V83.1c0-0.2-0.1-0.5-0.2-0.7c0.2-1.4,0.2-2.9,0.2-4.3c0-21.7-17.8-39.3-39.8-39.3
		s-39.8,17.6-39.8,39.3c0,1.4,0.1,2.9,0.2,4.3c-0.1,0.2-0.2,0.5-0.2,0.8v32.4c0,0.1,0,0.1,0,0.2c0,0.2,0,0.4,0,0.6
		c0,11.9,17.7,21.5,39.6,21.5s39.6-9.6,39.6-21.5v0C201.8,116,201.9,115.8,201.8,115.5z"/>
	<path class="st2" d="M198.1,113.4V93c0-0.2,0-0.3-0.1-0.4c0.1-0.9,0.2-1.8,0.2-2.7c0-13.7-15.7-24.8-35-24.8s-35,11.1-35,24.8
		c0,0.9,0.1,1.8,0.2,2.7c-0.1,0.1-0.1,0.3-0.2,0.5v20.4c0,0,0,0.1,0,0.1c0,0.1,0,0.2,0,0.4c0,7.5,15.6,13.6,34.8,13.6
		S198,121.5,198,114v0C198.1,113.8,198.1,113.6,198.1,113.4z"/>
	<path class="st5" d="M169,101.4l-1.9-3.4l-2.7-4.7l-2.7,4.7l-1.9,3.4c-1.1,0.9-1.8,2.1-1.8,3.5c0,2.8,2.9,5,6.4,5
		c3.6,0,6.4-2.3,6.4-5C170.8,103.5,170.1,102.3,169,101.4z"/>
	<ellipse class="st6" cx="176.2" cy="87.9" rx="7.7" ry="7.7"/>
	<ellipse class="st6" cx="154.2" cy="80.1" rx="10.1" ry="10.1"/>
	<ellipse transform="matrix(0.865 -0.5017 0.5017 0.865 -22.3669 90.827)" class="st0" cx="157.6" cy="87" rx="3.4" ry="1.1"/>
	<ellipse transform="matrix(0.865 -0.5017 0.5017 0.865 -22.7902 101.9998)" class="st0" cx="178.2" cy="93.4" rx="2.4" ry="0.6"/>

		<ellipse transform="matrix(0.7934 -0.6087 0.6087 0.7934 -19.2722 123.7914)" class="st0" cx="172.7" cy="90.3" rx="1.4" ry="3.7"/>
	<path class="st2" d="M199.2,155.6c-2.9-0.6-6.2,1.9-7.9,5.8c-1.8,4.3-0.8,8.8,2.2,10c0.2,0.1,0.4,0.1,0.6,0.2
		c0.5,0.3,1,0.5,1.5,0.7l39.8,14.1c0.8,0.3,1.6,0,1.9-0.5l3.1-6.5c0.3-0.6-0.1-1.4-0.8-1.8l-36.6-20.9
		C201.7,155.9,200.2,155.5,199.2,155.6z"/>
	<path class="st4" d="M205.5,222.9c0-1.8-1.9-3.2-4.1-3.2h-76c-2.3,0-4.1,1.5-4.1,3.2v20.5c0,0.7,0.3,1.4,0.8,1.9l23.6,48.3
		l8.5,17.3l2-16.4l5.7-47.8h3.2l5.7,47.8l2,16.4l8.5-17.3l23.6-48.3c0.5-0.5,0.8-1.2,0.8-1.9V222.9z"/>
	<polygon class="st7" points="203.2,310.8 171.3,311.1 171.3,295.4 203.6,301.9 	"/>
	<path class="st3" d="M121.2,219.8c0-16.8,18.9-30.4,42.1-30.4s42.1,13.6,42.1,30.4"/>
	<polygon class="st7" points="125,310.7 157.7,311 157.7,295.3 124.5,301.8 	"/>

		<ellipse transform="matrix(0.7932 -0.6089 0.6089 0.7932 -20.6807 108.3581)" class="st0" cx="149.2" cy="84.6" rx="1.7" ry="5.5"/>
	<path class="st2" d="M138.6,169.5c2-2.2,1.7-6.3-0.8-9.7c-2.8-3.8-7.1-5.3-9.7-3.3c-0.2,0.1-0.3,0.3-0.5,0.4
		c-0.5,0.3-0.9,0.6-1.4,0.9l-32.8,26.7c-0.6,0.5-0.9,1.4-0.5,1.9l3.9,6c0.3,0.5,1.2,0.7,1.9,0.3l36.8-20.3
		C137,171.6,138.1,170.5,138.6,169.5z"/>
	<ellipse class="st2" cx="122.5" cy="105.4" rx="6.2" ry="6.2"/>
	<ellipse class="st2" cx="204.4" cy="105.4" rx="6.2" ry="6.2"/>
	<path class="st2" d="M93.1,187.1l3.7-5.2c0.9-1.3,3.1-1.1,4.9,0.3l25.6,20.8c0.8,0.6,0.9,1.7,0.3,2.5l-2.3,3.2
		c-0.6,0.8-1.7,1-2.5,0.5l-27.8-17.7C93,190.5,92.2,188.4,93.1,187.1z"/>
	<path class="st2" d="M238,187.5l-6-2.1c-1.5-0.5-1.9-2.7-1.1-4.8l12.7-30.5c0.4-0.9,1.4-1.4,2.3-1l3.8,1.3c0.9,0.3,1.4,1.3,1.2,2.3
		l-9.1,31.8C241.2,186.6,239.5,188,238,187.5z"/>
	<ellipse transform="matrix(0.9929 -0.1187 0.1187 0.9929 -14.5281 29.3192)" class="st2" cx="238.8" cy="136.6" rx="4" ry="8.1"/>
	<ellipse transform="matrix(0.5755 -0.8178 0.8178 0.5755 -4.213 274.2808)" class="st2" cx="262.1" cy="141.2" rx="8.2" ry="2.7"/>

		<ellipse transform="matrix(0.4503 -0.8929 0.8929 0.4503 20.6036 306.0602)" class="st2" cx="258.9" cy="136.3" rx="9.4" ry="3.6"/>

		<ellipse transform="matrix(0.3448 -0.9387 0.9387 0.3448 41.4377 325.0226)" class="st2" cx="253.6" cy="132.8" rx="11.1" ry="4.1"/>
	<ellipse transform="matrix(0.1919 -0.9814 0.9814 0.1919 69.2337 349.67)" class="st2" cx="246.9" cy="132.8" rx="9.8" ry="4.1"/>

		<ellipse transform="matrix(0.6439 -0.7651 0.7651 0.6439 -20.4094 241.5978)" class="st2" cx="249.3" cy="142.7" rx="9.2" ry="10.8"/>
</g>
</svg>
