<svg id="Pige" xmlns="http://www.w3.org/2000/svg" xmlns:xlink="http://www.w3.org/1999/xlink" width="1600" height="900" viewBox="0 0 1600 900"><defs><style>.cls-1,.cls-12{fill:none;}.cls-2{clip-path:url(#clip-path);}.cls-3{clip-path:url(#clip-path-2);}.cls-4{fill:#152230;}.cls-10,.cls-11,.cls-4{stroke:#ffd48d;}.cls-10,.cls-11,.cls-12,.cls-4,.cls-5,.cls-6,.cls-7,.cls-9{stroke-miterlimit:10;}.cls-16,.cls-5{fill:#fff;}.cls-5,.cls-6{stroke:#89cce5;}.cls-6{fill:#89cce5;}.cls-13,.cls-7{fill:#f4912d;}.cls-12,.cls-7,.cls-9{stroke:#f4912d;}.cls-8{opacity:0.14;}.cls-11,.cls-14{fill:#ffd48d;}.cls-15{fill:#e9eced;}</style><clipPath id="clip-path"><rect class="cls-1" x="1" width="1599" height="899"/></clipPath><clipPath id="clip-path-2"/></defs><title>Pige_ny</title><g class="cls-2"><g class="cls-3"><rect class="cls-4" x="1.5" y="4.5" width="1599" height="900"/><rect class="cls-5" x="228.13" y="378.19" width="77.12" height="547" rx="12" transform="translate(-202.38 126.53) rotate(-19.51)"/><rect class="cls-6" x="137.19" y="179.98" width="1375.05" height="546.93" rx="12" transform="translate(-104.1 301.54) rotate(-19.51)"/><rect class="cls-5" x="929.13" y="129.19" width="77.12" height="547" rx="12" transform="translate(-78.93 346.39) rotate(-19.51)"/><rect class="cls-5" x="341.13" y="338.19" width="77.12" height="547" rx="12" transform="translate(-182.52 161.98) rotate(-19.51)"/><rect class="cls-5" x="457.13" y="297.19" width="77.12" height="547" rx="12" transform="translate(-162.16 198.37) rotate(-19.51)"/><rect class="cls-5" x="574.13" y="255.19" width="77.12" height="547" rx="12" transform="translate(-141.41 235.04) rotate(-19.51)"/><rect class="cls-5" x="691.13" y="213.19" width="77.12" height="547" rx="12" transform="translate(-120.66 271.71) rotate(-19.51)"/><rect class="cls-5" x="819.13" y="169.19" width="77.12" height="547" rx="12" transform="translate(-98.61 311.94) rotate(-19.51)"/><rect class="cls-5" x="1044.13" y="88.19" width="77.12" height="547" rx="12" transform="translate(-58.63 382.45) rotate(-19.51)"/><rect class="cls-5" x="1162.13" y="47.19" width="77.12" height="547" rx="12" transform="translate(-38.15 419.51) rotate(-19.51)"/><circle class="cls-7" cx="89.5" cy="445.5" r="9"/><circle class="cls-7" cx="134.5" cy="563.5" r="9"/><circle class="cls-7" cx="125.5" cy="537.5" r="9"/><circle class="cls-7" cx="116.5" cy="511.5" r="9"/><circle class="cls-7" cx="107.5" cy="489.5" r="9"/><circle class="cls-7" cx="98.5" cy="467.5" r="9"/><circle class="cls-7" cx="143.5" cy="589.5" r="9"/><circle class="cls-7" cx="1534.5" cy="386.5" r="9"/><circle class="cls-7" cx="1543.5" cy="414.5" r="9"/><circle class="cls-7" cx="1554.5" cy="442.5" r="9"/><circle class="cls-7" cx="1516.5" cy="336.5" r="9"/><circle class="cls-7" cx="1525.5" cy="361.5" r="9"/><circle class="cls-7" cx="197.5" cy="745.5" r="9"/><circle class="cls-7" cx="188.5" cy="719.5" r="9"/><circle class="cls-7" cx="179.5" cy="693.5" r="9"/><circle class="cls-7" cx="170.5" cy="667.5" r="9"/><circle class="cls-7" cx="161.5" cy="641.5" r="9"/><circle class="cls-7" cx="152.5" cy="615.5" r="9"/><circle class="cls-7" cx="233.5" cy="849.5" r="9"/><circle class="cls-7" cx="224.5" cy="823.5" r="9"/><circle class="cls-7" cx="215.5" cy="797.5" r="9"/><circle class="cls-7" cx="206.5" cy="771.5" r="9"/><circle class="cls-7" cx="251.5" cy="901.5" r="9"/><circle class="cls-7" cx="242.5" cy="875.5" r="9"/><circle class="cls-7" cx="1507.5" cy="311.5" r="9"/><circle class="cls-7" cx="1498.5" cy="286.5" r="9"/><circle class="cls-7" cx="1471.5" cy="211.5" r="9"/><circle class="cls-7" cx="1480.5" cy="236.5" r="9"/><circle class="cls-7" cx="1489.5" cy="261.5" r="9"/><circle class="cls-7" cx="1444.5" cy="136.5" r="9"/><circle class="cls-7" cx="1453.5" cy="161.5" r="9"/><circle class="cls-7" cx="1462.5" cy="186.5" r="9"/><circle class="cls-7" cx="1417.5" cy="61.5" r="9"/><circle class="cls-7" cx="1426.5" cy="86.5" r="9"/><circle class="cls-7" cx="1435.5" cy="111.5" r="9"/><circle class="cls-7" cx="1408.5" cy="36.5" r="9"/><g class="cls-8"><ellipse class="cls-9" cx="1218.52" cy="357.25" rx="227.48" ry="142.91" transform="translate(-51.13 377.54) rotate(-17.26)"/><path class="cls-9" d="M1023.13,648.15,785.59,391.76c-9.44-10.19,4.75-25.65,30.37-34l463.1-150.34c7.62-2.48,17.71-.13,22.61,5.16l123.22,133a11.92,11.92,0,0,1-1.38,17.75L1076,638.44C1056.75,653.66,1032.57,658.34,1023.13,648.15Z"/><ellipse class="cls-9" cx="1003.33" cy="621.46" rx="10.58" ry="18.9" transform="translate(-111.08 1010.03) rotate(-51)"/><ellipse class="cls-9" cx="977.76" cy="594.54" rx="10.58" ry="18.9" transform="translate(-99.63 980.18) rotate(-51)"/><ellipse class="cls-9" cx="1025.83" cy="648" rx="10.58" ry="18.9" transform="translate(-123.36 1037.35) rotate(-51)"/><ellipse class="cls-9" cx="816.19" cy="427.25" rx="10.58" ry="18.9" transform="translate(-29.52 792.62) rotate(-51)"/><ellipse class="cls-9" cx="787.04" cy="402.26" rx="10.58" ry="18.9" transform="translate(-20.89 760.71) rotate(-51)"/><ellipse class="cls-9" cx="786.78" cy="382.06" rx="10.58" ry="18.9" transform="translate(-5.3 753.02) rotate(-51)"/><ellipse class="cls-9" cx="1221.17" cy="279.79" rx="149.56" ry="47.41" transform="translate(-25.92 160.17) rotate(-7.43)"/><ellipse class="cls-9" cx="1333.12" cy="379.92" rx="94.8" ry="43.98" transform="translate(494.32 1483.53) rotate(-68.67)"/><path class="cls-10" d="M833,557.63l27.93-14,89.71-3.32c21.87,9.2,45.29,11.79,67.44,4.64,47.22-15.24,55.89-64.06,36-111l4.29,7.54c1.81,3.19,7.32,3.35,11.83.61L1092,428.9c31.27,34.86,88.57,50.14,137.75,34.27,56.35-18.18,80.71-70.37,54.4-116.56s-93.33-68.89-149.68-50.71c-48.83,15.75-73.61,57-62.24,97.84l-28,2.78c-5.58.55-9.12,3.5-7.68,6.58-3.23-4.45-6.72-8.81-10.48-13-9.8-11-26-28.84-54.17-39.46-13-4.93-40.65-15.36-68.19-6.36a61.29,61.29,0,0,0-31.49,23L760.57,434c-29.63-10.11-63.6-11.36-94.69-1.33-20.65,6.66-37.37,17.46-49.42,30.72-27.68,10-62.83,37.93-84.22,65.61l-57.38,74.26c-10.76-2-25.61-2.74-41-1.74L212.13,615.91c-6.09.39-10.74,3.19-10.67,6.23l.2,8.75c.06,3,4.84,5.71,10.94,6L422,645a6.23,6.23,0,0,0,2,.38h6.62L258,745.51c-4.84,2.8-6.86,6.91-4.74,9.27l6.08,6.82c2.11,2.36,7.93,2.51,13.2.2l192.29-84.25c25.29-11.08,44.58-26.1,40.12-32.26l88-.13c47-.07,102.9-10.93,124.86-26.23a147.18,147.18,0,0,0,50.26-6.8C800.05,601.81,822.63,581.61,833,557.63Z"/><path class="cls-9" d="M797,601.91c34.44-46.6,61.38-59.41,79.95-62.2,16.26-2.44,30,2.21,57.55-3.4a170.79,170.79,0,0,0,39.9-13.48"/><path class="cls-9" d="M674.55,517.2A412.72,412.72,0,0,1,626,566.9c-41.9,36.35-86.46,61.46-121.4,78.05"/><path class="cls-9" d="M704.23,561.06a128.17,128.17,0,0,0-22.82-7.85,130.6,130.6,0,0,0-38.52-3.41"/><path class="cls-9" d="M716.11,426.38c67.68,21,96.52,16.67,110.23,8.38,12-7.25,15.25-19.25,37.11-30.28,13.94-7,28-9.91,37.08-11.23"/><path class="cls-9" d="M881.29,461.29c-8.09,2.62-21-6.5-28.95-20.36s-7.72-27.21.37-29.82"/><path class="cls-9" d="M891.11,474.33c-8.1,2.61-8.26,16-.37,29.82s20.86,23,29,20.36"/><ellipse class="cls-9" cx="868.81" cy="432.02" rx="4.4" ry="3.31"/><ellipse class="cls-9" cx="909.52" cy="503.49" rx="4.4" ry="3.31"/><path class="cls-9" d="M672.89,539.46a69.77,69.77,0,0,0-23.52,8.27,51,51,0,0,0-9.55,7.17"/><ellipse class="cls-10" cx="1223.7" cy="364.32" rx="153.14" ry="112.08" transform="translate(-35.76 154.72) rotate(-7.13)"/><path class="cls-10" d="M1140.19,646.6l-127.84-81.17C991.26,552,982.16,531.62,995,521.86l3-2.24c12.83-9.76,40.06-3.13,58.07,12.6l109.2,95.35c5.33,4.65,4.45,12-1.61,16.59l-1.39,1.06C1156.15,649.82,1146.43,650.56,1140.19,646.6Z"/><path class="cls-10" d="M229.84,631.11c-5.51-10.88-19.9-21.3-30.28-18.31-22.77,6.56-25,77.31-10.17,83.12C202.71,701.15,244.27,659.62,229.84,631.11Z"/><path class="cls-10" d="M274.57,742c5.05,8.46,5.27,20.52-2.13,23.36-16.24,6.21-68.27-32.35-65-42C210.44,714.61,261.35,719.78,274.57,742Z"/><path class="cls-9" d="M445.15,651.93a139.58,139.58,0,0,0,42-2.64A118.86,118.86,0,0,0,508,642.57"/><path class="cls-10" d="M1243.35,481.5,1184.09,610c-9.77,21.2-25.95,38.82-34.63,36.28l-2-.59c-8.68-2.54-4.76-23.76,7.09-44.35l71.87-124.84c3.5-6.09,9.54-9.77,13.64-8.57l.94.28C1245.1,469.45,1246.24,475.23,1243.35,481.5Z"/></g><path class="cls-11" d="M726.7,395.82,626.29,264.61A6.44,6.44,0,0,1,627,256l11.25-10a6.46,6.46,0,0,1,8.68.34L765.3,361.56c8.9,8.67,12.62,19.81,7.69,24.19l-23.18,20.58C744.87,410.71,734.25,405.69,726.7,395.82Z"/><ellipse class="cls-11" cx="607.5" cy="234.5" rx="25" ry="41" transform="translate(-7.96 447.25) rotate(-40.18)"/><ellipse class="cls-7" cx="1215.52" cy="291.3" rx="232.12" ry="164.02" transform="translate(-8.36 545.18) rotate(-25.2)"/><path class="cls-7" d="M1020.13,632,782.59,331.72c-9.44-11.93,4.75-30,30.37-39.78l463.1-176.06c7.62-2.9,17.71-.15,22.61,6.05l123.22,155.75a15.58,15.58,0,0,1-1.38,20.79L1073,620.61C1053.75,638.44,1029.57,643.92,1020.13,632Z"/><ellipse class="cls-7" cx="1000.33" cy="600.73" rx="11.5" ry="20.36" transform="translate(-143.91 829.33) rotate(-42.28)"/><ellipse class="cls-7" cx="974.76" cy="569.2" rx="11.5" ry="20.36" transform="translate(-129.35 803.93) rotate(-42.28)"/><ellipse class="cls-7" cx="1022.83" cy="631.81" rx="11.5" ry="20.36" transform="translate(-158.96 852.56) rotate(-42.28)"/><ellipse class="cls-7" cx="813.19" cy="373.29" rx="11.5" ry="20.36" transform="translate(-39.57 644.24) rotate(-42.28)"/><ellipse class="cls-7" cx="784.04" cy="344.01" rx="11.5" ry="20.36" transform="translate(-27.46 617.02) rotate(-42.28)"/><ellipse class="cls-7" cx="783.78" cy="320.36" rx="11.5" ry="20.36" transform="matrix(0.74, -0.67, 0.67, 0.74, -11.62, 610.69)"/><ellipse class="cls-7" cx="1218.17" cy="200.58" rx="150.04" ry="55.35" transform="translate(-16.39 194.01) rotate(-9.05)"/><ellipse class="cls-7" cx="1330.12" cy="317.85" rx="109.14" ry="44.74" transform="translate(633.31 1494.58) rotate(-72.81)"/><path class="cls-11" d="M830,526l27.93-16.37,89.71-3.89c21.87,10.78,45.29,13.81,67.44,5.44,47.22-17.85,55.89-75,36-130l4.29,8.82c1.81,3.74,7.32,3.93,11.83.72l21.8-15.5c31.27,40.81,88.57,58.71,137.75,40.13,56.35-21.29,80.71-82.41,54.4-136.5s-93.33-80.69-149.68-59.4c-48.83,18.45-73.61,66.81-62.24,114.59l-28,3.25c-5.58.65-9.12,4.1-7.68,7.71q-4.85-7.83-10.48-15.26c-9.8-12.91-26.05-33.78-54.17-46.22-13-5.77-40.65-18-68.19-7.44-18.19,7-27.67,20.54-31.49,26.9L757.57,381.21c-29.63-11.84-63.6-13.31-94.69-1.56a112.15,112.15,0,0,0-49.42,36c-27.68,11.71-62.83,44.42-84.22,76.84l-57.38,87c-10.76-2.35-25.61-3.2-41-2L209.13,594.22c-6.09.47-10.74,3.74-10.67,7.3l.2,10.25c.06,3.56,4.84,6.69,10.94,7L419,628.31a5.26,5.26,0,0,0,2,.46h6.62L255,746c-4.84,3.29-6.86,8.09-4.74,10.87l6.08,8c2.11,2.77,7.93,2.94,13.2.24l192.29-98.66c25.29-13,44.58-30.58,40.12-37.79l88-.15c47-.08,102.9-12.8,124.86-30.72a127.11,127.11,0,0,0,50.26-8C797.05,577.72,819.63,554.06,830,526Z"/><path class="cls-12" d="M794,577.83c34.44-54.57,61.38-69.58,79.95-72.84,16.26-2.86,30,2.59,57.55-4a155.26,155.26,0,0,0,39.9-15.79"/><path class="cls-12" d="M671.55,478.62A457,457,0,0,1,623,536.83c-41.9,42.57-86.46,72-121.4,91.4"/><path class="cls-12" d="M701.23,530a116.06,116.06,0,0,0-22.82-9.2,112.67,112.67,0,0,0-38.52-4"/><path class="cls-12" d="M713.11,372.27c67.68,24.59,96.52,19.51,110.23,9.81,12-8.49,15.25-22.55,37.11-35.46a109.18,109.18,0,0,1,37.08-13.16"/><path class="cls-12" d="M878.29,413.15c-8.09,3.06-21-7.62-28.95-23.84s-7.72-31.87.37-34.93"/><path class="cls-12" d="M888.11,428.42c-8.1,3.06-8.26,18.69-.37,34.92s20.86,26.9,29,23.85"/><ellipse class="cls-7" cx="865.81" cy="378.87" rx="4.4" ry="3.88"/><ellipse class="cls-7" cx="906.52" cy="462.57" rx="4.4" ry="3.88"/><path class="cls-12" d="M669.89,504.7a63.07,63.07,0,0,0-23.52,9.68,52.84,52.84,0,0,0-9.55,8.4"/><ellipse class="cls-11" cx="1220.7" cy="299.59" rx="153.88" ry="130.62" transform="translate(-36.2 307.99) rotate(-14.17)"/><path class="cls-11" d="M1137.19,630.17l-127.84-95.06c-21.09-15.68-30.19-39.6-17.36-51l3-2.63C1007.76,470,1035,477.8,1053,496.22l109.2,111.67c5.33,5.44,4.45,14-1.61,19.42l-1.39,1.24C1153.15,633.94,1143.43,634.81,1137.19,630.17Z"/><path class="cls-11" d="M226.84,612c-5.51-12.74-19.9-24.94-30.28-21.44-22.77,7.68-25,90.53-10.17,97.34C199.71,694.05,241.27,645.41,226.84,612Z"/><path class="cls-11" d="M271.57,741.85c5.05,9.92,5.27,24-2.13,27.36-16.24,7.28-68.27-37.88-65-49.21C207.44,709.82,258.35,715.88,271.57,741.85Z"/><path class="cls-12" d="M442.15,636.41a119.46,119.46,0,0,0,42-3.1A106,106,0,0,0,505,625.44"/><path class="cls-11" d="M1240.35,436.82l-59.26,150.53c-9.77,24.83-25.95,45.47-34.63,42.49l-2-.69c-8.68-3-4.76-27.83,7.09-51.94L1223.42,431c3.5-7.12,9.54-11.43,13.64-10l.94.32C1242.1,422.71,1243.24,429.48,1240.35,436.82Z"/><ellipse class="cls-7" cx="1338.82" cy="277.81" rx="42.76" ry="112.59"/></g><circle class="cls-13" cx="769" cy="466" r="4.5"/><path class="cls-13" d="M769,471a5,5,0,1,1,5-5A5,5,0,0,1,769,471Zm0-9a4,4,0,1,0,4,4A4,4,0,0,0,769,462Z"/><circle class="cls-13" cx="671" cy="488" r="1.5"/><path class="cls-13" d="M671,490a2,2,0,1,1,2-2A2,2,0,0,1,671,490Zm0-3a1,1,0,1,0,1,1A1,1,0,0,0,671,487Z"/><circle class="cls-13" cx="682" cy="512" r="1.5"/><path class="cls-13" d="M682,514a2,2,0,1,1,2-2A2,2,0,0,1,682,514Zm0-3a1,1,0,1,0,1,1A1,1,0,0,0,682,511Z"/><circle class="cls-13" cx="707" cy="512" r="1.5"/><path class="cls-13" d="M707,514a2,2,0,1,1,2-2A2,2,0,0,1,707,514Zm0-3a1,1,0,1,0,1,1A1,1,0,0,0,707,511Z"/><circle class="cls-13" cx="683" cy="494" r="1.5"/><path class="cls-13" d="M683,496a2,2,0,1,1,2-2A2,2,0,0,1,683,496Zm0-3a1,1,0,1,0,1,1A1,1,0,0,0,683,493Z"/><circle class="cls-13" cx="673" cy="508" r="1.5"/><path class="cls-13" d="M673,510a2,2,0,1,1,2-2A2,2,0,0,1,673,510Zm0-3a1,1,0,1,0,1,1A1,1,0,0,0,673,507Z"/><circle class="cls-13" cx="679" cy="500" r="1.5"/><path class="cls-13" d="M679,502a2,2,0,1,1,2-2A2,2,0,0,1,679,502Zm0-3a1,1,0,1,0,1,1A1,1,0,0,0,679,499Z"/><circle class="cls-14" cx="679" cy="533" r="1.5"/><path class="cls-14" d="M679,535a2,2,0,1,1,2-2A2,2,0,0,1,679,535Zm0-3a1,1,0,1,0,1,1A1,1,0,0,0,679,532Z"/><circle class="cls-13" cx="680" cy="502" r="1.5"/><path class="cls-13" d="M680,504a2,2,0,1,1,2-2A2,2,0,0,1,680,504Zm0-3a1,1,0,1,0,1,1A1,1,0,0,0,680,501Z"/><circle class="cls-13" cx="699" cy="506" r="1.5"/><path class="cls-13" d="M699,508a2,2,0,1,1,2-2A2,2,0,0,1,699,508Zm0-3a1,1,0,1,0,1,1A1,1,0,0,0,699,505Z"/><circle class="cls-13" cx="683" cy="486" r="1.5"/><path class="cls-13" d="M683,488a2,2,0,1,1,2-2A2,2,0,0,1,683,488Zm0-3a1,1,0,1,0,1,1A1,1,0,0,0,683,485Z"/><circle class="cls-13" cx="692" cy="510" r="1.5"/><path class="cls-13" d="M692,512a2,2,0,1,1,2-2A2,2,0,0,1,692,512Zm0-3a1,1,0,1,0,1,1A1,1,0,0,0,692,509Z"/><circle class="cls-13" cx="692" cy="518" r="1.5"/><path class="cls-13" d="M692,520a2,2,0,1,1,2-2A2,2,0,0,1,692,520Zm0-3a1,1,0,1,0,1,1A1,1,0,0,0,692,517Z"/><rect x="577" y="145.41" width="59" height="107.36" rx="12" transform="translate(-28.56 134.48) rotate(-12.36)"/><rect class="cls-15" x="582.75" y="153.15" width="52" height="84.35" rx="12" transform="translate(-27.71 134.88) rotate(-12.36)"/><rect class="cls-14" x="618.97" y="224.94" width="31.98" height="23.37" rx="7" transform="translate(176.96 -262.77) rotate(27.04)"/><path class="cls-14" d="M640.81,252.38a7.49,7.49,0,0,1-3.39-.81l-16-8.17a7.51,7.51,0,0,1-3.27-10.09L622.4,225a7.51,7.51,0,0,1,10.09-3.27l16,8.17A7.51,7.51,0,0,1,651.77,240l-4.26,8.35a7.55,7.55,0,0,1-6.7,4.08Zm-2.93-1.7a6.52,6.52,0,0,0,8.74-2.84l4.26-8.34a6.52,6.52,0,0,0-2.83-8.75l-16-8.17a6.51,6.51,0,0,0-8.75,2.84L619,233.76a6.5,6.5,0,0,0,2.84,8.74Z"/></g><ellipse cx="1228" cy="273.25" rx="30.85" ry="21.93" transform="translate(0.01 546.56) rotate(-25.09)"/><ellipse class="cls-16" cx="1209.15" cy="281.39" rx="10.3" ry="9.36" transform="translate(31.93 675.57) rotate(-31.61)"/><path class="cls-16" d="M1216.27,261.45c1.69-.79,4.18,1.25,5.45,4.47s.87,6.27-.83,7.18"/><ellipse cx="1254.51" cy="348.28" rx="21.4" ry="31.61" transform="translate(717.36 1534.26) rotate(-81.15)"/><ellipse class="cls-16" cx="1233.61" cy="347.03" rx="9.04" ry="10.67" transform="translate(465 1372.44) rotate(-68.86)"/><path class="cls-16" d="M1248.6,363.13c1.9.17,3.35-2.56,3.18-6s-1.84-6.1-3.79-6.38"/></svg>
