<svg id="Lag_1" data-name="Lag 1" xmlns="http://www.w3.org/2000/svg" width="600" height="600" viewBox="0 0 600 600"><defs><style>.cls-1{fill:#ffca99;opacity:0.84;}</style></defs><title>setting_screen</title><rect class="cls-1" x="5" y="8" width="590" height="584" rx="12"/><path d="M307.08,255.51a104.08,104.08,0,0,0-2.43-13.35l-5.21-24c-.06-.45-1.76-8.84-1.93-9.56-.62-3.25-.62-3.25-.9-4.51.34,5.68.56,13.07.56,17.85v19.57c0,6.23.12,10.19.46,14H286.47c.34-4.06.45-7.84.45-14v-47c0-5.41-.17-10.19-.45-14.07h14.95a99.64,99.64,0,0,0,2.15,12.72l8.5,38.86,8.44-38.86a92.92,92.92,0,0,0,2.09-12.72h15c-.34,4.33-.45,8-.45,14.07v47c0,6.86.11,10.37.45,14H326.46c.34-4.15.45-7.57.45-14V221.87c0-2.16.17-8.92.28-11.72.17-4.78.17-4.78.23-6.13-1.25,7-1.81,10.28-2.55,13.53l-5.49,24.7a119.37,119.37,0,0,0-2.44,13.26Z"/><path d="M379.81,200.5c-.34,4.24-.45,8-.45,13.53v27.86c0,6.23.11,9.92.45,13.53H368.54v-6.31c-3.73,5.59-7,7.75-11.78,7.75a10.25,10.25,0,0,1-9-5.05c-2.27-3.6-3.23-8-3.23-15.15V214c0-5.23-.17-9.74-.45-13.53h11.78c-.34,4.33-.46,8.12-.46,13.53v18.49c0,3.69.23,5.32.91,6.76A4,4,0,0,0,360,241.8c3.12,0,6.29-3.51,8.5-9.28V214c0-5.05-.12-8.84-.46-13.53Z"/><path d="M395.67,237.11c.56,4.69,2.49,6.77,6.28,6.77,3.4,0,5.33-1.54,5.33-4.33A4.29,4.29,0,0,0,406,236.3c-.79-.72-1.53-1.08-4.64-2.07A47.37,47.37,0,0,1,393,231a12.94,12.94,0,0,1-5.66-6.4,25.48,25.48,0,0,1-1.42-8.57c0-10.82,5.73-17.4,15.18-17.4,5.39,0,9.41,1.89,12.07,5.77,1.87,2.61,2.77,5.23,3.68,10.28l-10.93,1.89c-.28-3.69-1.7-5.32-4.76-5.32s-4.76,1.54-4.76,3.88,1.19,3.34,6.8,5.32,7.31,2.71,9.29,4.33c3.68,2.89,5.44,7.3,5.44,13.8,0,4.78-1,9.11-2.89,12-2.72,4.33-7.37,6.58-13.43,6.58-7.13,0-12.17-3.06-14.89-9a28.65,28.65,0,0,1-2.27-9Z"/><path d="M434.63,200.5c-.34,3.7-.45,7.31-.45,13.62v27.77c0,4.87.17,9.74.45,13.62H422.8c.34-4.42.45-7.84.45-13.62V214.12c0-5.86-.11-9.56-.45-13.62Zm-.17-20V194H423V180.48Z"/><path d="M452.13,180.48c-.34,3.7-.45,7.58-.45,13.62v25.34l6.23-9.83a56.42,56.42,0,0,0,4.93-9.11h15.07c-2.21,3.07-2.89,4.06-6,8.84L463.75,222l9.46,22c3.45,7.93,3.68,8.47,5.26,11.54H464a89.29,89.29,0,0,0-3.74-12.08L456,232.24l-4.25,6.5v3.6a103.4,103.4,0,0,0,.45,13.17H440.64c.34-4.06.45-7.66.45-13.62V194.1c0-6.13-.17-10.28-.45-13.62Z"/><path d="M290,467.46a49.35,49.35,0,0,0-5.83.25c.23-2.93.31-6.63.31-12.25V411.18c0-5.87-.08-9.48-.31-13.51h8.59c-.27,4.37-.31,6.71-.31,13.26v41.6H302a22.14,22.14,0,0,0,6.54-.59v16.11a24.35,24.35,0,0,0-6.54-.59Z"/><path d="M309.05,427.53c-1.69-8.38-1.85-9.14-2.36-11.24h8.55q.5,5.44,1.54,10.82l3.63,19.38,3.51-19a93.36,93.36,0,0,0,1.7-11.16h8.56c-1,4.37-1,4.37-2.37,11.24l-9,44.38c-1.58,7.88-4.42,11.49-8.92,11.49a12.11,12.11,0,0,1-5.4-1.43l.87-13.34c1.3,1.43,2.05,1.85,3.07,1.85,1.5,0,2.61-1.43,3.2-3.94l.83-3.61Z"/><path d="M354.92,464.78v-1.85c-2.64,4.53-4.65,6-8,6-7.17,0-11.51-10.23-11.51-27.18,0-8.72,1.18-15.68,3.39-20.46,2-4.28,4.77-6.55,8-6.55s5.48,1.77,8.08,6.21V410.76c0-5.87-.08-9.48-.31-13.17h8.08c-.23,3.53-.31,7.55-.31,13.17v43.45c0,5.62.08,9.06.31,13.17h-7.77Zm-11.79-22.9c0,4.78.63,8.64,1.81,11.07.95,2,2.37,3.19,3.83,3.19,3.51,0,6.07-6.21,6.07-14.52,0-8.13-2.52-14-6.11-14C345.3,427.62,343.13,433.07,343.13,441.88Z"/><path d="M373.06,446.57c.4,6.8,2.25,10.4,5.37,10.4,1.57,0,3-1.09,4-3.1a11.83,11.83,0,0,0,1.18-4.28l6.87,4.11a34.35,34.35,0,0,1-2.61,8.64c-2.24,4.7-5.4,7.13-9.3,7.13s-6.91-2.35-9.16-7.13c-2.32-5-3.58-12.16-3.58-20.46,0-16.61,5-27.6,12.54-27.6,6.15,0,10.45,7.13,11.83,19.63.32,2.68.48,6.21.59,11v1.67ZM383.32,435c-.55-5.37-2.25-8.22-5-8.22s-4.5,2.68-5.17,8.22Z"/><path d="M396.61,429.21a13.48,13.48,0,0,0-4.42.59V415.71a17.36,17.36,0,0,0,4.42.58h1.06v-3.94c0-11.07,3-16.19,9.39-16.19a11,11,0,0,1,6,1.76l-1.23,12.33a5,5,0,0,0-3.9-2.09c-1.93,0-2.68,1.68-2.68,6v2.09h1.14a26.55,26.55,0,0,0,5.25-.58V429.8a18.79,18.79,0,0,0-5.17-.59h-1.22v25.58c0,5.79.08,8.56.31,12.67h-8.2c.23-4.11.31-7.21.31-12.67V429.21Z"/><path d="M418.06,429.21a13.48,13.48,0,0,0-4.42.59V415.71a17.36,17.36,0,0,0,4.42.58h1.07v-3.94c0-11.07,3-16.19,9.38-16.19a11,11,0,0,1,6,1.76l-1.22,12.33a5,5,0,0,0-3.91-2.09c-1.93,0-2.68,1.68-2.68,6v2.09h1.14a26.55,26.55,0,0,0,5.25-.58V429.8a18.79,18.79,0,0,0-5.17-.59H426.7v25.58c0,5.79.08,8.56.32,12.67h-8.21c.24-4.11.32-7.21.32-12.67V429.21Z"/><path d="M443.11,446.57c.39,6.8,2.25,10.4,5.36,10.4,1.58,0,3-1.09,4-3.1a12.24,12.24,0,0,0,1.18-4.28l6.86,4.11a34.74,34.74,0,0,1-2.6,8.64c-2.25,4.7-5.41,7.13-9.31,7.13s-6.9-2.35-9.15-7.13c-2.33-5-3.59-12.16-3.59-20.46,0-16.61,5-27.6,12.54-27.6,6.16,0,10.45,7.13,11.84,19.63.31,2.68.47,6.21.59,11v1.67ZM453.36,435c-.55-5.37-2.25-8.22-5-8.22s-4.49,2.68-5.16,8.22Z"/><path d="M472,397.67c-.24,3.44-.32,7.05-.32,12.67v23.57l4.34-9.14a61.64,61.64,0,0,0,3.43-8.48H490c-1.54,2.86-2,3.78-4.14,8.22l-5.72,11.75,6.59,20.46c2.4,7.38,2.56,7.89,3.67,10.74H480.3a105.78,105.78,0,0,0-2.6-11.24l-3-10.4-3,6v3.35a119.22,119.22,0,0,0,.31,12.25h-8c.24-3.77.31-7.13.31-12.67V410.34c0-5.7-.11-9.56-.31-12.67Z"/><path d="M496,414.53c0-4.19-.08-7.55-.32-11.49h8.05c-.2,3.44-.32,7.47-.32,11.49v1.76h1.42a13,13,0,0,0,3.87-.41V429.8a12.39,12.39,0,0,0-3.63-.51h-1.66v21.48c0,2.35.2,3.52.71,4.28a2.2,2.2,0,0,0,1.81.92,3.54,3.54,0,0,0,2.77-1.51l.59,12.75a9.09,9.09,0,0,1-5.45,1.68,6.2,6.2,0,0,1-5.79-2.94c-1.5-2.43-2.05-5.28-2.05-11V429.29h-1.5a11.42,11.42,0,0,0-3.44.51v-14a11.29,11.29,0,0,0,3.51.5H496Z"/><path d="M518,446.57c.4,6.8,2.25,10.4,5.37,10.4,1.57,0,3-1.09,4-3.1a11.83,11.83,0,0,0,1.18-4.28l6.87,4.11a34.35,34.35,0,0,1-2.61,8.64c-2.25,4.7-5.4,7.13-9.31,7.13s-6.9-2.35-9.15-7.13c-2.32-5-3.59-12.16-3.59-20.46,0-16.61,5-27.6,12.55-27.6,6.15,0,10.45,7.13,11.83,19.63.32,2.68.47,6.21.59,11v1.67ZM528.26,435c-.55-5.37-2.25-8.22-5-8.22s-4.5,2.68-5.17,8.22Z"/><path d="M556.65,431.39c-1.81-1.17-2.8-1.59-4-1.59-2,0-3.55,1.51-4.69,4.53a22.24,22.24,0,0,0-1.19,7.46v13.09c0,5.37.08,8.55.32,12.58H538.9c.24-4.19.32-7.21.32-12.67V429c0-6.12-.08-9.06-.32-12.67h7.85V423c1.94-5.37,4.3-7.63,7.89-7.63a8.21,8.21,0,0,1,3.91,1Z"/></svg>
