<svg id="Lag_1" data-name="Lag 1" xmlns="http://www.w3.org/2000/svg" width="1280" height="1024" viewBox="0 0 1280 1024"><defs><style>.cls-1,.cls-2{fill:#fff;}.cls-2{stroke:#000;stroke-miterlimit:10;}</style></defs><title>snefnug</title><path class="cls-1" d="M527.46,874.09a40.87,40.87,0,0,1-4.41-.24c-21.78-2.38-45-22.75-57.71-50.7l-.15-.34-.37.05a40.89,40.89,0,0,1-5.45.36,46.36,46.36,0,0,1-8.35-.78c-31-6-64.29-41.38-71.3-75.78a55.37,55.37,0,0,1-.66-17.59l.07-.56h-.57a58.56,58.56,0,0,1-10.43-1C334,721,298.72,687.43,292.74,655.82c-1.66-9.34-.66-18,3-25.76l.25-.52-.55-.17a100.7,100.7,0,0,1-41-24.4C243,593.6,236.11,580.42,235,567.84c-1.37-15.44,5.88-29.93,20.41-40.82l.66-.49-.74-.36C232.73,515.28,220,497.29,221.25,478c1.41-22.43,21.82-45.24,50.78-56.77l.29-.12,0-.32c.07-1.1.17-2.12.3-3.13,2.15-16.46,13.22-33.93,30.37-47.92l.21-.17,0-.27a47.87,47.87,0,0,1,.69-13.63c6.44-32,41.59-66,75.23-72.82a56.64,56.64,0,0,1,10.43-1h1l.14-.89.09-.6c6.62-34.72,39.6-70,70.58-75.48a47.36,47.36,0,0,1,7.7-.65,39.55,39.55,0,0,1,16.54,3.53l.49.23.19-.52c10.84-30.86,35-53.61,58.73-55.31,1-.07,1.93-.1,2.89-.1,15.1,0,29.15,8.57,39.57,24.12l.34.52.43-.45c9.77-10.28,21.37-15.71,33.56-15.71.86,0,1.73,0,2.59.08,20.58,1.26,41.29,17.77,54.05,43.08l.07.15.15.07c2.5,1.21,4.95,2.43,7.29,3.64l.21.11.22-.1a39.69,39.69,0,0,1,16.5-3.5,46.82,46.82,0,0,1,7.65.64c29.27,5.08,60.39,36.59,69.36,70.25l0,.14.11.1c2.27,2.05,4.64,4.23,7.24,6.66l.13.12h.18a61.29,61.29,0,0,1,6.28.85c33.63,6.81,68.78,40.84,75.23,72.82a47,47,0,0,1,.45,15.46l-.06.43.41.12c33.18,10.08,60.8,37.57,64.25,63.94,2,15.29-4.52,29.44-18.25,39.83l-.65.49.73.36c23.09,11.38,37.17,30.4,36.74,49.66-.45,21.89-19.58,43.93-47.61,54.83l-.2.07-.42,1.06c-.32.81-.65,1.63-1,2.44l-.11.27.17.23a40.56,40.56,0,0,1,8,31.34c-4.61,29.6-37.9,60.82-72.69,68.17l-.17,0-.11.13c-1.33,1.55-2.66,3.09-4,4.63l-.12.13v.18a55.38,55.38,0,0,1-.87,8.12c-6.47,33.18-40.92,67.8-73.72,74.07a52.5,52.5,0,0,1-9.28.84H749l-.12.36C738.41,805.58,710.12,833.13,683,837a45,45,0,0,1-6.09.42,40.4,40.4,0,0,1-23.08-7.15l-.38-.26-.29.37c-12.48,15.76-27.95,24.73-43.56,25.27-.51,0-1,0-1.54,0-13,0-25.45-5.88-36-17l-.54-.57-.29.72C562.39,860.89,546,874.09,527.46,874.09Z"/><path d="M547.93,152.6h0c14.92,0,28.83,8.49,39.15,23.9l.7,1,.86-.91c9.66-10.17,21.14-15.55,33.19-15.55.85,0,1.71,0,2.55.08,20.41,1.25,41,17.65,53.64,42.8l.15.3.31.15c2.5,1.21,4.95,2.43,7.27,3.64l.43.22.44-.2a39,39,0,0,1,16.29-3.46,46.74,46.74,0,0,1,7.56.63c29.1,5.06,60,36.4,69,69.88l.07.29.22.2c2.27,2,4.63,4.22,7.24,6.66l.26.23.35,0a59.57,59.57,0,0,1,6.21.84c16,3.25,33.36,13,47.59,26.74s24.18,30.42,27.25,45.68a46.33,46.33,0,0,1,.46,15.3l-.12.85.82.25a106.15,106.15,0,0,1,42.51,25.27c12.11,11.84,19.71,25.42,21.39,38.25,1.93,15.11-4.49,29.09-18.06,39.37l-1.29,1,1.45.72c11,5.42,20.18,12.69,26.57,21,6.68,8.73,10.11,18.47,9.89,28.17-.22,11-5,22-13.87,31.9-8.39,9.37-20.26,17.35-33.42,22.47l-.41.16-.16.4-.31.8c-.33.83-.66,1.66-1,2.49l-.23.54.35.45a40.1,40.1,0,0,1,7.88,31c-2.24,14.39-11.14,29.44-25.06,42.39-13.6,12.65-30.82,21.9-47.25,25.37l-.33.07-.22.26c-1.33,1.54-2.66,3.08-4,4.62l-.24.27v.36a55.53,55.53,0,0,1-.86,8c-3.09,15.83-12.85,32.94-26.78,46.94s-30.9,23.75-46.53,26.74a52.71,52.71,0,0,1-9.2.83h-1.26l-.75,0-.23.71a105.61,105.61,0,0,1-26.07,42.15c-12.19,12.07-26.15,19.74-39.32,21.59a44.31,44.31,0,0,1-6,.42,40,40,0,0,1-22.8-7.06l-.77-.52-.57.73c-12.39,15.64-27.73,24.55-43.19,25.08-.51,0-1,0-1.52,0-12.87,0-25.19-5.83-35.61-16.86l-1.07-1.13-.58,1.45c-8.82,21.92-25,35-43.36,35a39.77,39.77,0,0,1-4.35-.24c-11-1.19-22.27-6.81-32.72-16.25a106.09,106.09,0,0,1-24.6-34.16l-.3-.67-.74.1a41.44,41.44,0,0,1-5.38.35,46.08,46.08,0,0,1-8.25-.77c-14.79-2.85-31-12.72-44.49-27.08s-23.08-31.94-26.42-48.3a54.66,54.66,0,0,1-.65-17.43l.14-1.13h-1.2a58.13,58.13,0,0,1-10.27-.94c-16.27-3.14-33.78-12.71-48-26.24s-24.11-30-27-45.09c-1.65-9.24-.66-17.81,2.95-25.47l.49-1-1.11-.34a100.11,100.11,0,0,1-40.79-24.28c-11.33-11.28-18.19-24.36-19.31-36.81-1.35-15.26,5.83-29.6,20.21-40.38l1.32-1-1.49-.72c-22.37-10.8-35-28.61-33.76-47.66,1.4-22.24,21.68-44.88,50.46-56.34l.59-.23,0-.63c.07-1.09.17-2.11.3-3.1,2.13-16.34,13.14-33.69,30.19-47.61l.41-.34-.05-.53a47.53,47.53,0,0,1,.67-13.48c3.08-15.27,13-31.92,27.26-45.69s31.57-23.49,47.58-26.74a55.66,55.66,0,0,1,10.34-1H391l.13-.85c0-.15.05-.3.07-.46l.09-.58c3.15-16.53,12.59-34.19,25.9-48.46s29.47-24,44.27-26.62a46.49,46.49,0,0,1,7.62-.65,38.9,38.9,0,0,1,16.33,3.49l1,.45.37-1a98.8,98.8,0,0,1,23.8-37.77c10.78-10.41,22.71-16.36,34.49-17.21.95-.07,1.91-.1,2.86-.1m0-1c-1,0-1.95,0-2.93.1-25.07,1.8-48.86,26.29-59.17,55.65a39.88,39.88,0,0,0-16.74-3.58,47.92,47.92,0,0,0-7.79.66c-31.58,5.59-64.32,40.92-71,75.88-.06.36-.11.71-.17,1.07h-.62a56.57,56.57,0,0,0-10.52,1c-33.93,6.87-69.08,40.73-75.63,73.21a48.53,48.53,0,0,0-.69,13.78c-16.18,13.21-28.22,30.44-30.54,48.25-.14,1.06-.24,2.12-.31,3.16-27.41,10.92-49.58,33.34-51.09,57.21-1.33,20.55,13.07,38.36,34.33,48.62C241.24,537,233,551.4,234.48,567.89c2.4,26.74,29.58,52.43,60.8,62-3.57,7.58-4.76,16.34-3,26.06,6.09,32.18,41.35,65.48,75.79,72.15a59,59,0,0,0,10.46,1h.06a56,56,0,0,0,.67,17.75c7.06,34.62,40.16,70.09,71.7,76.17a47,47,0,0,0,8.44.79,41.35,41.35,0,0,0,5.51-.36c12.1,26.52,34.76,48.44,58.12,51a39.61,39.61,0,0,0,4.46.25c19.6,0,35.79-14.51,44.29-35.63,10,10.62,22.54,17.17,36.33,17.17l1.56,0c16.68-.58,32.16-10.61,43.93-25.46a41,41,0,0,0,23.36,7.23,44.84,44.84,0,0,0,6.16-.43c28.13-4,56.17-32.88,66.22-64.42h1.28a53.18,53.18,0,0,0,9.38-.85c33.22-6.35,67.55-40.87,74.11-74.47a56.53,56.53,0,0,0,.88-8.19q2-2.31,4-4.63c34.56-7.3,68.35-38.15,73.09-68.59A40.86,40.86,0,0,0,904,584.59c.45-1.1.88-2.21,1.32-3.31,26.72-10.39,47.45-31.8,47.93-55.28.46-20.8-15-39.3-37-50.12,13.14-9.95,20.54-24,18.45-40.3-3.59-27.45-32.68-54.65-64.6-64.35a47.39,47.39,0,0,0-.46-15.63c-6.55-32.48-41.7-66.34-75.63-73.21a60.66,60.66,0,0,0-6.33-.86c-2.41-2.24-4.82-4.46-7.26-6.66-8.82-33.11-39.68-65.39-69.76-70.61a47.07,47.07,0,0,0-7.73-.65,39.87,39.87,0,0,0-16.7,3.55c-2.43-1.26-4.86-2.47-7.3-3.65-12-23.75-32.52-42-54.46-43.35-.88-.06-1.75-.08-2.62-.08-12.93,0-24.54,6-33.92,15.87-9.91-14.81-23.93-24.35-40-24.35Z"/><path class="cls-2" d="M393,567c-14.91,0-27-20.59-27-46s12.09-46,27-46"/><path class="cls-2" d="M742.46,610.27c3.71,1.92-.84,18.11-10.16,36.18s-19.89,31.15-23.6,29.23"/><path class="cls-2" d="M685.91,298.26c6-5.44,20.35.62,32.15,13.55s16.54,27.81,10.58,33.25"/></svg>
