<?xml version="1.0" encoding="utf-8"?>
<!-- Generator: Adobe Illustrator 23.0.0, SVG Export Plug-In . SVG Version: 6.00 Build 0)  -->
<svg version="1.1" id="Lag_1" xmlns="http://www.w3.org/2000/svg" xmlns:xlink="http://www.w3.org/1999/xlink" x="0px" y="0px"
	 viewBox="0 0 800 800" style="enable-background:new 0 0 800 800;" xml:space="preserve">
<style type="text/css">
	.st0{fill:url(#SVGID_1_);stroke:#FFFFFF;stroke-width:0.25;stroke-linecap:round;stroke-miterlimit:10;}
	.st1{fill:#337BA9;}
	.st2{fill:#9F5A00;}
	.st3{fill:url(#SVGID_2_);stroke:#FFFFFF;stroke-width:0.25;stroke-linecap:round;stroke-miterlimit:10;}
	.st4{fill:#0E1B58;}
	.st5{fill:#FFFFFF;stroke:#FFFFFF;stroke-width:0.25;stroke-linecap:round;stroke-miterlimit:10;}
	.st6{fill:#FFFFFF;}
	.st7{fill:#FF9315;}
	.st8{fill:none;stroke:#FFFFFF;stroke-width:0.25;stroke-linecap:round;stroke-linejoin:round;}
	.st9{fill:url(#SVGID_3_);}
	.st10{fill:#C89FD1;}
	.st11{fill:#FFCA99;}
	.st12{fill:#9854B7;}
</style>
<g>
	<title>Snemand</title>
	<g id="Snemand">

			<radialGradient id="SVGID_1_" cx="3669.7507" cy="1008.3282" r="256.9" gradientTransform="matrix(0.6381 0 0 0.7331 -1949.8079 -196.6478)" gradientUnits="userSpaceOnUse">
			<stop  offset="0.79" style="stop-color:#FFFFFF"/>
			<stop  offset="1" style="stop-color:#FFCA99"/>
		</radialGradient>
		<ellipse class="st0" cx="388.8" cy="543.3" rx="176.6" ry="172.2"/>
		<path class="st1" d="M444.3,466.2l132.8,60.7c3.2,1.5,4.9,5.8,3.6,9.6l-7.2,21.1c-1.3,3.8-5.1,5.8-8.3,4.3l-132.8-60.7
			c-3.2-1.5-4.9-5.8-3.6-9.6l7.2-21.1C437.3,466.6,441.2,464.7,444.3,466.2z"/>
		<path class="st1" d="M144.3,352.7c-1.9-1.1-4.3-0.6-6.6,0.6c0.4-4.5,0.2-9.2-0.4-13.6c-2.1-14.9-8.5-26.4-14.3-25.4
			c-6,1.1-8.9,14.1-7,29.2c0.2,1.1,0.2,2.1,0.4,3.2c-8.9-0.2-20.6,6.6-30,18.7c-13,17-16.4,38.1-7.9,47.1
			c8.7,8.9,26.4,2.1,39.4-14.9c0.2-0.2,0.4-0.6,0.6-0.9c0.4,4,1.7,7.2,4,8.5c5.7,3.2,15.3-6.2,21.3-20.7
			C149.9,370.1,149.9,355.9,144.3,352.7z"/>
		<path class="st2" d="M283.3,464.9l-148.9-81.4c-0.9-0.4-1.1-1.5-0.9-2.3l0.4-1.5c0.4-0.9,1.3-1.3,1.9-0.9L289.4,447
			c12.1,5.3,22.1,13.4,20.9,17l-2.3,6.2C307.1,474.3,295.2,471.3,283.3,464.9z"/>
		<path class="st1" d="M661.8,375.5c1.9-1.1,4.3-0.6,6.6,0.6c-0.4-4.5-0.2-9.2,0.4-13.6c2.1-14.9,8.5-26.4,14.3-25.4
			c5.7,1.1,9.4,14.3,7.2,29.2c-0.2,1.1-0.2,2.1-0.4,3.2c8.9-0.2,20.6,6.6,30,18.7c13,17,16.4,38.1,7.9,47.1s-26.4,2.1-39.4-14.9
			c-0.2-0.2-0.4-0.6-0.6-0.9c-0.4,4-1.7,7.2-4,8.5c-5.7,3.2-15.3-6.2-21.3-20.7C656.3,392.9,656.1,378.6,661.8,375.5z"/>
		<path class="st2" d="M529,489L678,407.6c0.9-0.4,1.1-1.5,0.9-2.3l-0.4-1.5c-0.4-0.9-1.3-1.3-1.9-0.9l-153.6,68.2
			c-12.1,5.3-22.1,13.4-20.9,17l2.3,6.2C505.4,498.2,517.3,495.4,529,489z"/>
		<ellipse class="st1" cx="421.8" cy="396.5" rx="111.1" ry="69.2"/>

			<radialGradient id="SVGID_2_" cx="2818.7114" cy="964.3241" r="257.211" gradientTransform="matrix(0.4096 0 0 0.499 -714.0244 -186.4742)" gradientUnits="userSpaceOnUse">
			<stop  offset="0.79" style="stop-color:#FFFFFF"/>
			<stop  offset="1" style="stop-color:#FFCA99"/>
		</radialGradient>
		<ellipse class="st3" cx="440.9" cy="294.7" rx="113.2" ry="117"/>
		<ellipse class="st4" cx="425.8" cy="247.6" rx="22.8" ry="29.4"/>

			<ellipse transform="matrix(0.6768 -0.7362 0.7362 0.6768 -60.0417 390.3879)" class="st5" cx="414.6" cy="263.6" rx="4.3" ry="12.1"/>

			<ellipse transform="matrix(0.5662 -0.8243 0.8243 0.5662 -30.4778 471.7325)" class="st6" cx="432.9" cy="264.8" rx="8.3" ry="4"/>
		<ellipse class="st4" cx="468" cy="258.5" rx="14.9" ry="17.9"/>

			<ellipse transform="matrix(0.6442 -0.7648 0.7648 0.6442 -41.3095 447.5388)" class="st5" cx="460.4" cy="268.2" rx="2.6" ry="7.7"/>
		<ellipse transform="matrix(0.6105 -0.792 0.792 0.6105 -28.9362 479.0716)" class="st6" cx="472.6" cy="269" rx="5.1" ry="2.6"/>
		<path class="st7" d="M538.2,314.3c3,0.4,3.2-0.6,0.4-1.9l-47-21.1c-3.4-1.3-6.8-2.3-10.2-2.8l-47.5,7.9c-2.8,1.1-5.1,1.9-5.1,1.9
			c-0.2,0.2-0.4,0.6-0.6,0.6l-0.4,0.4l-1.9,2.1c-1.1,3-1.5,6-1.5,9.2c0,2.8,0.9,11.3,1.9,12.4h2.3h0.4c0.4,0,3-0.4,6-1.1l46-7.7
			c3-0.6,7.7-1.3,10.4-1.7L538.2,314.3z"/>
		<path class="st8" d="M538.2,314.3c3,0.4,3.2-0.6,0.4-1.9l-47-21.1c-3.4-1.3-6.8-2.3-10.2-2.8l-47.5,7.9c-2.8,1.1-5.1,1.9-5.1,1.9
			c-0.2,0.2-0.4,0.6-0.6,0.6l-0.4,0.4l-1.9,2.1c-1.1,3-1.5,6-1.5,9.2c0,2.8,0.9,11.3,1.9,12.4h2.3h0.4c0.4,0,3-0.4,6-1.1l46-7.7
			c3-0.6,7.7-1.3,10.4-1.7L538.2,314.3z"/>

			<linearGradient id="SVGID_3_" gradientUnits="userSpaceOnUse" x1="335.1885" y1="836.5803" x2="410.7915" y2="930.623" gradientTransform="matrix(1 0 0 1 0 -704)">
			<stop  offset="0" style="stop-color:#FFFFFF"/>
			<stop  offset="0.42" style="stop-color:#000000"/>
		</linearGradient>
		<path class="st9" d="M496.9,135.1c-3.6-7.2-26.8,0-58.7,16.6c0-0.2-0.2-0.4-0.2-0.6L409.7,103c-1.9-3.4-6-4.3-8.9-1.9l-84.3,66.7
			c-3,2.3-3.6,6.8-1.7,10.2l0,0l23.4,39.8c-32.6,26.2-52.8,48.6-48.9,56.2c5.5,10.9,56.4-11.3,113.6-49.9
			C460.3,186,502.4,146,496.9,135.1z"/>
		<path class="st2" d="M472.2,368.6c3,1.3,4.7,4.3,4,6.6l0,0c-0.9,2.3-3.8,3.2-6.8,1.9l-26.4-11.5c-3-1.3-4.7-4.3-4-6.6l0,0"/>
		<path class="st2" d="M488.2,365.9l4,1.1c3.4,1.1,5.5,4.9,4.7,8.9l-1.1,4.7c-0.9,4-4.3,6.4-7.7,5.3l-4-1.1
			c-3.4-1.1-5.5-4.9-4.7-8.9l1.1-4.7C481.4,367.4,484.8,364.8,488.2,365.9z"/>
		<ellipse class="st1" cx="440.9" cy="466" rx="31.3" ry="36.4"/>
		<path class="st1" d="M442.4,461.3l85.8,132.1c2.1,3.2,1.5,7.9-1.3,10.4l-15.5,13.6c-2.8,2.6-6.8,1.7-8.9-1.5l-85.8-132.1
			c-2.1-3.2-1.5-7.9,1.3-10.4l15.5-13.6C436.3,457.5,440.3,458.1,442.4,461.3z"/>
		<path class="st1" d="M524.1,596.8c-1.5,1.3-2.8,3.2-3.6,5.3c-1.9,0.2-3.8,1.3-5.3,2.6c-0.2,0-0.2,0.2-0.4,0.4
			c-5.3-4-12.3-2.1-15.7,4c-3.4,6.2-1.9,14.3,3.4,18.3c4,3,9.1,2.8,13-0.6c0.2-0.2,0.2-0.2,0.4-0.4c5.3,4,12.3,2.1,15.7-4
			c0.4-0.6,0.6-1.3,0.9-1.9c6.2-1.1,10.6-7.7,9.8-14.9c-0.9-7.2-6.6-12.4-12.8-11.3C527.5,594.5,525.6,595.3,524.1,596.8
			L524.1,596.8z"/>
		<path class="st1" d="M578.6,531.8c-1.1,1.9-1.9,4-2.1,6.2c-1.7,1.1-3.2,2.6-4.5,4.3c0,0.2-0.2,0.2-0.2,0.4
			c-6.2-1.9-12.3,2.3-14,9.4c-1.7,7,1.9,14.3,8.1,16.2c4.7,1.5,9.6-0.6,12.3-5.1c0-0.2,0.2-0.2,0.2-0.4c6.2,1.9,12.3-2.1,14-9.2
			c0.2-0.6,0.2-1.5,0.4-2.1c5.7-3.2,8.1-11.1,5.3-17.7c-2.8-6.6-9.6-9.4-15.3-6.2C581.2,528.6,579.7,530.1,578.6,531.8z"/>
		<ellipse class="st10" cx="393.3" cy="520.5" rx="15.7" ry="18.1"/>
		<ellipse class="st11" cx="424.1" cy="561.7" rx="15.7" ry="18.1"/>
		<ellipse class="st12" cx="398.6" cy="603" rx="15.7" ry="18.1"/>
	</g>
</g>
</svg>
