<svg id="Lag_1" data-name="Lag 1" xmlns="http://www.w3.org/2000/svg" xmlns:xlink="http://www.w3.org/1999/xlink" width="800" height="800" viewBox="0 0 800 800"><defs><style>.cls-1,.cls-4,.cls-6,.cls-9{stroke:#fff;stroke-linecap:round;stroke-width:0.25px;}.cls-1,.cls-4,.cls-6{stroke-miterlimit:10;}.cls-1{fill:url(#Ikke-navngivet_forløb);}.cls-2{fill:#337ba9;}.cls-3{fill:#9f5a00;}.cls-4{fill:url(#Ikke-navngivet_forløb_2);}.cls-5{fill:#0e1b58;}.cls-6,.cls-7{fill:#fff;}.cls-8{fill:#ff9315;}.cls-9{fill:none;stroke-linejoin:round;}.cls-10{fill:url(#Ikke-navngivet_forløb_3);}.cls-11{fill:#c89fd1;}.cls-12{fill:#ffca99;}.cls-13{fill:#9854b7;}</style><radialGradient id="Ikke-navngivet_forløb" cx="3669.75" cy="1008.33" r="256.9" gradientTransform="translate(-1949.81 -196.65) scale(0.64 0.73)" gradientUnits="userSpaceOnUse"><stop offset="0.79" stop-color="#fff"/><stop offset="1" stop-color="#ffca99"/></radialGradient><radialGradient id="Ikke-navngivet_forløb_2" cx="2818.71" cy="964.32" r="257.21" gradientTransform="translate(-714.02 -186.47) scale(0.41 0.5)" xlink:href="#Ikke-navngivet_forløb"/><linearGradient id="Ikke-navngivet_forløb_3" x1="335.19" y1="836.58" x2="410.79" y2="930.62" gradientTransform="translate(0 -704)" gradientUnits="userSpaceOnUse"><stop offset="0" stop-color="#fff"/><stop offset="0.42"/></linearGradient></defs><title>snemand2</title><g id="Snemand"><ellipse class="cls-1" cx="388.81" cy="543.34" rx="176.61" ry="172.15"/><path class="cls-2" d="M444.35,466.22l132.77,60.72c3.2,1.49,4.9,5.75,3.62,9.59l-7.23,21.09c-1.28,3.83-5.11,5.75-8.3,4.26L432.43,501.16c-3.19-1.49-4.89-5.75-3.62-9.59l7.24-21.09C437.33,466.64,441.16,464.73,444.35,466.22Z"/><path class="cls-2" d="M144.32,352.66c-1.91-1.07-4.25-.64-6.59.64a58.77,58.77,0,0,0-.43-13.64c-2.13-14.91-8.51-26.42-14.25-25.35-6,1.06-8.94,14.06-7,29.19.22,1.06.22,2.13.43,3.19-8.94-.21-20.64,6.61-30,18.75-13,17-16.39,38.14-7.88,47.09,8.73,8.94,26.39,2.13,39.37-14.92.21-.21.43-.64.64-.85.42,4.05,1.7,7.24,4,8.52,5.75,3.2,15.32-6.18,21.28-20.66S149.86,355.85,144.32,352.66Z"/><path class="cls-3" d="M283.27,464.94,134.32,383.55a2,2,0,0,1-.85-2.34l.43-1.49c.42-.86,1.28-1.28,1.91-.86L289.44,447c12.13,5.33,22.13,13.42,20.85,17L308,470.26C307.1,474.31,295.19,471.33,283.27,464.94Z"/><path class="cls-2" d="M661.81,375.45c1.92-1.06,4.26-.64,6.6.64a58.16,58.16,0,0,1,.42-13.63c2.13-14.92,8.51-26.42,14.26-25.36s9.36,14.28,7.23,29.19c-.21,1.07-.21,2.13-.42,3.2,8.94-.21,20.64,6.6,30,18.75,13,17,16.38,38.13,7.87,47.08s-26.38,2.13-39.36-14.91c-.21-.21-.43-.64-.64-.85-.43,4-1.7,7.24-4,8.52-5.75,3.2-15.32-6.18-21.28-20.67C656.28,392.92,656.07,378.65,661.81,375.45Z"/><path class="cls-3" d="M529,489l149-81.38a2,2,0,0,0,.85-2.35l-.42-1.49c-.43-.85-1.28-1.28-1.92-.85L522.86,471.12c-12.12,5.32-22.13,13.42-20.85,17l2.34,6.18C505.42,498.18,517.33,495.41,529,489Z"/><ellipse class="cls-2" cx="421.79" cy="396.55" rx="111.07" ry="69.24"/><ellipse class="cls-4" cx="440.94" cy="294.71" rx="113.2" ry="116.97"/><ellipse class="cls-5" cx="425.84" cy="247.62" rx="22.77" ry="29.4"/><ellipse class="cls-6" cx="414.55" cy="263.57" rx="4.26" ry="12.14" transform="translate(-60.04 390.39) rotate(-47.41)"/><ellipse class="cls-7" cx="432.93" cy="264.82" rx="8.31" ry="4.04" transform="translate(-30.48 471.73) rotate(-55.51)"/><ellipse class="cls-5" cx="467.97" cy="258.49" rx="14.89" ry="17.9"/><ellipse class="cls-6" cx="460.41" cy="268.17" rx="2.56" ry="7.66" transform="translate(-41.31 447.54) rotate(-49.89)"/><ellipse class="cls-7" cx="472.59" cy="268.95" rx="5.11" ry="2.55" transform="translate(-28.94 479.07) rotate(-52.38)"/><path class="cls-8" d="M538.18,314.31c3,.42,3.2-.64.43-1.92l-47-21.09a45.17,45.17,0,0,0-10.22-2.77l-47.45,7.88c-2.76,1.06-5.11,1.92-5.11,1.92-.21.21-.42.64-.63.64l-.43.42-1.91,2.13a26.58,26.58,0,0,0-1.49,9.16c0,2.77.85,11.3,1.91,12.36H429a60.07,60.07,0,0,0,6-1.06l46-7.67c3-.64,7.66-1.28,10.42-1.71Z"/><path class="cls-9" d="M538.18,314.31c3,.42,3.2-.64.43-1.92l-47-21.09a45.17,45.17,0,0,0-10.22-2.77l-47.45,7.88c-2.76,1.06-5.11,1.92-5.11,1.92-.21.21-.42.64-.63.64l-.43.42-1.91,2.13a26.58,26.58,0,0,0-1.49,9.16c0,2.77.85,11.3,1.91,12.36H429a60.07,60.07,0,0,0,6-1.06l46-7.67c3-.64,7.66-1.28,10.42-1.71Z"/><path class="cls-10" d="M496.9,135.12c-3.61-7.24-26.81,0-58.72,16.62,0-.21-.22-.42-.22-.64L409.66,103a5.84,5.84,0,0,0-8.93-1.91l-84.26,66.68A8.11,8.11,0,0,0,314.76,178h0l23.41,39.84C305.61,244,285.4,266.37,289.23,274c5.53,10.86,56.39-11.29,113.63-49.86C460.31,186.05,502.44,146,496.9,135.12Z"/><path class="cls-3" d="M472.22,368.64c3,1.27,4.68,4.26,4,6.6h0c-.85,2.34-3.83,3.2-6.8,1.92l-26.39-11.51c-3-1.28-4.68-4.26-4-6.6h0"/><path class="cls-3" d="M488.18,365.87l4,1.06c3.41,1.07,5.54,4.9,4.68,8.95l-1.06,4.69c-.85,4.05-4.25,6.39-7.66,5.32l-4-1.06c-3.41-1.07-5.53-4.9-4.68-8.95l1.06-4.69C481.37,367.36,484.78,364.8,488.18,365.87Z"/><ellipse class="cls-2" cx="440.94" cy="466" rx="31.28" ry="36.43"/><path class="cls-2" d="M442.43,461.32l85.75,132.09a8.4,8.4,0,0,1-1.27,10.44l-15.54,13.64c-2.76,2.55-6.81,1.7-8.93-1.49L416.69,483.9A8.4,8.4,0,0,1,418,473.46l15.54-13.64A6,6,0,0,1,442.43,461.32Z"/><path class="cls-2" d="M524.14,596.82a13.91,13.91,0,0,0-3.62,5.33,10.41,10.41,0,0,0-5.32,2.55c-.21,0-.21.22-.42.43-5.32-4-12.34-2.13-15.75,4s-1.91,14.27,3.41,18.32a10,10,0,0,0,13-.64l.42-.42c5.32,4,12.34,2.13,15.75-4.05a7.68,7.68,0,0,0,.85-1.92c6.17-1.07,10.64-7.67,9.79-14.91s-6.6-12.36-12.77-11.3a9,9,0,0,0-5.32,2.56Z"/><path class="cls-2" d="M578.61,531.84a16.48,16.48,0,0,0-2.12,6.18,16.56,16.56,0,0,0-4.47,4.26c0,.21-.22.21-.22.42-6.17-1.91-12.34,2.35-14,9.38s1.92,14.27,8.09,16.19c4.68,1.49,9.57-.64,12.34-5.11,0-.22.21-.22.21-.43,6.17,1.92,12.34-2.13,14-9.16.22-.64.22-1.49.43-2.13,5.74-3.2,8.09-11.08,5.32-17.68s-9.58-9.38-15.32-6.18A13.54,13.54,0,0,0,578.61,531.84Z"/><ellipse class="cls-11" cx="393.28" cy="520.55" rx="15.75" ry="18.11"/><ellipse class="cls-12" cx="424.13" cy="561.67" rx="15.75" ry="18.11"/><ellipse class="cls-13" cx="398.6" cy="603" rx="15.75" ry="18.11"/></g></svg>
