<svg id="Lag_1" data-name="Lag 1" xmlns="http://www.w3.org/2000/svg" width="500" height="400" viewBox="0 0 500 400"><defs><style>.cls-1{fill:#ffca99;}.cls-2{fill:#fff;}</style></defs><title>spil_igen</title><ellipse cx="257.6" cy="201.6" rx="218.5" ry="128.4"/><ellipse class="cls-1" cx="244.9" cy="201.6" rx="218.5" ry="128.4"/><ellipse class="cls-2" cx="316.19" cy="308.21" rx="70.3" ry="9.1" transform="translate(-53.66 67.01) rotate(-11.16)"/><ellipse class="cls-2" cx="411.33" cy="274.19" rx="28.5" ry="8.1" transform="translate(-82.82 287.89) rotate(-35.27)"/><path d="M136.08,198.68a9.08,9.08,0,0,1-2.28,6,15,15,0,0,1-6.68,4.19,32.11,32.11,0,0,1-10.43,1.51,29.71,29.71,0,0,1-11.92-2.07,14.65,14.65,0,0,1-5.41-4,7.64,7.64,0,0,1-2.09-4.84,2.87,2.87,0,0,1,1.25-2.33,5.05,5.05,0,0,1,3.19-1,4.52,4.52,0,0,1,2.64.76,6.12,6.12,0,0,1,1.85,2.25,13.71,13.71,0,0,0,2,2.95,7.81,7.81,0,0,0,3,2,17.43,17.43,0,0,0,12.31-.78q2.75-1.56,2.75-3.88a3.6,3.6,0,0,0-1.48-3,10.37,10.37,0,0,0-3.83-1.75q-2.36-.62-6.28-1.29a55.62,55.62,0,0,1-8.81-2.19,14.27,14.27,0,0,1-5.63-3.4,7.42,7.42,0,0,1-2.08-5.37,7.74,7.74,0,0,1,2.2-5.43,14,14,0,0,1,6.36-3.65,33.56,33.56,0,0,1,9.79-1.27,31.67,31.67,0,0,1,7.78.84,18.79,18.79,0,0,1,5.44,2.25,10.6,10.6,0,0,1,3.17,2.94,5.59,5.59,0,0,1,1,3,3.16,3.16,0,0,1-1.25,2.41,4.63,4.63,0,0,1-3.12,1.07A4.35,4.35,0,0,1,127,184a8.85,8.85,0,0,1-1.91-2.11,10.32,10.32,0,0,0-3.2-3.27q-1.86-1.17-6-1.17a12.9,12.9,0,0,0-6.17,1.27c-1.57.85-2.35,1.87-2.35,3.07a2.61,2.61,0,0,0,.8,1.92,6.55,6.55,0,0,0,2.2,1.39,17.21,17.21,0,0,0,2.83.9c1,.22,2.53.54,4.73,1q4.13.73,7.47,1.62a25.77,25.77,0,0,1,5.7,2.15,10.05,10.05,0,0,1,3.66,3.19A8.18,8.18,0,0,1,136.08,198.68Z"/><path d="M152.23,186.26v.84a17.57,17.57,0,0,1,5.33-3.53,16.51,16.51,0,0,1,6.26-1.12,18.16,18.16,0,0,1,7.73,1.64,13.12,13.12,0,0,1,5.58,4.8,13.36,13.36,0,0,1,2.05,7.47,14.42,14.42,0,0,1-1.18,5.85,12.64,12.64,0,0,1-3.25,4.46,14.45,14.45,0,0,1-4.88,2.78,18.36,18.36,0,0,1-6.05,1,16,16,0,0,1-6.54-1.18,17.71,17.71,0,0,1-5.05-3.49V216.1q0,4.54-4.36,4.55c-1.71,0-2.84-.39-3.4-1.17a6,6,0,0,1-.83-3.43V186.31a3.68,3.68,0,0,1,1.13-2.94,4.61,4.61,0,0,1,3.1-1,4.78,4.78,0,0,1,3.15,1A3.48,3.48,0,0,1,152.23,186.26Zm17.82,10a9.38,9.38,0,0,0-1.1-4.69,7.57,7.57,0,0,0-3-3,9,9,0,0,0-4.32-1,9.3,9.3,0,0,0-6.34,2.25q-2.58,2.25-2.58,6.61a8.12,8.12,0,0,0,2.56,6.4,9.72,9.72,0,0,0,10.56,1.29,7.61,7.61,0,0,0,3.1-3A9.48,9.48,0,0,0,170.05,196.29Z"/><path d="M191.07,179.19a5.79,5.79,0,0,1-3.25-.88,2.88,2.88,0,0,1,0-4.91,5.55,5.55,0,0,1,3.21-1,5.77,5.77,0,0,1,3.13.86,2.78,2.78,0,0,1,1.37,2.5,2.85,2.85,0,0,1-1.34,2.49A5.56,5.56,0,0,1,191.07,179.19Zm4.5,7.12v19.92a3.81,3.81,0,0,1-1.3,3.13,5,5,0,0,1-3.3,1.06,4.81,4.81,0,0,1-3.25-1.08,3.9,3.9,0,0,1-1.25-3.11V186.51a3.78,3.78,0,0,1,1.25-3.08,4.94,4.94,0,0,1,3.25-1,5.14,5.14,0,0,1,3.3,1A3.49,3.49,0,0,1,195.57,186.31Z"/><path d="M205,206.23V176.34a3.93,3.93,0,0,1,1.21-3.13,4.84,4.84,0,0,1,3.29-1.06,5.07,5.07,0,0,1,3.33,1,3.84,3.84,0,0,1,1.26,3.14v29.89a3.85,3.85,0,0,1-1.28,3.15,5.12,5.12,0,0,1-3.31,1,4.78,4.78,0,0,1-3.25-1.08A3.9,3.9,0,0,1,205,206.23Z"/><path d="M245.09,179.19a5.78,5.78,0,0,1-3.24-.88,2.89,2.89,0,0,1,0-4.91,5.55,5.55,0,0,1,3.21-1,5.83,5.83,0,0,1,3.14.86,2.77,2.77,0,0,1,1.36,2.5,2.84,2.84,0,0,1-1.33,2.49A5.59,5.59,0,0,1,245.09,179.19Zm4.5,7.12v19.92a3.78,3.78,0,0,1-1.3,3.13,5,5,0,0,1-3.29,1.06,4.78,4.78,0,0,1-3.25-1.08,3.87,3.87,0,0,1-1.25-3.11V186.51a3.75,3.75,0,0,1,1.25-3.08,4.91,4.91,0,0,1,3.25-1,5.1,5.1,0,0,1,3.29,1A3.47,3.47,0,0,1,249.59,186.31Z"/><path d="M292.43,187.45v20a16.33,16.33,0,0,1-1,5.91,9.27,9.27,0,0,1-3.1,4.09,14.66,14.66,0,0,1-5.58,2.4,39.69,39.69,0,0,1-8.57.78,32.15,32.15,0,0,1-8.4-1,15.82,15.82,0,0,1-5.69-2.57,4.31,4.31,0,0,1-2-3.25,2.43,2.43,0,0,1,1.13-2.06A4.72,4.72,0,0,1,262,211a5.11,5.11,0,0,1,3.5,1.34c.49.45,1,.91,1.52,1.37a8,8,0,0,0,1.73,1.19,7.94,7.94,0,0,0,2.28.73,17.43,17.43,0,0,0,3.06.24,16.08,16.08,0,0,0,5.48-.74,5.09,5.09,0,0,0,2.73-2.09,6.78,6.78,0,0,0,.92-2.86c.09-1,.15-2.66.2-4.91a14.22,14.22,0,0,1-4.85,3.38,16.62,16.62,0,0,1-6.54,1.16,17.25,17.25,0,0,1-8-1.76,12.62,12.62,0,0,1-5.25-4.95,14.47,14.47,0,0,1-1.83-7.35,13.54,13.54,0,0,1,1.12-5.61,11.41,11.41,0,0,1,3.18-4.21,14.08,14.08,0,0,1,4.76-2.59,19.27,19.27,0,0,1,5.93-.87,18.11,18.11,0,0,1,6.7,1.12,15.87,15.87,0,0,1,5.26,3.53v-.94a3.47,3.47,0,0,1,1.16-2.78,4.53,4.53,0,0,1,3-1c1.76,0,2.92.43,3.5,1.3A6.75,6.75,0,0,1,292.43,187.45Zm-26.35,8.73q0,4.2,2.41,6.34a9.07,9.07,0,0,0,6.25,2.15,10.22,10.22,0,0,0,4.28-.92,7.69,7.69,0,0,0,4.55-7.29,8.66,8.66,0,0,0-2.45-6.56,8.9,8.9,0,0,0-6.45-2.35,8.62,8.62,0,0,0-6.24,2.25A8.39,8.39,0,0,0,266.08,196.18Z"/><path d="M325.3,198.1H307.51a7.43,7.43,0,0,0,1.25,4.14A7.62,7.62,0,0,0,312,205a10.82,10.82,0,0,0,4.45.9,13.76,13.76,0,0,0,3-.29,11.45,11.45,0,0,0,2.62-.9,22.25,22.25,0,0,0,2.33-1.33q1.06-.71,2.76-1.92a3.7,3.7,0,0,1,2-.45,4,4,0,0,1,2.26.58,1.85,1.85,0,0,1,.87,1.64,3.75,3.75,0,0,1-1,2.18,9.86,9.86,0,0,1-2.91,2.4,19,19,0,0,1-4.9,1.91,27.53,27.53,0,0,1-6.77.75q-8.76,0-13.63-3.78a12.34,12.34,0,0,1-4.86-10.28,13.44,13.44,0,0,1,1.2-5.67,12.34,12.34,0,0,1,3.5-4.48,16.13,16.13,0,0,1,5.66-2.86,26,26,0,0,1,7.46-1,22.39,22.39,0,0,1,9.14,1.7,13.53,13.53,0,0,1,5.72,4.41,9.49,9.49,0,0,1,1.89,5.5c0,1.74-.65,2.86-2,3.37A15.57,15.57,0,0,1,325.3,198.1Zm-17.79-3.91H324a7.32,7.32,0,0,0-2.51-5.29,8.9,8.9,0,0,0-5.75-1.75,8.54,8.54,0,0,0-5.58,1.78A7.81,7.81,0,0,0,307.51,194.19Z"/><path d="M348.71,186.21V187a15.55,15.55,0,0,1,5.25-3.52,17.74,17.74,0,0,1,6.55-1.12,16.3,16.3,0,0,1,6.42,1.19,9,9,0,0,1,4.23,3.35,6.81,6.81,0,0,1,1.17,2.73,21.26,21.26,0,0,1,.27,3.74v12.82a3.88,3.88,0,0,1-1.25,3.13,4.85,4.85,0,0,1-3.25,1.06,4.93,4.93,0,0,1-3.3-1.08,3.88,3.88,0,0,1-1.26-3.11V194.75a9.15,9.15,0,0,0-1.25-5.22c-.83-1.2-2.5-1.8-5-1.8a9.06,9.06,0,0,0-4.43,1.09,6.83,6.83,0,0,0-2.93,3,16.46,16.46,0,0,0-.67,5.76v8.63a3.85,3.85,0,0,1-1.28,3.15,5.13,5.13,0,0,1-3.32,1,4.81,4.81,0,0,1-3.23-1.08,3.88,3.88,0,0,1-1.26-3.11V186.31a3.68,3.68,0,0,1,1.13-2.94,4.61,4.61,0,0,1,3.1-1,5.18,5.18,0,0,1,2.16.43,3.49,3.49,0,0,1,1.55,1.29A3.62,3.62,0,0,1,348.71,186.21Z"/><path d="M380,182.7a7.65,7.65,0,0,1,2-4.86,14.79,14.79,0,0,1,5.93-4.07,23.57,23.57,0,0,1,9.09-1.62,24.83,24.83,0,0,1,8.53,1.35,13.49,13.49,0,0,1,5.71,3.67,7.58,7.58,0,0,1,2,5.05,6.35,6.35,0,0,1-1.15,3.76,12.3,12.3,0,0,1-2.74,2.79c-1.05.79-2.94,2.1-5.67,4a22.36,22.36,0,0,0-1.82,1.37,6,6,0,0,0-1,1.09,4.24,4.24,0,0,0-.52,1c-.12.33-.31.91-.55,1.73q-.63,2.63-4,2.63a4.85,4.85,0,0,1-2.92-.86,2.94,2.94,0,0,1-1.18-2.55,7.52,7.52,0,0,1,.86-3.68,9.61,9.61,0,0,1,2.3-2.72q1.44-1.17,3.87-2.79c1.42-.94,2.44-1.66,3.08-2.13a8.4,8.4,0,0,0,1.6-1.61,3.2,3.2,0,0,0,.65-1.92,4.1,4.1,0,0,0-2-3.41,8.74,8.74,0,0,0-5.11-1.38c-2.44,0-4.24.46-5.39,1.4a10.68,10.68,0,0,0-2.94,4.13,4.22,4.22,0,0,1-4.29,2.85,4.93,4.93,0,0,1-3.15-1A2.75,2.75,0,0,1,380,182.7Zm16.25,27.67a6.36,6.36,0,0,1-3.55-1,3.17,3.17,0,0,1-1.51-2.79,3.25,3.25,0,0,1,1.46-2.68,5.91,5.91,0,0,1,3.6-1.08,5.68,5.68,0,0,1,3.53,1.08,3.24,3.24,0,0,1,1.43,2.68,3.18,3.18,0,0,1-1.49,2.77A6,6,0,0,1,396.21,210.37Z"/></svg>
