<?xml version="1.0" encoding="utf-8"?>
<!-- Generator: Adobe Illustrator 23.0.0, SVG Export Plug-In . SVG Version: 6.00 Build 0)  -->
<svg version="1.1" id="Lag_1" xmlns="http://www.w3.org/2000/svg" xmlns:xlink="http://www.w3.org/1999/xlink" x="0px" y="0px"
	 viewBox="0 0 500 400" style="enable-background:new 0 0 500 400;" xml:space="preserve">
<style type="text/css">
	.st0{fill:#FFCA99;}
	.st1{fill:#FFFFFF;}
	.st2{font-family:'ArialRoundedMTBold';}
	.st3{font-size:78.0014px;}
	.st4{fill:none;}
</style>
<ellipse cx="257.6" cy="201.6" rx="218.5" ry="128.4"/>
<ellipse class="st0" cx="244.9" cy="201.6" rx="218.5" ry="128.4"/>
<ellipse transform="matrix(0.9811 -0.1935 0.1935 0.9811 -53.6745 67.0224)" class="st1" cx="316.2" cy="308.2" rx="70.3" ry="9.1"/>
<ellipse transform="matrix(0.8164 -0.5775 0.5775 0.8164 -82.8029 287.8594)" class="st1" cx="411.3" cy="274.2" rx="28.5" ry="8.1"/>
<g>
	<g>
		<path d="M192,212.9c0,3.7-1,7.4-3.1,10.5c-2.2,3.2-5.4,5.8-9,7.3c-4.4,1.8-9.2,2.7-14,2.6c-6.5,0-11.8-1.2-16-3.6
			c-2.9-1.7-5.4-4.1-7.3-6.9c-1.7-2.5-2.7-5.4-2.8-8.4c0-1.5,0.6-3,1.7-4c1.1-1.1,2.7-1.7,4.3-1.7c1.3,0,2.6,0.4,3.6,1.3
			c1.1,1.1,2,2.4,2.5,3.9c0.7,1.8,1.6,3.5,2.7,5.1c1.1,1.5,2.5,2.6,4.1,3.4c2.2,1,4.5,1.4,6.9,1.3c3.4,0.2,6.8-0.8,9.6-2.7
			c2.3-1.5,3.7-4,3.7-6.7c0.1-1.9-0.6-3.8-2-5.2c-1.5-1.4-3.2-2.4-5.1-3c-2.1-0.7-4.9-1.4-8.4-2.2c-4.1-0.9-8-2.2-11.8-3.9
			c-3-1.3-5.6-3.3-7.6-5.9c-1.9-2.7-2.9-6-2.8-9.3c0-3.4,1-6.7,2.9-9.4c2.2-2.9,5.1-5.1,8.5-6.3c4.2-1.6,8.7-2.3,13.1-2.2
			c3.5-0.1,7.1,0.4,10.4,1.5c2.7,0.8,5.1,2.2,7.3,3.9c1.8,1.4,3.2,3.1,4.2,5.1c0.8,1.6,1.3,3.4,1.3,5.2c0,1.6-0.6,3.1-1.7,4.2
			c-1,1.2-2.6,1.9-4.2,1.9c-1.3,0.1-2.5-0.3-3.5-1.1c-1-1.1-1.9-2.3-2.6-3.7c-1-2.2-2.5-4.1-4.3-5.7c-1.7-1.3-4.3-2-8-2
			c-2.9-0.1-5.8,0.6-8.3,2.2c-2.1,1.5-3.1,3.3-3.1,5.3c0,1.2,0.4,2.4,1.1,3.3c0.8,1,1.8,1.8,3,2.4c1.2,0.7,2.5,1.2,3.8,1.6
			c1.3,0.4,3.4,0.9,6.4,1.7c3.4,0.8,6.7,1.7,10,2.8c2.7,0.9,5.3,2.1,7.6,3.7c2.1,1.4,3.8,3.3,4.9,5.6
			C191.5,207.2,192.1,210,192,212.9z"/>
		<path d="M203,185.6h1.3v-7.2c0-1.9,0.1-3.4,0.2-4.5c0.1-1,0.4-2,0.9-2.8c0.5-0.8,1.2-1.5,2.1-2c0.9-0.5,1.9-0.8,3-0.8
			c1.6,0,3.1,0.6,4.2,1.7c0.8,0.7,1.4,1.7,1.6,2.8c0.3,1.5,0.4,3.1,0.3,4.7v8.1h4.5c1.4-0.1,2.9,0.3,4,1.2c0.9,0.8,1.4,1.9,1.4,3.1
			c0.1,1.4-0.7,2.8-1.9,3.4c-1.8,0.7-3.7,1.1-5.6,1h-2.3v22c0,1.4,0,2.9,0.2,4.3c0.1,0.9,0.5,1.8,1.1,2.4c0.8,0.7,1.8,1,2.8,0.9
			c1,0,2-0.2,2.9-0.4c0.9-0.2,1.9-0.3,2.9-0.4c1,0,2,0.4,2.7,1.2c0.8,0.7,1.2,1.8,1.2,2.9c0,1.9-1.1,3.4-3.2,4.4s-5.2,1.5-9.3,1.5
			c-3.8,0-6.7-0.6-8.7-1.9c-1.9-1.2-3.3-3-3.9-5.2c-0.7-2.9-1-5.9-0.9-8.9v-23h-1.6c-1.4,0.1-2.9-0.3-4-1.2
			c-0.9-0.8-1.4-1.9-1.4-3.1c0-1.2,0.5-2.3,1.5-3.1C200.1,185.9,201.5,185.5,203,185.6z"/>
		<path d="M265.6,226.5c-2.6,2.1-5.5,3.8-8.6,5.1c-3,1.2-6.1,1.7-9.3,1.7c-2.9,0.1-5.7-0.6-8.2-1.8c-2.3-1.1-4.1-2.8-5.5-4.9
			c-1.3-2-1.9-4.4-1.9-6.8c-0.1-3.1,1.1-6.1,3.2-8.4c2.3-2.4,5.4-4.1,8.7-4.6c0.8-0.2,2.7-0.6,5.8-1.2s5.7-1.2,7.9-1.7
			c2.2-0.5,4.6-1.1,7.1-1.9c-0.1-3.2-0.8-5.5-2-7c-1.1-1.5-3.5-2.2-7.1-2.2c-2.4-0.1-4.8,0.3-7,1.3c-1.6,0.9-3,2.2-4,3.8
			c-1.1,1.7-1.9,2.8-2.4,3.4s-1.4,0.8-3,0.8c-1.3,0-2.6-0.4-3.6-1.3c-1-0.8-1.5-2-1.5-3.3c0-2.2,0.9-4.4,2.3-6.1
			c1.9-2.2,4.3-3.9,7.1-4.9c3.8-1.4,7.9-2,12-1.9c5.3,0,9.5,0.6,12.6,1.9c2.9,1,5.2,3.2,6.5,5.9c1.4,3.4,2,7,1.9,10.7
			c0,2.8,0,5.2,0,7.1c0,2,0,4.1-0.1,6.5c0,2.4,0.4,4.7,1.1,7c0.6,1.5,0.9,3.1,1.1,4.7c-0.1,1.3-0.7,2.6-1.8,3.4
			c-1.1,1-2.5,1.5-4,1.5c-1.4-0.1-2.7-0.7-3.7-1.7C268,230,266.7,228.3,265.6,226.5z M264.8,209.2c-2.6,0.8-5.2,1.5-7.8,2
			c-3.4,0.7-5.8,1.2-7.1,1.6c-1.4,0.4-2.7,1.1-3.8,2c-1.2,1-1.9,2.5-1.8,4.1c0,1.8,0.7,3.5,2.1,4.6c1.5,1.3,3.5,2,5.5,1.9
			c2.3,0,4.6-0.5,6.7-1.6c1.9-0.9,3.4-2.3,4.5-4c1.1-1.8,1.7-4.8,1.7-9V209.2z"/>
		<path d="M301.3,216v10c0,2.4-0.6,4.3-1.7,5.5c-1.2,1.2-2.8,1.9-4.4,1.8c-1.6,0.1-3.2-0.6-4.3-1.8c-1.2-1.5-1.8-3.5-1.7-5.4v-33.4
			c0-5.4,2-8.1,5.9-8.1c1.7-0.2,3.3,0.6,4.4,1.9c1,1.7,1.5,3.6,1.5,5.6c1.2-2.1,2.7-4,4.5-5.6c1.8-1.3,3.9-2,6.1-1.9
			c2.6,0,5.2,0.7,7.5,1.9c2.4,1.3,3.6,2.9,3.6,5c0,1.4-0.5,2.7-1.5,3.6c-0.9,0.9-2.1,1.4-3.3,1.4c-1.1-0.2-2.2-0.4-3.2-0.8
			c-1.5-0.5-3-0.8-4.5-0.8c-1.6-0.1-3.1,0.4-4.4,1.4c-1.3,1.1-2.2,2.5-2.6,4.1c-0.7,2.1-1.1,4.3-1.3,6.5
			C301.4,209.3,301.3,212.4,301.3,216z"/>
	</g>
	<text transform="matrix(1.0948 0 0 1 322.652 233.26)" class="st2 st3">t</text>
	<polygon class="st4" points="334,224 350,224 350,224 334,224 	"/>
</g>
</svg>
