<svg id="Lag_1" data-name="Lag 1" xmlns="http://www.w3.org/2000/svg" width="1600" height="900" viewBox="0 0 1600 900"><defs><style>.cls-1{fill:#d69b74;}.cls-2{fill:#5b391a;}.cls-3{fill:#c6c6c6;}.cls-4{fill:#2d2d2d;}.cls-5{fill:#fff;}.cls-6{fill:#4c4c4c;}.cls-7{fill:#7f7f7f;}.cls-8{fill:#d8d8d8;}.cls-9{fill:#aaa;}.cls-10{fill:#f4912d;}.cls-11{fill:#cdd37d;}.cls-12{fill:#2b2b1c;}.cls-13{fill:#2b5b23;}.cls-14{fill:#94bc5b;}.cls-15{fill:#3a3a25;}.cls-16{fill:#ededb0;}.cls-17{fill:#ffd48d;}.cls-18{fill:#152230;}</style></defs><title>startskærm</title><g id="Hvid_skærm" data-name="Hvid skærm"><rect class="cls-1" width="1600" height="900"/><rect x="1488.65" y="737.06" width="29.52" height="162.94"/><rect x="146.7" y="737.06" width="14.76" height="162.94"/><rect x="1462.16" y="737.06" width="14.76" height="162.94"/></g><g id="Bord_plante" data-name="Bord plante"><rect class="cls-2" y="586.83" width="1600" height="150.23"/><rect x="106.73" y="737.06" width="29.52" height="162.94"/><polygon class="cls-3" points="431.06 716.37 193.18 716.37 209.41 687.22 412.45 687.22 431.06 716.37"/><polygon class="cls-3" points="576.42 659.7 501.81 659.7 481.01 716.37 613.56 716.37 576.42 659.7"/><path class="cls-4" d="M553.36,688.34c1.25,11.32-3.64,21.15-10.92,21.95-3.64.4-7.18-1.53-10-5a27.32,27.32,0,0,1-5.44-14,26.71,26.71,0,0,1,2.69-15.74c2-3.51,4.84-5.83,8.22-6.21a10.24,10.24,0,0,1,7.75,2.69C549.59,675.29,552.58,681.27,553.36,688.34Z"/><polygon class="cls-5" points="551.44 680.48 539.77 681.77 538.39 669.26 537.51 669.36 538.89 681.87 527.16 683.16 527.01 684.24 551.82 681.5 551.44 680.48"/></g><g id="Textbokse"><path class="cls-6" d="M396.17,602.73a8.94,8.94,0,0,1,8.46-9.39,8.15,8.15,0,0,1,1.56.06,16.06,16.06,0,1,0-.28,17.76h-.35A8.93,8.93,0,0,1,396.17,602.73Z"/><ellipse class="cls-6" cx="392.84" cy="581.49" rx="4.36" ry="1.54" transform="translate(-268.21 345.99) rotate(-36.35)"/><rect class="cls-3" x="578.12" y="367.06" width="6.11" height="226.66"/><rect class="cls-5" x="163.04" y="367.06" width="415.08" height="226.66"/><path class="cls-3" d="M584.23,593.72h-10v.11a12.6,12.6,0,0,0-1.62-.11H67.47a12.32,12.32,0,0,0-1.61.11v-.11h-10v10H56a12.32,12.32,0,0,0-.11,1.61v24.33a11.63,11.63,0,0,0,11.6,11.6H572.62a11.64,11.64,0,0,0,11.61-11.6V605.32a10.81,10.81,0,0,0-.12-1.61h.12Z"/><path class="cls-6" d="M151.43,329.88h-84a11.64,11.64,0,0,0-11.6,11.61V593.72H163V329.88Z"/><path class="cls-7" d="M572.62,329.88H163v37.18H584.23V341.49A11.65,11.65,0,0,0,572.62,329.88Z"/><rect class="cls-8" x="185.76" y="425.77" width="241.9" height="156.99"/><path class="cls-6" d="M260,641.25s3.16,32-22.15,36.89H385.22s-17.18-5-15.82-36.89Z"/><rect class="cls-4" x="55.87" y="548.34" width="107.17" height="45.38"/><path class="cls-5" d="M65,565.09v-8.43h1.27a5.57,5.57,0,0,1,1.35.13,1.86,1.86,0,0,1,.86.44,2.23,2.23,0,0,1,.56.8,2.49,2.49,0,0,1,.21,1,2,2,0,0,1-.69,1.53,2,2,0,0,1,1.06.81,2.39,2.39,0,0,1-.31,3,2.19,2.19,0,0,1-.94.58,5.35,5.35,0,0,1-1.44.16Zm1.28-4.81h.4a1.45,1.45,0,0,0,1-.32,1.41,1.41,0,0,0,0-1.83,1.49,1.49,0,0,0-1-.31h-.44Zm0,3.62h.78a2,2,0,0,0,1.27-.34,1.16,1.16,0,0,0,.43-.93,1.23,1.23,0,0,0-.41-.92,2.13,2.13,0,0,0-1.43-.37h-.64Z"/><path class="cls-5" d="M71.12,562.39a2.66,2.66,0,0,1,.83-2,2.89,2.89,0,0,1,4,0,2.81,2.81,0,0,1-2,4.81,2.74,2.74,0,0,1-2-.82A2.79,2.79,0,0,1,71.12,562.39Zm1.26,0a1.79,1.79,0,0,0,.43,1.27,1.64,1.64,0,0,0,2.3,0,2,2,0,0,0,0-2.48,1.62,1.62,0,0,0-2.29,0,1.74,1.74,0,0,0-.44,1.23Z"/><path class="cls-5" d="M77.85,562.39a2.66,2.66,0,0,1,.83-2,2.89,2.89,0,0,1,4,0,2.84,2.84,0,0,1,0,4,2.77,2.77,0,0,1-2,.81,2.8,2.8,0,0,1-2.82-2.81Zm1.26,0a1.78,1.78,0,0,0,.42,1.27,1.56,1.56,0,0,0,1.16.47,1.48,1.48,0,0,0,1.15-.47,2,2,0,0,0,0-2.48,1.52,1.52,0,0,0-1.15-.47,1.55,1.55,0,0,0-1.15.47,1.74,1.74,0,0,0-.43,1.23Z"/><path class="cls-5" d="M86.59,563.93h3.17v1.16h-5.6l3.44-4.17H84.89v-1.15H90Z"/><path class="cls-5" d="M92.18,560.92v4.17H91v-4.17h-.53v-1.15H91v-1.95h1.23v1.95h1v1.15Z"/><path class="cls-5" d="M94.16,564.48a.72.72,0,0,1,.23-.53.67.67,0,0,1,.53-.22.77.77,0,0,1,.77.75.75.75,0,0,1-.23.55.78.78,0,0,1-1.08,0A.7.7,0,0,1,94.16,564.48Z"/><path class="cls-5" d="M101.56,560v1.63a3.12,3.12,0,0,0-.75-.7,1.39,1.39,0,0,0-.77-.2,1.51,1.51,0,0,0-1.15.49,1.68,1.68,0,0,0-.46,1.22,1.74,1.74,0,0,0,.44,1.23,1.49,1.49,0,0,0,1.14.48,1.64,1.64,0,0,0,.78-.19,3,3,0,0,0,.77-.73v1.63a3.24,3.24,0,0,1-1.49.39,2.9,2.9,0,0,1-2.07-.8,2.82,2.82,0,0,1,0-4h0a2.86,2.86,0,0,1,2.07-.82A3.1,3.1,0,0,1,101.56,560Z"/><path class="cls-5" d="M102.5,562.39a2.66,2.66,0,0,1,.83-2,2.89,2.89,0,0,1,4,0,2.81,2.81,0,0,1-2,4.81,2.74,2.74,0,0,1-2-.82A2.79,2.79,0,0,1,102.5,562.39Zm1.26,0a1.79,1.79,0,0,0,.43,1.27,1.64,1.64,0,0,0,2.3,0,2,2,0,0,0,0-2.48,1.62,1.62,0,0,0-2.29,0,1.74,1.74,0,0,0-.44,1.23Z"/><path class="cls-5" d="M109.48,559.77h1.23v.49a2.43,2.43,0,0,1,.61-.5,1.42,1.42,0,0,1,.67-.14,1.64,1.64,0,0,1,1.43.79,1.83,1.83,0,0,1,1.56-.79c1.2,0,1.8.73,1.8,2.18v3.29h-1.23v-3a2.4,2.4,0,0,0-.19-1.09.7.7,0,0,0-.63-.32.82.82,0,0,0-.74.38,2.48,2.48,0,0,0-.23,1.23V565h-1.23V562.1c0-.94-.28-1.42-.82-1.42a.83.83,0,0,0-.76.39,2.35,2.35,0,0,0-.24,1.22V565h-1.23Z"/><rect class="cls-5" x="64.28" y="571.67" width="90.54" height="0.66"/><rect class="cls-5" x="64.48" y="577.48" width="90.54" height="0.66"/><rect class="cls-5" x="64.48" y="583.29" width="90.54" height="0.66"/><rect class="cls-4" x="55.87" y="503.03" width="107.17" height="45.38"/><path class="cls-5" d="M71.23,511.8v1.51a3.5,3.5,0,0,0-2.29-.93,2.93,2.93,0,0,0-2.19.94,3.15,3.15,0,0,0-.89,2.27,3.08,3.08,0,0,0,.89,2.24,3,3,0,0,0,2.2.91,2.64,2.64,0,0,0,1.14-.22,3.6,3.6,0,0,0,.55-.29,6.55,6.55,0,0,0,.59-.45v1.54a4.63,4.63,0,0,1-2.3.61,4.23,4.23,0,0,1-3.08-1.26,4.17,4.17,0,0,1-1.28-3.07,4.36,4.36,0,0,1,1.07-2.87A4.2,4.2,0,0,1,69,511.18,4.36,4.36,0,0,1,71.23,511.8Z"/><path class="cls-5" d="M76.52,514.46h1.24v5.32H76.52v-.56a2.37,2.37,0,0,1-3.46-.08,3,3,0,0,1-.71-2,2.92,2.92,0,0,1,.71-2,2.33,2.33,0,0,1,1.8-.8,2.25,2.25,0,0,1,1.66.77ZM73.6,517.1a1.88,1.88,0,0,0,.41,1.25,1.38,1.38,0,0,0,1.06.49,1.45,1.45,0,0,0,1.11-.47,1.82,1.82,0,0,0,.42-1.24,1.77,1.77,0,0,0-.42-1.23,1.37,1.37,0,0,0-1.09-.48,1.34,1.34,0,0,0-1.06.48A1.8,1.8,0,0,0,73.6,517.1Z"/><path class="cls-5" d="M79.31,514.46h1.23V515a2.43,2.43,0,0,1,.61-.5,1.42,1.42,0,0,1,.67-.14,1.62,1.62,0,0,1,1.42.79,1.85,1.85,0,0,1,1.57-.79c1.2,0,1.8.73,1.8,2.18v3.29H85.37v-3a2.35,2.35,0,0,0-.18-1.08.7.7,0,0,0-.63-.32.82.82,0,0,0-.74.38,2.48,2.48,0,0,0-.23,1.23v2.75H82.35v-2.94c0-1-.27-1.42-.82-1.42a.82.82,0,0,0-.75.39,2.35,2.35,0,0,0-.24,1.22v2.75H79.31Z"/><path class="cls-5" d="M88,512.25a.75.75,0,0,1,.23-.56.79.79,0,0,1,1.12,0h0a.74.74,0,0,1,.24.56.78.78,0,0,1-.24.57.73.73,0,0,1-.56.23.79.79,0,0,1-.8-.78Zm1.41,2.21v5.32H88.16v-5.32Z"/><path class="cls-5" d="M92.18,510.55v9.23H91v-9.23Z"/><path class="cls-5" d="M95,510.55v9.23H93.73v-9.23Z"/><path class="cls-5" d="M100.44,514.46h1.24v5.32h-1.24v-.56a2.37,2.37,0,0,1-3.34,0l-.11-.12a3,3,0,0,1-.72-2,2.84,2.84,0,0,1,.72-2,2.31,2.31,0,0,1,1.79-.8,2.25,2.25,0,0,1,1.66.77Zm-2.91,2.64a1.83,1.83,0,0,0,.41,1.25,1.32,1.32,0,0,0,1.06.49,1.43,1.43,0,0,0,1.1-.47,1.82,1.82,0,0,0,.42-1.24,1.77,1.77,0,0,0-.42-1.23,1.37,1.37,0,0,0-1.09-.48,1.34,1.34,0,0,0-1.06.48,1.81,1.81,0,0,0-.42,1.2Z"/><path class="cls-5" d="M106.62,519.78l1.78-9.07,2.9,6.56,3-6.56,1.59,9.07h-1.31l-.81-5.09-2.5,5.48-2.42-5.49-.91,5.1Z"/><path class="cls-5" d="M121.37,514.46h1.23v5.32h-1.23v-.56a2.37,2.37,0,0,1-3.35,0l-.11-.11a3,3,0,0,1-.72-2,2.84,2.84,0,0,1,.72-2,2.3,2.3,0,0,1,3.25-.21l.21.21Zm-2.92,2.64a1.83,1.83,0,0,0,.41,1.25,1.32,1.32,0,0,0,1.06.49,1.43,1.43,0,0,0,1.1-.47,1.82,1.82,0,0,0,.42-1.24,1.77,1.77,0,0,0-.42-1.23,1.37,1.37,0,0,0-1.09-.48,1.34,1.34,0,0,0-1.06.48,1.81,1.81,0,0,0-.42,1.2Z"/><path class="cls-5" d="M128.08,510.55h1.23v9.23h-1.23v-.56a2.29,2.29,0,0,1-1.65.71,2.33,2.33,0,0,1-1.81-.79,3,3,0,0,1-.72-2,2.89,2.89,0,0,1,.72-2,2.3,2.3,0,0,1,3.25-.21l.21.21Zm-2.92,6.55a1.83,1.83,0,0,0,.41,1.25,1.32,1.32,0,0,0,1.06.49,1.43,1.43,0,0,0,1.1-.47,1.82,1.82,0,0,0,.42-1.24,1.77,1.77,0,0,0-.42-1.23,1.37,1.37,0,0,0-1.09-.48,1.34,1.34,0,0,0-1.06.48A1.81,1.81,0,0,0,125.16,517.1Z"/><path class="cls-5" d="M134,515.37l-1,.54c-.16-.33-.36-.5-.6-.5a.4.4,0,0,0-.29.12.36.36,0,0,0-.12.28c0,.21.24.41.71.61a4.3,4.3,0,0,1,1.32.78,1.29,1.29,0,0,1,.34.95,1.67,1.67,0,0,1-.57,1.29,2,2,0,0,1-2.83-.13,2.22,2.22,0,0,1-.4-.68l1.05-.49a2.63,2.63,0,0,0,.33.49.78.78,0,0,0,.54.21c.42,0,.62-.19.62-.57,0-.22-.16-.43-.48-.62l-.37-.17-.38-.19a2.3,2.3,0,0,1-.75-.52,1.22,1.22,0,0,1-.28-.86,1.49,1.49,0,0,1,.48-1.14,1.65,1.65,0,0,1,2.35.05,1.57,1.57,0,0,1,.35.55Z"/><path class="cls-5" d="M140.25,517.41h-3.81a1.61,1.61,0,0,0,.42,1,1.4,1.4,0,0,0,1.73.17,3.08,3.08,0,0,0,.67-.81l1,.58a3.92,3.92,0,0,1-.51.7,3.29,3.29,0,0,1-.57.48,2.26,2.26,0,0,1-.66.28,3.94,3.94,0,0,1-.77.08,2.51,2.51,0,0,1-1.92-.76,2.89,2.89,0,0,1-.72-2,3,3,0,0,1,.7-2,2.67,2.67,0,0,1,3.73,0,3,3,0,0,1,.68,2.06Zm-1.26-1a1.18,1.18,0,0,0-1.24-1,1.2,1.2,0,0,0-.42.07,1.07,1.07,0,0,0-.36.2,1,1,0,0,0-.28.3,2.09,2.09,0,0,0-.17.41Z"/><path class="cls-5" d="M141.59,514.46h1.24V515a2,2,0,0,1,1.45-.64,1.84,1.84,0,0,1,1.45.59,2.4,2.4,0,0,1,.45,1.62v3.26h-1.24v-3a2.05,2.05,0,0,0-.21-1.09.92.92,0,0,0-.78-.31,1,1,0,0,0-.87.41,2.76,2.76,0,0,0-.25,1.39v2.57h-1.24Z"/><rect class="cls-5" x="64.08" y="525.72" width="90.54" height="0.66"/><rect class="cls-5" x="64.29" y="531.53" width="90.54" height="0.66"/><rect class="cls-5" x="64.29" y="537.34" width="90.54" height="0.66"/><rect class="cls-4" x="55.87" y="412.21" width="107.17" height="45.38"/><path class="cls-5" d="M66.27,425.53V429H65v-8.44h1.45a6.12,6.12,0,0,1,1.6.15,2.17,2.17,0,0,1,1,.56,2.41,2.41,0,0,1,.73,1.79A2.35,2.35,0,0,1,69,424.9a3.09,3.09,0,0,1-2.09.67Zm0-1.18h.47c1.17,0,1.76-.45,1.76-1.35s-.61-1.3-1.81-1.3h-.42Z"/><path class="cls-5" d="M74.43,423.64h1.23V429H74.43v-.56a2.37,2.37,0,0,1-3.35,0l-.11-.11a3,3,0,0,1-.72-2,2.84,2.84,0,0,1,.72-2,2.31,2.31,0,0,1,1.79-.8,2.27,2.27,0,0,1,1.67.77Zm-2.92,2.64a1.83,1.83,0,0,0,.41,1.25A1.36,1.36,0,0,0,73,428a1.4,1.4,0,0,0,1.1-.47,1.77,1.77,0,0,0,.42-1.23,1.82,1.82,0,0,0-.42-1.24,1.39,1.39,0,0,0-1.1-.46,1.34,1.34,0,0,0-1.06.48,1.76,1.76,0,0,0-.43,1.2Z"/><path class="cls-5" d="M78.48,424.78V429H77.25v-4.18h-.52v-1.14h.52v-1.95h1.23v1.95h1v1.14Z"/><path class="cls-5" d="M80.27,423.64H81.5v.47a2.53,2.53,0,0,1,.6-.48,1.42,1.42,0,0,1,.64-.14,2.07,2.07,0,0,1,1,.32l-.56,1.12a1.2,1.2,0,0,0-.68-.25c-.67,0-1,.51-1,1.52V429H80.27Z"/><path class="cls-5" d="M84.44,421.42a.83.83,0,0,1,.8-.79.8.8,0,0,1,.8.8.79.79,0,0,1-.8.8.8.8,0,0,1-.8-.81Zm1.42,2.22V429H84.63v-5.32Z"/><path class="cls-5" d="M91.55,423.87v1.63a2.94,2.94,0,0,0-.75-.7,1.39,1.39,0,0,0-.77-.2,1.51,1.51,0,0,0-1.15.49,1.7,1.7,0,0,0-.46,1.21,1.74,1.74,0,0,0,.44,1.23,1.63,1.63,0,0,0,1.92.29,2.78,2.78,0,0,0,.77-.72v1.62a3.24,3.24,0,0,1-1.49.39,2.89,2.89,0,0,1-2.07-.79,2.82,2.82,0,0,1,0-4h0a2.86,2.86,0,0,1,2.07-.82A3.1,3.1,0,0,1,91.55,423.87Z"/><path class="cls-5" d="M94.27,419.73v5.63L96,423.64h1.65l-2.31,2.23L97.82,429h-1.6l-1.76-2.25-.19.2v2H93v-9.23Z"/><path class="cls-5" d="M102.3,429v-8.44h1.26a5.57,5.57,0,0,1,1.35.13,2.06,2.06,0,0,1,1.42,1.25,2.28,2.28,0,0,1,.22,1,1.21,1.21,0,0,0,.36,2.34,2.23,2.23,0,0,1,.4,1.32,2.38,2.38,0,0,1-1.65,2.26,5.32,5.32,0,0,1-1.43.16Zm1.27-4.81h.4a1.45,1.45,0,0,0,1-.32,1.25,1.25,0,0,0,.33-.92,1.15,1.15,0,0,0-.3-.95,1.39,1.39,0,0,0-1-.31h-.45Zm0,3.61h.79a1.89,1.89,0,0,0,1.26-.34,1.13,1.13,0,0,0,.43-.92,1.17,1.17,0,0,0-.41-.92,2.08,2.08,0,0,0-1.43-.37h-.64Z"/><path class="cls-5" d="M112.6,423.64h1.24V429H112.6v-.56a2.37,2.37,0,0,1-3.46-.08,3,3,0,0,1-.71-2,2.88,2.88,0,0,1,.71-2,2.33,2.33,0,0,1,1.8-.8,2.25,2.25,0,0,1,1.66.77Zm-2.92,2.64a1.88,1.88,0,0,0,.41,1.25,1.34,1.34,0,0,0,1.06.48,1.39,1.39,0,0,0,1.11-.47,1.77,1.77,0,0,0,.42-1.23,1.82,1.82,0,0,0-.42-1.24,1.42,1.42,0,0,0-1.09-.47,1.34,1.34,0,0,0-1.06.48,1.76,1.76,0,0,0-.43,1.2Z"/><path class="cls-5" d="M115.39,423.64h1.23v.49a2,2,0,0,1,1.46-.64,1.86,1.86,0,0,1,1.45.58,2.49,2.49,0,0,1,.44,1.63V429h-1.23v-3a1.87,1.87,0,0,0-.22-1.09.88.88,0,0,0-.78-.31.94.94,0,0,0-.86.41,2.66,2.66,0,0,0-.26,1.39V429h-1.23Z"/><path class="cls-5" d="M126.67,428.83v.67a4.29,4.29,0,0,1-.07.5,2.38,2.38,0,0,1-.51,1,2.53,2.53,0,0,1-2,.83,2.59,2.59,0,0,1-1.75-.58,2.31,2.31,0,0,1-.82-1.63h1.23a1.47,1.47,0,0,0,.24.61,1.29,1.29,0,0,0,1.11.49q1.35,0,1.35-1.65v-.75a2.34,2.34,0,0,1-3.32.15l-.15-.15a3,3,0,0,1-.7-2,3.14,3.14,0,0,1,.65-2,2.29,2.29,0,0,1,1.85-.86,2.15,2.15,0,0,1,1.67.75v-.6h1.23Zm-1.18-2.52a1.81,1.81,0,0,0-.41-1.24,1.37,1.37,0,0,0-1.08-.48,1.34,1.34,0,0,0-1.1.52,1.89,1.89,0,0,0-.37,1.21,1.82,1.82,0,0,0,.37,1.19,1.3,1.3,0,0,0,1.1.5,1.36,1.36,0,0,0,1.12-.51A1.82,1.82,0,0,0,125.49,426.31Z"/><rect class="cls-5" x="64.08" y="434.9" width="90.54" height="0.66"/><rect class="cls-5" x="64.29" y="440.71" width="90.54" height="0.66"/><rect class="cls-5" x="64.29" y="446.51" width="90.54" height="0.66"/><rect class="cls-9" x="55.87" y="366.83" width="107.17" height="45.38"/><path class="cls-5" d="M69.76,376.4l-1,.62a1.76,1.76,0,0,0-.55-.66,1.26,1.26,0,0,0-.71-.18,1.34,1.34,0,0,0-.88.3,1,1,0,0,0-.34.75c0,.41.3.74.91,1l.84.35a3.58,3.58,0,0,1,1.51,1,2.35,2.35,0,0,1,.47,1.47,2.61,2.61,0,0,1-.77,1.92,2.67,2.67,0,0,1-1.94.77,2.63,2.63,0,0,1-1.82-.65,3,3,0,0,1-.88-1.84l1.29-.28a2.21,2.21,0,0,0,.31,1,1.33,1.33,0,0,0,1.15.54,1.34,1.34,0,0,0,1.39-1.39,1.22,1.22,0,0,0-.28-.82A1.41,1.41,0,0,0,68,380a3.45,3.45,0,0,0-.54-.28l-.82-.34c-1.15-.49-1.73-1.2-1.73-2.14a2,2,0,0,1,.73-1.59,2.62,2.62,0,0,1,1.81-.65A2.52,2.52,0,0,1,69.76,376.4Z"/><path class="cls-5" d="M72.51,374.35V380l1.73-1.72h1.65l-2.31,2.24,2.48,3.08H74.47l-1.76-2.24-.2.19v2.05H71.28v-9.23Z"/><path class="cls-5" d="M80.59,378.26h1.23v5.32H80.59V383a2.34,2.34,0,0,1-3.32.06l-.14-.14a3,3,0,0,1-.72-2,2.84,2.84,0,0,1,.72-2,2.31,2.31,0,0,1,1.79-.8,2.27,2.27,0,0,1,1.67.77Zm-2.92,2.64a1.88,1.88,0,0,0,.41,1.25,1.32,1.32,0,0,0,1.06.49,1.43,1.43,0,0,0,1.1-.47,1.82,1.82,0,0,0,.42-1.24,1.77,1.77,0,0,0-.42-1.23,1.44,1.44,0,0,0-2-.12l-.12.12a1.81,1.81,0,0,0-.42,1.2Z"/><path class="cls-5" d="M84.64,379.41v4.17H83.41v-4.17h-.52v-1.15h.52v-1.95h1.23v1.95h1v1.15Z"/><path class="cls-5" d="M95.31,376.09v1.25l-4.14,2,4.14,2v1.24l-5.49-2.68v-1.07Z"/><path class="cls-5" d="M98.91,379.66v-1.08a2.26,2.26,0,0,0,1.09-.18,1.13,1.13,0,0,0,.5-1,1.17,1.17,0,0,0-.36-.88,1.32,1.32,0,0,0-.93-.34,1.19,1.19,0,0,0-.81.25,1.68,1.68,0,0,0-.42.89H96.71a2.88,2.88,0,0,1,.81-1.75,2.46,2.46,0,0,1,1.71-.55,2.58,2.58,0,0,1,1.81.65,2.22,2.22,0,0,1,.7,1.68,2.06,2.06,0,0,1-.92,1.8,2.17,2.17,0,0,1,1.05,2,2.42,2.42,0,0,1-.76,1.86,2.72,2.72,0,0,1-2,.72,2.52,2.52,0,0,1-2.26-1.12,3,3,0,0,1-.39-1.3h1.23a1.56,1.56,0,0,0,.48.94,1.5,1.5,0,0,0,1,.32,1.34,1.34,0,0,0,1-.41,1.49,1.49,0,0,0,.41-1.06,1.3,1.3,0,0,0-.61-1.22A2.15,2.15,0,0,0,98.91,379.66Z"/><path class="cls-5" d="M105.82,379.66v-1.08a2.26,2.26,0,0,0,1.09-.18,1.13,1.13,0,0,0,.5-1,1.17,1.17,0,0,0-.36-.88,1.32,1.32,0,0,0-.93-.34,1.21,1.21,0,0,0-.82.25,1.74,1.74,0,0,0-.41.89h-1.27a2.88,2.88,0,0,1,.81-1.75,2.46,2.46,0,0,1,1.71-.55,2.58,2.58,0,0,1,1.81.65,2.24,2.24,0,0,1,.7,1.68,2.06,2.06,0,0,1-.92,1.8,2.17,2.17,0,0,1,1,2A2.43,2.43,0,0,1,108,383a2.72,2.72,0,0,1-2,.72,2.52,2.52,0,0,1-2.26-1.12,3,3,0,0,1-.39-1.3h1.23a1.37,1.37,0,0,0,1.47,1.26,1.39,1.39,0,0,0,1-.41,1.49,1.49,0,0,0,.41-1.06,1.32,1.32,0,0,0-.61-1.22A2.27,2.27,0,0,0,105.82,379.66Z"/><rect class="cls-5" x="64.08" y="389.52" width="90.54" height="0.66"/><rect class="cls-5" x="64.29" y="395.33" width="90.54" height="0.66"/><rect class="cls-5" x="64.29" y="401.14" width="90.54" height="0.66"/><rect class="cls-4" x="55.87" y="457.59" width="107.17" height="45.38"/><path class="cls-5" d="M67.85,470.74l2.61,3.6H68.91l-2.41-3.46h-.23v3.46H65V465.9h1.5a3.75,3.75,0,0,1,2.41.63,2.31,2.31,0,0,1,.82,1.85,2.44,2.44,0,0,1-.51,1.54A2.3,2.3,0,0,1,67.85,470.74Zm-1.58-1h.4c1.21,0,1.81-.46,1.81-1.38s-.59-1.29-1.76-1.29h-.45Z"/><path class="cls-5" d="M76.16,472H72.35a1.61,1.61,0,0,0,.42,1,1.32,1.32,0,0,0,1,.38,1.21,1.21,0,0,0,.76-.22,2.9,2.9,0,0,0,.67-.81l1,.58a3.86,3.86,0,0,1-.51.71,3.29,3.29,0,0,1-.57.48,2.7,2.7,0,0,1-.66.27,3.31,3.31,0,0,1-.77.09,2.49,2.49,0,0,1-1.91-.76,2.91,2.91,0,0,1-.73-2.05,3,3,0,0,1,.7-2,2.4,2.4,0,0,1,1.87-.77,2.37,2.37,0,0,1,1.86.75,3,3,0,0,1,.68,2.06Zm-1.26-1a1.18,1.18,0,0,0-1.24-1,1.2,1.2,0,0,0-.42.07,1.24,1.24,0,0,0-.36.19,1.14,1.14,0,0,0-.27.31,1.5,1.5,0,0,0-.18.41Z"/><path class="cls-5" d="M77.32,466.8a.8.8,0,1,1,1.37.58.81.81,0,0,1-.57.23.8.8,0,0,1-.8-.81Zm1.42,2.2v8.21H77.51V469Z"/><path class="cls-5" d="M83.39,469.92l-1,.54c-.16-.32-.36-.49-.6-.49a.44.44,0,0,0-.29.11.38.38,0,0,0-.12.29c0,.2.24.41.71.61a4.28,4.28,0,0,1,1.32.77,1.31,1.31,0,0,1,.34,1,1.69,1.69,0,0,1-.57,1.29,2,2,0,0,1-2.82-.14,2.06,2.06,0,0,1-.41-.68l1-.48a1.82,1.82,0,0,0,.34.48.7.7,0,0,0,.53.21c.42,0,.62-.19.62-.57,0-.21-.16-.42-.48-.61l-.37-.18-.38-.18a2.3,2.3,0,0,1-.75-.52,1.22,1.22,0,0,1-.28-.86,1.53,1.53,0,0,1,.48-1.15,1.66,1.66,0,0,1,1.18-.45A1.61,1.61,0,0,1,83.39,469.92Z"/><path class="cls-5" d="M89.68,472H85.87a1.61,1.61,0,0,0,.42,1,1.29,1.29,0,0,0,1,.38,1.21,1.21,0,0,0,.76-.22,2.9,2.9,0,0,0,.67-.81l1,.58a3.86,3.86,0,0,1-.51.71,3.29,3.29,0,0,1-.57.48,2.7,2.7,0,0,1-.66.27,3.31,3.31,0,0,1-.77.09,2.51,2.51,0,0,1-1.92-.76,2.9,2.9,0,0,1-.72-2.05,3,3,0,0,1,.7-2,2.67,2.67,0,0,1,3.73,0,3,3,0,0,1,.68,2.06Zm-1.26-1a1.18,1.18,0,0,0-1.24-1,1.2,1.2,0,0,0-.42.07,1.24,1.24,0,0,0-.36.19,1.38,1.38,0,0,0-.28.31A1.62,1.62,0,0,0,86,471Z"/><path class="cls-5" d="M92.25,465.11v5.63L94,469h1.65l-2.31,2.23,2.48,3.09h-1.6l-1.76-2.25-.2.2v2H91V465Z"/><path class="cls-5" d="M96.12,471.64a2.66,2.66,0,0,1,.83-2,2.91,2.91,0,0,1,4,0,2.86,2.86,0,0,1,0,4,2.8,2.8,0,0,1-2,.8,2.69,2.69,0,0,1-2-.82A2.79,2.79,0,0,1,96.12,471.64Zm1.26,0a1.76,1.76,0,0,0,.43,1.26,1.48,1.48,0,0,0,1.15.47,1.51,1.51,0,0,0,1.15-.46,2,2,0,0,0,0-2.48,1.62,1.62,0,0,0-2.29,0,1.65,1.65,0,0,0-.44,1.23Z"/><path class="cls-5" d="M103.1,469h1.23v.47a2.58,2.58,0,0,1,.6-.49,1.37,1.37,0,0,1,.63-.13,1.88,1.88,0,0,1,1,.32l-.56,1.12a1.17,1.17,0,0,0-.69-.25c-.67,0-1,.51-1,1.52v2.76H103.1Z"/><path class="cls-5" d="M109,470.16v4.18h-1.23v-4.18h-.53V469h.53v-1.95H109V469h1v1.14Z"/><path class="cls-5" d="M119.39,472.29h-3.61l-.94,2h-1.37l4.18-9,4,9h-1.39Zm-.51-1.2-1.26-2.87-1.31,2.87Z"/><path class="cls-5" d="M126.46,465l1,.44-4.83,11.18-1-.45Z"/><path class="cls-5" d="M133.29,467.16l-1,.61a1.86,1.86,0,0,0-.55-.66,1.32,1.32,0,0,0-.7-.17,1.29,1.29,0,0,0-.88.3.9.9,0,0,0-.35.74c0,.41.3.75.91,1l.85.34a3.64,3.64,0,0,1,1.5,1,2.26,2.26,0,0,1,.47,1.46,2.63,2.63,0,0,1-.77,1.93,2.66,2.66,0,0,1-1.94.76,2.63,2.63,0,0,1-1.82-.65,3,3,0,0,1-.88-1.83l1.29-.28a2.21,2.21,0,0,0,.31,1,1.31,1.31,0,0,0,1.15.55,1.34,1.34,0,0,0,1-.4,1.39,1.39,0,0,0,.39-1,1.37,1.37,0,0,0-.07-.45A1.28,1.28,0,0,0,132,471a2,2,0,0,0-.38-.32,3.5,3.5,0,0,0-.54-.29l-.82-.34a2.34,2.34,0,0,1-1.73-2.14,2,2,0,0,1,.73-1.59,2.57,2.57,0,0,1,1.81-.64A2.49,2.49,0,0,1,133.29,467.16Z"/><rect class="cls-5" x="64.08" y="480.27" width="90.54" height="0.66"/><rect class="cls-5" x="64.29" y="486.08" width="90.54" height="0.66"/><rect class="cls-5" x="64.29" y="491.89" width="90.54" height="0.66"/><rect class="cls-8" x="185.76" y="376.77" width="241.9" height="37.77"/><path d="M194.7,386.46h2.43v-2.2H198v5.63h-.85v-2.63H194.7v2.63h-.85v-5.63h.85Z"/><path d="M202.4,388.31h-2.54a1,1,0,0,0,.28.69.88.88,0,0,0,.65.26.82.82,0,0,0,.5-.15,2.31,2.31,0,0,0,.45-.54l.69.39a3.12,3.12,0,0,1-.34.47,2,2,0,0,1-.38.32,1.85,1.85,0,0,1-.44.18,2.22,2.22,0,0,1-.51.06,1.66,1.66,0,0,1-1.28-.51,1.93,1.93,0,0,1-.48-1.36,2,2,0,0,1,.47-1.37,1.76,1.76,0,0,1,2.48,0,1.94,1.94,0,0,1,.45,1.37Zm-.84-.67a.79.79,0,0,0-.83-.66.66.66,0,0,0-.28,0,.86.86,0,0,0-.42.33,1.39,1.39,0,0,0-.12.28Z"/><path d="M204.29,389.23l-1.6-2.89h.95l1.09,2,1-2h.92l-2.82,5.48h-.94Z"/><path d="M211.59,386.94l-.68.36c-.11-.21-.24-.32-.4-.32a.26.26,0,0,0-.19.07.21.21,0,0,0-.08.19c0,.14.16.27.47.41a2.78,2.78,0,0,1,.88.51.89.89,0,0,1,.23.64,1.13,1.13,0,0,1-.38.86,1.36,1.36,0,0,1-1.92-.14,1.47,1.47,0,0,1-.24-.4l.7-.33a1.5,1.5,0,0,0,.23.33.5.5,0,0,0,.35.14c.28,0,.42-.13.42-.38s-.11-.28-.32-.41l-.25-.12-.25-.12a1.46,1.46,0,0,1-.5-.35.84.84,0,0,1-.19-.57,1,1,0,0,1,.32-.77,1.12,1.12,0,0,1,1.58.06A1,1,0,0,1,211.59,386.94Z"/><path d="M213.37,383.73v3.76l1.16-1.15h1.1l-1.55,1.49,1.66,2.06h-1.07l-1.17-1.5-.13.13v1.37h-.82v-6.16Z"/><path d="M218.75,386.34h.83v3.55h-.83v-.37a1.57,1.57,0,0,1-2.3-.06,2,2,0,0,1-.48-1.36,1.92,1.92,0,0,1,.48-1.33,1.56,1.56,0,0,1,1.19-.53,1.47,1.47,0,0,1,1.11.51Zm-1.94,1.76a1.24,1.24,0,0,0,.27.83.92.92,0,0,0,.71.33,1,1,0,0,0,.74-.32,1.35,1.35,0,0,0,0-1.64,1,1,0,0,0-1.44,0A1.17,1.17,0,0,0,216.81,388.1Z"/><path d="M221.46,387.1v2.79h-.82V387.1h-.35v-.76h.35V385h.82v1.3h.64v.76Z"/><path d="M223.16,388.83l.73.29-1,2.08-.55-.23Z"/><path d="M228.1,387.1v2.79h-.82V387.1h-.35v-.76h.35V385h.82v1.3h.64v.76Z"/><path d="M229.17,384.86a.52.52,0,0,1,.16-.37.51.51,0,0,1,.37-.15.54.54,0,0,1,.38.15.47.47,0,0,1,.16.38.55.55,0,0,1-.16.38.51.51,0,0,1-.37.15.54.54,0,0,1-.38-.15A.55.55,0,0,1,229.17,384.86Zm1,1.48v3.55h-.82v-3.55Z"/><path d="M232,383.73v6.16h-.82v-6.16Z"/><path d="M233.83,383.73v6.16H233v-6.16Z"/><path d="M236.05,389.23l-1.59-2.89h.95l1.08,2,1-2h.92l-2.82,5.48h-.94Z"/><path d="M239.81,383.73v3.76l1.15-1.15h1.1l-1.54,1.49,1.66,2.06h-1.07l-1.17-1.5-.13.13v1.37H239v-6.16Z"/><path d="M243.53,383.73v3.76l1.15-1.15h1.1l-1.54,1.49,1.65,2.06h-1.06l-1.17-1.5-.13.13v1.37h-.82v-6.16Z"/><path d="M249.53,388.31H247a1.09,1.09,0,0,0,.28.69.88.88,0,0,0,.65.26.82.82,0,0,0,.5-.15,1.8,1.8,0,0,0,.45-.54l.69.39a2.21,2.21,0,0,1-.33.47,2.37,2.37,0,0,1-.39.32,1.85,1.85,0,0,1-.44.18,2.22,2.22,0,0,1-.51.06,1.66,1.66,0,0,1-1.28-.51,1.93,1.93,0,0,1-.48-1.36,2,2,0,0,1,.47-1.37,1.63,1.63,0,0,1,1.25-.51,1.59,1.59,0,0,1,1.23.5,2,2,0,0,1,.46,1.37Zm-.84-.67a.78.78,0,0,0-.83-.66.66.66,0,0,0-.28,0,.92.92,0,0,0-.24.13.7.7,0,0,0-.18.2,1.39,1.39,0,0,0-.12.28Z"/><path d="M252.73,386.34h.82v.33a1.85,1.85,0,0,1,.4-.34,1,1,0,0,1,.45-.09,1.09,1.09,0,0,1,.95.53,1.25,1.25,0,0,1,1-.53c.8,0,1.2.49,1.2,1.45v2.2h-.83v-2a1.52,1.52,0,0,0-.12-.73.46.46,0,0,0-.42-.21.54.54,0,0,0-.49.25,1.59,1.59,0,0,0-.16.83v1.83h-.82v-2c0-.63-.18-.95-.55-.95a.55.55,0,0,0-.5.26,1.55,1.55,0,0,0-.16.82v1.83h-.82Z"/><path d="M261.86,388.31h-2.54a1.09,1.09,0,0,0,.28.69.88.88,0,0,0,.65.26.85.85,0,0,0,.51-.15,1.9,1.9,0,0,0,.44-.54l.7.39a3.12,3.12,0,0,1-.34.47,2.37,2.37,0,0,1-.39.32,1.85,1.85,0,0,1-.44.18,2.22,2.22,0,0,1-.51.06,1.7,1.7,0,0,1-1.28-.51,1.93,1.93,0,0,1-.48-1.36,2,2,0,0,1,.47-1.37,1.63,1.63,0,0,1,1.25-.51,1.59,1.59,0,0,1,1.23.5,2,2,0,0,1,.46,1.37Zm-.84-.67a.78.78,0,0,0-.83-.66.66.66,0,0,0-.28,0,.76.76,0,0,0-.23.13.61.61,0,0,0-.19.2,1.39,1.39,0,0,0-.12.28Z"/><path d="M265.37,383.73h.83v6.16h-.83v-.37a1.51,1.51,0,0,1-1.09.47,1.56,1.56,0,0,1-1.21-.53,2,2,0,0,1-.48-1.36,1.88,1.88,0,0,1,.48-1.32,1.52,1.52,0,0,1,2.14-.16l.16.16Zm-1.94,4.37a1.24,1.24,0,0,0,.27.83.89.89,0,0,0,.71.33,1,1,0,0,0,.74-.32,1.35,1.35,0,0,0,0-1.64.92.92,0,0,0-.73-.32.9.9,0,0,0-.71.32A1.17,1.17,0,0,0,263.43,388.1Z"/><path d="M272.15,383.73H273v6.16h-.82v-.37a1.54,1.54,0,0,1-1.1.47,1.6,1.6,0,0,1-1.21-.53,2,2,0,0,1-.47-1.36,1.9,1.9,0,0,1,.47-1.32,1.54,1.54,0,0,1,1.2-.54,1.51,1.51,0,0,1,1.11.51Zm-1.95,4.37a1.25,1.25,0,0,0,.28.83.87.87,0,0,0,.7.33,1,1,0,0,0,.74-.32,1.35,1.35,0,0,0,0-1.64,1,1,0,0,0-1.44,0,1.17,1.17,0,0,0-.28.8Z"/><path d="M277.24,388.31H274.7a1,1,0,0,0,.28.69.86.86,0,0,0,.64.26.79.79,0,0,0,.51-.15,2.31,2.31,0,0,0,.45-.54l.69.39a3.12,3.12,0,0,1-.34.47,2,2,0,0,1-.38.32,1.85,1.85,0,0,1-.44.18,2.22,2.22,0,0,1-.51.06,1.66,1.66,0,0,1-1.28-.51,1.93,1.93,0,0,1-.48-1.36,2,2,0,0,1,.47-1.37,1.76,1.76,0,0,1,2.48,0,1.94,1.94,0,0,1,.45,1.37Zm-.84-.67a.79.79,0,0,0-.83-.66.66.66,0,0,0-.28,0,.86.86,0,0,0-.42.33,1.39,1.39,0,0,0-.12.28Z"/><path d="M281.94,385.06h-1l.46-.8h1.36v5.63h-.85Z"/><path d="M286.8,384.07l.62.46-1.34,1.83h.3a1.59,1.59,0,0,1,1.19.53,1.74,1.74,0,0,1,.49,1.24,1.89,1.89,0,0,1-1.87,1.88,1.94,1.94,0,0,1-1.35-.54,1.75,1.75,0,0,1-.56-1.29,2.36,2.36,0,0,1,.55-1.41Zm.43,4.09a1,1,0,0,0-.31-.76,1,1,0,0,0-.75-.31,1.05,1.05,0,0,0-1.06,1.06,1,1,0,0,0,.31.75,1.07,1.07,0,0,0,1.5,0h0a1,1,0,0,0,.31-.74Z"/><path d="M293.91,386.34h.82v3.55h-.82v-.37a1.58,1.58,0,0,1-2.23,0,.6.6,0,0,1-.08-.08,2,2,0,0,1-.48-1.36,1.92,1.92,0,0,1,.48-1.33,1.56,1.56,0,0,1,1.2-.53,1.51,1.51,0,0,1,1.11.51Zm-2,1.76a1.15,1.15,0,0,0,.28.83.87.87,0,0,0,.7.33,1,1,0,0,0,.74-.32,1.35,1.35,0,0,0,0-1.64.94.94,0,0,0-.63-.3.93.93,0,0,0-.71.32,1.18,1.18,0,0,0-.29.78Zm.28-3.11a.72.72,0,0,1,.24-.55.8.8,0,0,1,1.13,0,.79.79,0,0,1,.22.53.78.78,0,0,1-.24.56.71.71,0,0,1-.55.23.77.77,0,0,1-.57-.23.82.82,0,0,1-.18-.56Zm.44,0a.34.34,0,0,0,.1.27.4.4,0,0,0,.26.1.39.39,0,0,0,.25-.1.36.36,0,0,0,0-.51h0a.35.35,0,0,0-.25-.1h-.14a.2.2,0,0,0-.12.08.44.44,0,0,0-.08.11.47.47,0,0,0,0,.17Z"/><path d="M295.77,386.34h.81v.32a1.86,1.86,0,0,1,.41-.33,1,1,0,0,1,.42-.09,1.36,1.36,0,0,1,.68.21l-.38.75a.83.83,0,0,0-.45-.17c-.45,0-.68.34-.68,1v1.84h-.81Z"/><path d="M298.29,389.48a.52.52,0,0,1,.5-.5.48.48,0,0,1,.36.15.47.47,0,0,1,.15.35.51.51,0,0,1-.51.51.53.53,0,0,1-.36-.15A.45.45,0,0,1,298.29,389.48Z"/><path d="M193.85,398.84v-6l4.1,4.29v-3.9h.85v6L194.7,395v3.94Z"/><path d="M200.9,395.29v2c0,.59.23.88.69.88s.7-.29.7-.88v-2h.82v2.06a2.27,2.27,0,0,1-.11.73,1.11,1.11,0,0,1-.35.5,1.73,1.73,0,0,1-2.11,0,1.28,1.28,0,0,1-.36-.5,2,2,0,0,1-.1-.73v-2.06Z"/><path d="M207.27,392.69v3a1.47,1.47,0,0,1,1.11-.51,1.54,1.54,0,0,1,1.2.54,1.9,1.9,0,0,1,.47,1.32,2,2,0,0,1-.48,1.36,1.58,1.58,0,0,1-2.22.14.6.6,0,0,0-.08-.08v.37h-.82v-6.15Zm1.94,4.4a1.24,1.24,0,0,0-.27-.83.89.89,0,0,0-.71-.33.92.92,0,0,0-.73.32,1.17,1.17,0,0,0-.28.82,1.13,1.13,0,0,0,.28.82,1,1,0,0,0,1.41,0l0,0A1.17,1.17,0,0,0,209.21,397.09Z"/><path d="M214.15,397.26h-2.54a1,1,0,0,0,.28.69.88.88,0,0,0,.65.26.82.82,0,0,0,.5-.15,2,2,0,0,0,.45-.54l.69.39a2.25,2.25,0,0,1-.34.47,1.44,1.44,0,0,1-.38.32,1.85,1.85,0,0,1-.44.18,2.22,2.22,0,0,1-.51.06,1.66,1.66,0,0,1-1.28-.51,1.93,1.93,0,0,1-.48-1.36,2,2,0,0,1,.47-1.36,1.76,1.76,0,0,1,2.48,0,2,2,0,0,1,.45,1.38Zm-.84-.67a.79.79,0,0,0-.83-.66.87.87,0,0,0-.28.05.7.7,0,0,0-.24.13.91.91,0,0,0-.18.21,1.31,1.31,0,0,0-.12.27Z"/><path d="M215.05,392.69h.82v2.9a1.38,1.38,0,0,1,1-.4,1.22,1.22,0,0,1,1,.39,1.6,1.6,0,0,1,.31,1.08v2.18h-.82v-2.1a1,1,0,0,0-.15-.62.58.58,0,0,0-.49-.19.67.67,0,0,0-.6.27,1.72,1.72,0,0,0-.17.92v1.72h-.82Z"/><path d="M222,395.54l.56-.55.37.39-.55.53a1.9,1.9,0,0,1,.4,1.17,1.86,1.86,0,0,1-1.86,1.86h0a1.92,1.92,0,0,1-1.18-.37l-.54.52-.37-.38.53-.53a2,2,0,0,1-.35-1.12,1.77,1.77,0,0,1,.55-1.32,1.83,1.83,0,0,1,1.34-.55A2,2,0,0,1,222,395.54Zm-.6.56a1,1,0,0,0-.51-.11,1,1,0,0,0-.77.3,1,1,0,0,0-.29.79,1.4,1.4,0,0,0,.11.53Zm.39.37-1.5,1.53a1.13,1.13,0,0,0,.57.15,1,1,0,0,0,.77-.3,1.07,1.07,0,0,0,.29-.78,1.24,1.24,0,0,0-.15-.6Z"/><path d="M224.06,395.29l.92,2,.91-2h.93L225,399.08l-1.83-3.79Z"/><path d="M230.47,397.26h-2.54a1.09,1.09,0,0,0,.28.69.88.88,0,0,0,.65.26.85.85,0,0,0,.51-.15,1.77,1.77,0,0,0,.44-.54l.7.39a3.12,3.12,0,0,1-.34.47,2,2,0,0,1-.38.32,1.77,1.77,0,0,1-.45.18,2.22,2.22,0,0,1-.51.06,1.67,1.67,0,0,1-1.27-.51,1.85,1.85,0,0,1-.49-1.36,2,2,0,0,1,.47-1.36,1.77,1.77,0,0,1,2.49,0,2,2,0,0,1,.45,1.38Zm-.84-.67a.78.78,0,0,0-.82-.66.93.93,0,0,0-.29.05.76.76,0,0,0-.23.13.64.64,0,0,0-.19.21.81.81,0,0,0-.11.27Z"/><path d="M231.37,395.29h.82v.32a1.6,1.6,0,0,1,.4-.33,1,1,0,0,1,.42-.09,1.36,1.36,0,0,1,.68.21l-.38.75a.75.75,0,0,0-.45-.16c-.45,0-.67.33-.67,1v1.84h-.82Z"/><path d="M236.34,393.82a.55.55,0,0,1,.16-.38.51.51,0,0,1,.37-.15.53.53,0,0,1,.39.9h0a.55.55,0,0,1-.38.16.52.52,0,0,1-.37-.16A.55.55,0,0,1,236.34,393.82Zm.94,1.47v5.48h-.82v-5.48Z"/><path d="M241.55,397.26H239a1,1,0,0,0,.28.69.88.88,0,0,0,.65.26.82.82,0,0,0,.5-.15,2,2,0,0,0,.45-.54l.69.39a3.06,3.06,0,0,1-.33.47,1.52,1.52,0,0,1-.39.32,1.85,1.85,0,0,1-.44.18,2.22,2.22,0,0,1-.51.06,1.66,1.66,0,0,1-1.28-.51,1.93,1.93,0,0,1-.48-1.36,2,2,0,0,1,.47-1.36,1.76,1.76,0,0,1,2.48,0,2,2,0,0,1,.45,1.38Zm-.84-.67a.78.78,0,0,0-.83-.66.87.87,0,0,0-.28.05.7.7,0,0,0-.24.13.91.91,0,0,0-.18.21,1.31,1.31,0,0,0-.12.27Z"/><path d="M245.88,398.76v.44a1.82,1.82,0,0,1,0,.33,1.51,1.51,0,0,1-.35.69,1.66,1.66,0,0,1-1.32.56,1.83,1.83,0,0,1-1.17-.38,1.59,1.59,0,0,1-.54-1.09h.82a.83.83,0,0,0,.16.4.85.85,0,0,0,.74.33c.6,0,.9-.37.9-1.1v-.5a1.52,1.52,0,0,1-1.13.5,1.48,1.48,0,0,1-1.18-.52,1.91,1.91,0,0,1-.47-1.33,2,2,0,0,1,.43-1.32,1.52,1.52,0,0,1,1.23-.58,1.45,1.45,0,0,1,1.12.5v-.4h.82Zm-.79-1.69a1.13,1.13,0,0,0-.28-.82,1,1,0,0,0-1.45,0,1.31,1.31,0,0,0-.24.81,1.25,1.25,0,0,0,.24.79,1,1,0,0,0,1.48,0,1.21,1.21,0,0,0,.25-.8Z"/><path d="M249.09,393.82a.55.55,0,0,1,.16-.38.51.51,0,0,1,.37-.15.53.53,0,0,1,.39.9h0a.52.52,0,0,1-.37.16.55.55,0,0,1-.54-.54Zm.94,1.47v3.55h-.82v-3.55Z"/><path d="M251.89,392.69v3.75l1.16-1.15h1.1l-1.54,1.49,1.65,2.06H253.2l-1.18-1.5-.13.13v1.37h-.82v-6.15Z"/><path d="M255.61,392.69v3.75l1.15-1.15h1.1l-1.54,1.49,1.66,2.06h-1.07l-1.17-1.5-.13.13v1.37h-.82v-6.15Z"/><path d="M261.62,397.26h-2.55a1,1,0,0,0,.29.69.86.86,0,0,0,.64.26.85.85,0,0,0,.51-.15,2,2,0,0,0,.45-.54l.69.39a3.12,3.12,0,0,1-.34.47,1.56,1.56,0,0,1-.82.5,2.24,2.24,0,0,1-.52.06,1.67,1.67,0,0,1-1.27-.51,1.93,1.93,0,0,1-.48-1.36,2,2,0,0,1,.46-1.36,1.77,1.77,0,0,1,2.49,0,2,2,0,0,1,.45,1.38Zm-.85-.67a.78.78,0,0,0-.82-.66.87.87,0,0,0-.28.05.7.7,0,0,0-.24.13.76.76,0,0,0-.19.21.81.81,0,0,0-.11.27Z"/><path d="M267.43,395.29h.82v3.55h-.82v-.37a1.58,1.58,0,0,1-2.23,0l-.08-.08a2,2,0,0,1-.47-1.36,1.88,1.88,0,0,1,.47-1.32,1.54,1.54,0,0,1,1.2-.54,1.51,1.51,0,0,1,1.11.51Zm-1.95,1.76a1.29,1.29,0,0,0,.28.84.89.89,0,0,0,.7.32,1,1,0,0,0,.74-.31,1.37,1.37,0,0,0,0-1.65,1,1,0,0,0-1.44,0,1.3,1.3,0,0,0-.28.8Z"/><path d="M270.13,396.06v2.78h-.82v-2.78H269v-.77h.35V394h.82v1.3h.64v.77Z"/><path d="M274.45,392.69v3.75l1.15-1.15h1.1l-1.54,1.49,1.66,2.06h-1.07l-1.17-1.5-.13.13v1.37h-.82v-6.15Z"/><path d="M280.18,395.54l.56-.55.37.39-.54.53a2.06,2.06,0,0,1,.4,1.17,1.78,1.78,0,0,1-.55,1.32,1.82,1.82,0,0,1-1.34.54,1.9,1.9,0,0,1-1.17-.37l-.54.52-.38-.38.54-.53a2,2,0,0,1-.35-1.12,1.77,1.77,0,0,1,.55-1.32,1.83,1.83,0,0,1,1.34-.55A2,2,0,0,1,280.18,395.54Zm-.59.56a1,1,0,0,0-.52-.11,1,1,0,0,0-.77.3,1.09,1.09,0,0,0-.29.79,1.21,1.21,0,0,0,.12.53Zm.39.37L278.5,398a1.13,1.13,0,0,0,.57.15,1,1,0,0,0,.77-.3,1.1,1.1,0,0,0,.28-.78,1.24,1.24,0,0,0-.12-.6Z"/><path d="M282.65,392.69v3a1.51,1.51,0,0,1,1.11-.51,1.54,1.54,0,0,1,1.2.54,1.88,1.88,0,0,1,.47,1.32,2,2,0,0,1-.48,1.36,1.58,1.58,0,0,1-2.22.14l-.08-.08v.37h-.82v-6.15Zm2,4.4a1.25,1.25,0,0,0-.28-.83.9.9,0,0,0-.7-.33,1,1,0,0,0-.74.32,1.17,1.17,0,0,0-.28.82,1.13,1.13,0,0,0,.28.82.92.92,0,0,0,.73.32.86.86,0,0,0,.7-.32,1.15,1.15,0,0,0,.24-.8Z"/><path d="M289.53,397.26H287a1.09,1.09,0,0,0,.28.69.88.88,0,0,0,.65.26.85.85,0,0,0,.51-.15,1.77,1.77,0,0,0,.44-.54l.7.39a3.12,3.12,0,0,1-.34.47,1.52,1.52,0,0,1-.39.32,1.85,1.85,0,0,1-.44.18,2.22,2.22,0,0,1-.51.06,1.7,1.7,0,0,1-1.28-.51,1.93,1.93,0,0,1-.48-1.36,2,2,0,0,1,.47-1.36,1.76,1.76,0,0,1,2.48,0,1.93,1.93,0,0,1,.46,1.38Zm-.84-.67a.78.78,0,0,0-.83-.66.87.87,0,0,0-.28.05.76.76,0,0,0-.23.13.64.64,0,0,0-.19.21,1.31,1.31,0,0,0-.12.27Z"/><path d="M295.35,395.29h.82v3.55h-.82v-.37a1.58,1.58,0,0,1-2.23,0l-.08-.08a2,2,0,0,1-.48-1.36,1.88,1.88,0,0,1,.48-1.32,1.54,1.54,0,0,1,1.2-.54,1.51,1.51,0,0,1,1.11.51Zm-2,1.76a1.28,1.28,0,0,0,.27.84.93.93,0,0,0,.71.32,1,1,0,0,0,.74-.31,1.37,1.37,0,0,0,0-1.65,1,1,0,0,0-1.44,0,1.2,1.2,0,0,0-.23.8Z"/><path d="M298,392.69v6.15h-.82v-6.15Z"/><path d="M299.88,392.69v3.75l1.16-1.15h1.1l-1.54,1.49,1.65,2.06h-1.06l-1.18-1.5-.13.13v1.37h-.82v-6.15Z"/><path d="M302.46,397a1.76,1.76,0,0,1,.55-1.31,1.93,1.93,0,0,1,2.69,0,1.8,1.8,0,0,1,.55,1.33,1.83,1.83,0,0,1-.55,1.34,1.91,1.91,0,0,1-1.36.53,1.82,1.82,0,0,1-1.34-.54A1.86,1.86,0,0,1,302.46,397Zm.84,0a1.2,1.2,0,0,0,.28.85,1.11,1.11,0,0,0,1.54,0,1.21,1.21,0,0,0,.29-.83,1.18,1.18,0,0,0-.29-.82,1.07,1.07,0,0,0-1.51,0l0,0a1.11,1.11,0,0,0-.29.85Z"/><path d="M307.11,392.69h.82v2.9a1.4,1.4,0,0,1,1-.4,1.22,1.22,0,0,1,1,.39,1.6,1.6,0,0,1,.31,1.08v2.18h-.82v-2.1a1,1,0,0,0-.16-.62.61.61,0,0,0-.48-.19.68.68,0,0,0-.61.27,1.94,1.94,0,0,0-.17.92v1.72h-.82Z"/><path d="M311,397a1.76,1.76,0,0,1,.55-1.31,1.91,1.91,0,0,1,2.68,0,1.8,1.8,0,0,1,.55,1.33,1.83,1.83,0,0,1-.55,1.34,1.89,1.89,0,0,1-1.36.53,1.82,1.82,0,0,1-1.34-.54A1.89,1.89,0,0,1,311,397Zm.83,0a1.26,1.26,0,0,0,.29.85,1,1,0,0,0,.77.31,1,1,0,0,0,.76-.31,1.16,1.16,0,0,0,.29-.83,1.12,1.12,0,0,0-.29-.82,1.06,1.06,0,0,0-1.52,0,1.09,1.09,0,0,0-.26.85Z"/><path d="M316.51,392.69v6.15h-.82v-6.15Z"/><path d="M320.69,396.06v2.78h-.82v-2.78h-.35v-.77h.35V394h.82v1.3h.64v.77Z"/><path d="M321.76,393.82a.55.55,0,0,1,.16-.38.54.54,0,0,1,.38-.15.51.51,0,0,1,.37.15.54.54,0,0,1,0,.76.52.52,0,0,1-.37.16.55.55,0,0,1-.54-.54Zm.95,1.47v3.55h-.82v-3.55Z"/><path d="M324.56,392.69v6.15h-.81v-6.15Z"/><path d="M330.52,392.69h.82v6.15h-.82v-.37a1.54,1.54,0,0,1-1.1.47,1.6,1.6,0,0,1-1.21-.53,2,2,0,0,1-.47-1.36,1.9,1.9,0,0,1,.47-1.32,1.54,1.54,0,0,1,1.2-.54,1.51,1.51,0,0,1,1.11.51Zm-1.94,4.36a1.28,1.28,0,0,0,.27.84.9.9,0,0,0,.71.32.91.91,0,0,0,.73-.31,1.37,1.37,0,0,0,0-1.65.92.92,0,0,0-.73-.32.89.89,0,0,0-.7.32A1.17,1.17,0,0,0,328.58,397.05Z"/><path d="M332.25,393.82a.55.55,0,0,1,.16-.38.56.56,0,0,1,.76,0,.56.56,0,0,1,0,.76.54.54,0,0,1-.76,0A.55.55,0,0,1,332.25,393.82Zm.95,1.47v3.55h-.82v-3.55Z"/><path d="M337.67,398.76v.77a1.51,1.51,0,0,1-.35.69,1.66,1.66,0,0,1-1.32.56,1.83,1.83,0,0,1-1.17-.38,1.59,1.59,0,0,1-.54-1.09h.82a.83.83,0,0,0,.16.4.85.85,0,0,0,.74.33c.6,0,.9-.37.9-1.1v-.5a1.52,1.52,0,0,1-1.13.5,1.55,1.55,0,0,1-1.19-.52,2,2,0,0,1-.46-1.33,2,2,0,0,1,.43-1.32,1.52,1.52,0,0,1,1.23-.58,1.45,1.45,0,0,1,1.12.5v-.4h.82Zm-.79-1.69a1.13,1.13,0,0,0-.28-.82,1,1,0,0,0-1.45,0,1.31,1.31,0,0,0-.24.81,1.25,1.25,0,0,0,.24.79,1,1,0,0,0,1.48,0A1.21,1.21,0,0,0,336.88,397.07Z"/><path d="M341,395.29h.82v.33a1.9,1.9,0,0,1,.41-.34,1,1,0,0,1,.45-.09,1.11,1.11,0,0,1,.95.53,1.22,1.22,0,0,1,1-.53c.8,0,1.2.49,1.2,1.46v2.19H345v-2a1.36,1.36,0,0,0-.13-.72.43.43,0,0,0-.41-.22.55.55,0,0,0-.5.26,1.67,1.67,0,0,0-.15.82v1.83H343v-2c0-.63-.18-.95-.54-.95a.58.58,0,0,0-.51.26,1.67,1.67,0,0,0-.16.82v1.83H341Z"/><path d="M350.14,397.26h-2.55a1.05,1.05,0,0,0,.29.69.86.86,0,0,0,.64.26.79.79,0,0,0,.51-.15,2,2,0,0,0,.45-.54l.69.39a3.12,3.12,0,0,1-.34.47,2,2,0,0,1-.38.32,1.85,1.85,0,0,1-.44.18,2.24,2.24,0,0,1-.52.06,1.67,1.67,0,0,1-1.27-.51,1.93,1.93,0,0,1-.48-1.36,2,2,0,0,1,.46-1.36,1.77,1.77,0,0,1,2.49,0,2,2,0,0,1,.45,1.38Zm-.85-.67a.78.78,0,0,0-.82-.66.87.87,0,0,0-.28.05.7.7,0,0,0-.24.13.91.91,0,0,0-.18.21.66.66,0,0,0-.12.27Z"/><path d="M351,395.29h.82v.32a1.8,1.8,0,0,1,.4-.33,1,1,0,0,1,.43-.09,1.32,1.32,0,0,1,.67.21l-.37.75a.76.76,0,0,0-.46-.16c-.44,0-.67.33-.67,1v1.84H351Z"/><path d="M357,397.26h-2.54a1.09,1.09,0,0,0,.28.69.88.88,0,0,0,.65.26.85.85,0,0,0,.51-.15,1.77,1.77,0,0,0,.44-.54l.7.39a3.12,3.12,0,0,1-.34.47,1.52,1.52,0,0,1-.39.32,1.85,1.85,0,0,1-.44.18,2.22,2.22,0,0,1-.51.06,1.67,1.67,0,0,1-1.27-.51,1.85,1.85,0,0,1-.49-1.36,2,2,0,0,1,.47-1.36,1.77,1.77,0,0,1,2.49,0,2,2,0,0,1,.45,1.38Zm-.84-.67a.78.78,0,0,0-.83-.66.87.87,0,0,0-.28.05.76.76,0,0,0-.23.13.64.64,0,0,0-.19.21.81.81,0,0,0-.11.27Z"/><path d="M358,398.43a.51.51,0,0,1,.5-.5.51.51,0,0,1,.51.51.53.53,0,0,1-.15.36.53.53,0,0,1-.72,0A.55.55,0,0,1,358,398.43Z"/><path d="M194.14,402.17l1.55,3.9,1.58-3.9h.93l-2.53,6-2.46-6Z"/><path d="M198.69,402.77a.47.47,0,0,1,.16-.37.51.51,0,0,1,.37-.16.53.53,0,0,1,.38.91.51.51,0,0,1-.37.16.55.55,0,0,1-.54-.54Zm.94,1.47v3.55h-.82v-3.55Z"/><path d="M205,404.85l-.68.36c-.11-.22-.24-.33-.4-.33a.27.27,0,0,0-.19.08.21.21,0,0,0-.08.19c0,.13.16.27.47.4a2.8,2.8,0,0,1,.88.52.89.89,0,0,1,.23.64,1.13,1.13,0,0,1-.38.86,1.32,1.32,0,0,1-.89.32,1.29,1.29,0,0,1-1.27-.87l.7-.32a1.24,1.24,0,0,0,.23.32.5.5,0,0,0,.35.14c.28,0,.42-.13.42-.38s-.11-.28-.32-.41l-.25-.12a1.15,1.15,0,0,1-.25-.12,1.46,1.46,0,0,1-.5-.35.79.79,0,0,1-.19-.57,1,1,0,0,1,.32-.76,1.12,1.12,0,0,1,1.58.06,1,1,0,0,1,.22.34Z"/><path d="M209.23,406.21h-2.54a1.12,1.12,0,0,0,.28.7.87.87,0,0,0,.65.25.91.91,0,0,0,.51-.14,1.9,1.9,0,0,0,.44-.54l.7.38a3.12,3.12,0,0,1-.34.47,1.52,1.52,0,0,1-.39.32,1.43,1.43,0,0,1-.44.19,2.94,2.94,0,0,1-.51.05,1.7,1.7,0,0,1-1.28-.51,1.93,1.93,0,0,1-.48-1.36,2,2,0,0,1,.47-1.36,1.63,1.63,0,0,1,1.25-.51,1.59,1.59,0,0,1,1.23.49,1.93,1.93,0,0,1,.46,1.38Zm-.84-.67a.78.78,0,0,0-.83-.66.83.83,0,0,0-.7.39,1.31,1.31,0,0,0-.12.27Z"/><path d="M212.19,404.85l-.68.36c-.1-.22-.24-.33-.39-.33a.3.3,0,0,0-.2.08.27.27,0,0,0-.08.19c0,.13.16.27.48.4a3,3,0,0,1,.87.52.89.89,0,0,1,.23.64,1.13,1.13,0,0,1-.38.86,1.32,1.32,0,0,1-.89.32,1.29,1.29,0,0,1-1.26-.87l.7-.32a1,1,0,0,0,.22.32.54.54,0,0,0,.36.14c.27,0,.41-.13.41-.38s-.1-.28-.32-.41l-.25-.12-.25-.12a1.46,1.46,0,0,1-.5-.35.84.84,0,0,1-.19-.57,1,1,0,0,1,.32-.76,1.1,1.1,0,0,1,.79-.3A1.08,1.08,0,0,1,212.19,404.85Z"/><path d="M217.52,404.85l-.68.36c-.1-.22-.24-.33-.39-.33a.3.3,0,0,0-.2.08.27.27,0,0,0-.08.19c0,.13.16.27.48.4a3,3,0,0,1,.87.52.89.89,0,0,1,.23.64,1.13,1.13,0,0,1-.38.86,1.32,1.32,0,0,1-.89.32,1.29,1.29,0,0,1-1.26-.87l.7-.32a1,1,0,0,0,.22.32.54.54,0,0,0,.36.14c.27,0,.41-.13.41-.38s-.11-.28-.32-.41l-.25-.12-.25-.12a1.46,1.46,0,0,1-.5-.35.84.84,0,0,1-.19-.57,1,1,0,0,1,.32-.76,1.1,1.1,0,0,1,.79-.3A1.08,1.08,0,0,1,217.52,404.85Z"/><path d="M221.72,406.21h-2.55a1.13,1.13,0,0,0,.29.7.85.85,0,0,0,.64.25.84.84,0,0,0,.51-.14,2.31,2.31,0,0,0,.45-.54l.69.38a3.12,3.12,0,0,1-.34.47,2,2,0,0,1-.38.32,1.89,1.89,0,0,1-.44.19,3.05,3.05,0,0,1-.52.05,1.67,1.67,0,0,1-1.27-.51,1.93,1.93,0,0,1-.48-1.36,2,2,0,0,1,.46-1.36,1.79,1.79,0,0,1,2.49,0,2,2,0,0,1,.45,1.38Zm-.85-.67a.78.78,0,0,0-.82-.66.87.87,0,0,0-.28.05.7.7,0,0,0-.24.13,1.29,1.29,0,0,0-.19.21.81.81,0,0,0-.11.27Z"/><path d="M222.61,404.24h.83v.33a1.34,1.34,0,0,1,1-.42,1.25,1.25,0,0,1,1,.38,1.63,1.63,0,0,1,.3,1.09v2.17h-.82v-2a1.29,1.29,0,0,0-.15-.72.6.6,0,0,0-.52-.21.63.63,0,0,0-.58.27,1.85,1.85,0,0,0-.16.93v1.71h-.83Z"/><path d="M229.93,406.21h-2.54a1.08,1.08,0,0,0,.29.7.85.85,0,0,0,.64.25.91.91,0,0,0,.51-.14,1.9,1.9,0,0,0,.44-.54l.7.38a3.12,3.12,0,0,1-.34.47,2,2,0,0,1-.38.32,1.89,1.89,0,0,1-.44.19,3.05,3.05,0,0,1-.52.05,1.67,1.67,0,0,1-1.27-.51,1.93,1.93,0,0,1-.48-1.36,2,2,0,0,1,.46-1.36,1.79,1.79,0,0,1,2.49,0,2,2,0,0,1,.45,1.38Zm-.84-.67a.78.78,0,0,0-.82-.66.87.87,0,0,0-.28.05.7.7,0,0,0-.24.13,1,1,0,0,0-.19.21.81.81,0,0,0-.11.27Z"/><path d="M230.83,404.24h.82v.32a1.38,1.38,0,0,1,.4-.32,1,1,0,0,1,.42-.09,1.36,1.36,0,0,1,.68.21l-.37.75a.83.83,0,0,0-.46-.17c-.45,0-.67.34-.67,1v1.84h-.82Z"/><path d="M236.8,406.21h-2.54a1.12,1.12,0,0,0,.28.7,1,1,0,0,0,1.15.11,2.31,2.31,0,0,0,.45-.54l.69.38a2.25,2.25,0,0,1-.34.47,1.68,1.68,0,0,1-.82.51,2.94,2.94,0,0,1-.51.05,1.66,1.66,0,0,1-1.28-.51,1.93,1.93,0,0,1-.48-1.36,2,2,0,0,1,.47-1.36,1.61,1.61,0,0,1,1.24-.51,1.56,1.56,0,0,1,1.24.49,2,2,0,0,1,.45,1.38Zm-.84-.67a.79.79,0,0,0-.83-.66.87.87,0,0,0-.28.05.7.7,0,0,0-.24.13.91.91,0,0,0-.18.21,1.31,1.31,0,0,0-.12.27Z"/><path d="M240.51,406.74l.72.28-1,2.08-.56-.23Zm-.2-2.09a.51.51,0,0,1,.52-.5.48.48,0,0,1,.34.14.51.51,0,0,1-.68.76l0,0A.46.46,0,0,1,240.31,404.65Z"/><path d="M243.05,409.35l-.76-.29a9,9,0,0,0,0-7.19l.76-.29a10,10,0,0,1,0,7.77Z"/><rect class="cls-7" x="530.2" y="339.04" width="34.17" height="14.13"/><path class="cls-5" d="M537.89,342.65h-1.14l.55-.92h1.58v6.56h-1Z"/><path class="cls-5" d="M541.76,344.88a1.63,1.63,0,0,1-.72-1.39,1.82,1.82,0,0,1,.54-1.34,2,2,0,0,1,1.38-.53,1.89,1.89,0,0,1,1.36.53,1.82,1.82,0,0,1,.54,1.34,1.63,1.63,0,0,1-.72,1.38,1.54,1.54,0,0,1,.62.62,1.75,1.75,0,0,1,.23.92,1.91,1.91,0,0,1-.57,1.43,2,2,0,0,1-1.46.56,2.07,2.07,0,0,1-1.5-.57,1.87,1.87,0,0,1-.59-1.41A1.58,1.58,0,0,1,541.76,344.88Zm.08,1.51a1.1,1.1,0,0,0,.32.78,1.1,1.1,0,0,0,1.54,0,1.1,1.1,0,0,0-.77-1.87h0a1.06,1.06,0,0,0-.77.32A1,1,0,0,0,541.84,346.39Zm.13-2.91a1,1,0,0,0,2,0,1,1,0,0,0-.29-.7,1,1,0,0,0-1.38,0,.89.89,0,0,0-.3.7Z"/><path class="cls-5" d="M546.37,344.62a.58.58,0,0,1,.17-.41.6.6,0,0,1,.84,0,.59.59,0,0,1,.17.42.58.58,0,0,1-.57.59h0a.6.6,0,0,1-.59-.6Zm0,3.19a.59.59,0,1,1,.59.59.58.58,0,0,1-.59-.59Z"/><path class="cls-5" d="M550.48,347.36h2.45v.93h-4.41l2.28-2.76.56-.71a4.59,4.59,0,0,0,.35-.51,1.41,1.41,0,0,0,.24-.72,1.06,1.06,0,0,0-.32-.77,1.18,1.18,0,0,0-.8-.31c-.67,0-1.05.4-1.14,1.18h-1q.24-2.07,2.1-2.07a2.07,2.07,0,0,1,1.5.57,1.84,1.84,0,0,1,.61,1.41,2.21,2.21,0,0,1-.28,1,6.9,6.9,0,0,1-.42.63c-.19.25-.42.54-.71.87Z"/><path class="cls-5" d="M554,345a4,4,0,0,1,.74-2.51,2,2,0,0,1,1.58-.84,2,2,0,0,1,1.59.84,4.8,4.8,0,0,1,0,5.09,1.89,1.89,0,0,1-2.63.54,1.85,1.85,0,0,1-.54-.54A4.09,4.09,0,0,1,554,345Zm1,0a3.65,3.65,0,0,0,.38,1.81,1.06,1.06,0,0,0,2,0,4.36,4.36,0,0,0,0-3.56,1,1,0,0,0-1.93,0A3.7,3.7,0,0,0,555,345Z"/><circle class="cls-8" cx="510.79" cy="348.11" r="11.65"/><path class="cls-5" d="M507.46,351a4,4,0,0,0,2,.57c1.16,0,1.83-.61,1.83-1.49s-.47-1.28-1.64-1.73c-1.43-.51-2.31-1.24-2.31-2.47a2.59,2.59,0,0,1,2.82-2.37,4,4,0,0,1,1.93.43l-.31.91a3.55,3.55,0,0,0-1.66-.41c-1.19,0-1.64.71-1.64,1.31,0,.81.53,1.21,1.73,1.68,1.48.57,2.23,1.28,2.23,2.56s-1,2.51-3.05,2.51a4.55,4.55,0,0,1-2.23-.55Z"/><path class="cls-5" d="M424.06,143.28a30.84,30.84,0,0,0,15.6,4.4c8.9,0,14.1-4.7,14.1-11.5,0-6.3-3.6-9.9-12.7-13.4-11-3.9-17.8-9.6-17.8-19.1,0-10.5,8.7-18.3,21.8-18.3,6.9,0,11.9,1.6,14.9,3.3l-2.4,7.1a26.82,26.82,0,0,0-12.8-3.2c-9.2,0-12.7,5.5-12.7,10.1,0,6.3,4.1,9.4,13.4,13,11.4,4.4,17.2,9.9,17.2,19.8,0,10.4-7.7,19.4-23.6,19.4-6.5,0-13.6-1.9-17.2-4.3Z"/><path class="cls-5" d="M483.26,86.48v28.2h32.6V86.48h8.8v67.4h-8.8v-31.6h-32.6v31.6h-8.7V86.48Z"/><path class="cls-5" d="M550.66,132.68l-7,21.2h-9l22.9-67.4h10.5l23,67.4h-9.3l-7.2-21.2Zm22.1-6.8-6.6-19.4c-1.5-4.4-2.5-8.4-3.5-12.3h-.2c-1,4-2.1,8.1-3.4,12.2l-6.6,19.5Z"/><path class="cls-5" d="M601,87.38A90.74,90.74,0,0,1,617.7,86c9.3,0,15.3,1.7,19.5,5.5a16.76,16.76,0,0,1,5.3,12.8c0,8.9-5.6,14.8-12.7,17.2v.3c5.2,1.8,8.3,6.6,9.9,13.6,2.2,9.4,3.8,15.9,5.2,18.5h-9c-1.1-1.9-2.6-7.7-4.5-16.1-2-9.3-5.6-12.8-13.5-13.1h-8.2v29.2H601Zm8.7,30.7h8.9c9.3,0,15.2-5.1,15.2-12.8,0-8.7-6.3-12.5-15.5-12.6a36,36,0,0,0-8.6.8Z"/><path class="cls-5" d="M689.66,122.28h-26.2v24.3h29.2v7.3h-37.9V86.48h36.4v7.3h-27.7v21.3h26.2Z"/><path class="cls-5" d="M732.55,153.88l-17.1-67.4h9.2l8,34.1c2,8.4,3.8,16.8,5,23.3h.2c1.11-6.7,3.2-14.7,5.5-23.4l9-34h9.1l8.2,34.2c1.9,8,3.7,16,4.7,23.1h.2c1.4-7.4,3.3-14.9,5.4-23.3l8.9-34h8.9l-19.1,67.4h-9.1l-8.5-35.1a203.37,203.37,0,0,1-4.4-22h-.2a209.8,209.8,0,0,1-5.2,22l-9.6,35.1Z"/><path class="cls-5" d="M814.85,86.48v67.4h-8.7V86.48Z"/><path class="cls-5" d="M842.85,93.88h-20.5v-7.4h49.9v7.4h-20.6v60h-8.8Z"/><path class="cls-5" d="M888.45,86.48v28.2h32.61V86.48h8.8v67.4h-8.8v-31.6H888.45v31.6h-8.7V86.48Z"/><path class="cls-5" d="M1013.25,151.68c-3.2,1.6-9.6,3.2-17.8,3.2-19,0-33.3-12-33.3-34.1,0-21.1,14.3-35.4,35.2-35.4,8.4,0,13.7,1.8,16,3l-2.1,7.1a31.71,31.71,0,0,0-13.6-2.8c-15.8,0-26.3,10.1-26.3,27.8,0,16.5,9.5,27.1,25.9,27.1a34.78,34.78,0,0,0,14.2-2.8Z"/><path class="cls-5" d="M1035.45,132.68l-7,21.2h-9l22.9-67.4h10.5l23,67.4h-9.3l-7.2-21.2Zm22.1-6.8-6.6-19.4c-1.5-4.4-2.5-8.4-3.5-12.3h-.2c-1,4-2.1,8.1-3.4,12.2l-6.6,19.5Z"/><path class="cls-5" d="M1085.75,87.38a90.74,90.74,0,0,1,16.7-1.4c9.3,0,15.3,1.7,19.5,5.5a16.76,16.76,0,0,1,5.3,12.8c0,8.9-5.6,14.8-12.7,17.2v.3c5.2,1.8,8.3,6.6,9.9,13.6,2.2,9.4,3.8,15.9,5.2,18.5h-9c-1.1-1.9-2.6-7.7-4.5-16.1-2-9.3-5.6-12.8-13.5-13.1h-8.2v29.2h-8.7Zm8.7,30.7h8.9c9.3,0,15.2-5.1,15.2-12.8,0-8.7-6.3-12.5-15.5-12.6a36,36,0,0,0-8.6.8Z"/><path class="cls-5" d="M1174.45,122.28h-26.2v24.3h29.2v7.3h-37.9V86.48H1176v7.3h-27.7v21.3h26.2Z"/></g><g id="Lag_8" data-name="Lag 8"><ellipse class="cls-10" cx="1515.55" cy="407.21" rx="1.15" ry="1.3"/><path class="cls-10" d="M1515.55,409a1.81,1.81,0,1,1,1.65-1.8A1.73,1.73,0,0,1,1515.55,409Zm0-2.6a.82.82,0,1,0,.65.8A.74.74,0,0,0,1515.55,406.41Z"/></g><path class="cls-11" d="M595.27,528.13l16.44,85.41s28.77,6.4,78.1,0l10.28-85.41S642.54,555.89,595.27,528.13Z"/><path class="cls-12" d="M595.27,523.64s39.63,33.12,104.82,0C700.09,523.64,650.25,509.27,595.27,523.64Z"/><path class="cls-13" d="M679.28,527.23S701.33,516.35,708.49,423c1.84-23.86-.93-21.62-3.11-22.6-2.81-1.26-16.87-4-21.71,10.74-6.11,18.67-10.89,42-10.89,42s-4.25,21.12-6.81,42C663.75,513.18,674.51,522.74,679.28,527.23Z"/><path class="cls-13" d="M638.13,528.17s23.48-10.33,29.22-113.6c3.82-68.71-13.18-34.72-25-4.27a172.5,172.5,0,0,0-8.43,30.84,257.19,257.19,0,0,0-6,42.24c-.82,16.31,1.58,31.66,4.48,39.91Z"/><ellipse class="cls-14" cx="652.47" cy="453.51" rx="74.96" ry="3.17" transform="translate(85.8 1010.54) rotate(-79.31)"/><ellipse class="cls-14" cx="639.21" cy="448.53" rx="55.25" ry="1.91" transform="translate(79.9 993.44) rotate(-79.31)"/><ellipse class="cls-14" cx="679.85" cy="461.09" rx="58.11" ry="2.41" transform="matrix(0.14, -0.99, 0.99, 0.14, 126.83, 1068.51)"/><ellipse class="cls-14" cx="694.25" cy="460.53" rx="61.64" ry="2.1" transform="matrix(0.14, -0.99, 0.99, 0.14, 139.73, 1082.29)"/><ellipse class="cls-15" cx="644.14" cy="521.53" rx="9.51" ry="5.74"/><ellipse class="cls-15" cx="671.5" cy="520.24" rx="5.83" ry="3.86"/><ellipse class="cls-15" cx="681.27" cy="523.73" rx="6.11" ry="6.35"/><ellipse class="cls-15" cx="633.87" cy="519.7" rx="3.54" ry="3.68"/><ellipse class="cls-15" cx="656.24" cy="524.09" rx="4.74" ry="4.92"/><ellipse class="cls-15" cx="627.73" cy="523.73" rx="6.13" ry="3.86"/><ellipse class="cls-15" cx="617.27" cy="521.53" rx="4.16" ry="3.06"/><ellipse class="cls-15" cx="635.16" cy="528.46" rx="4.83" ry="5.84"/><ellipse class="cls-15" cx="661.97" cy="521.53" rx="5.73" ry="6.77"/><polygon class="cls-16" points="689.82 553.4 654.49 562.39 653.65 558.83 688.98 549.83 689.82 553.4"/><polygon class="cls-16" points="643.45 568.74 613.02 559.3 612.01 562.82 642.44 572.26 643.45 568.74"/><polygon class="cls-16" points="679.58 572.1 658.04 579.72 657.13 576.94 678.67 569.31 679.58 572.1"/><polygon class="cls-16" points="647.22 556.84 607.37 548.16 608.24 543.85 648.09 552.52 647.22 556.84"/><polygon class="cls-16" points="673.37 594.02 656.05 600.15 654.9 596.67 672.22 590.54 673.37 594.02"/><polygon class="cls-16" points="637.27 594.62 622.36 589.99 623.37 586.47 638.29 591.1 637.27 594.62"/><path class="cls-17" d="M769,732.31,620.2,700.69c-2.17-.46-3.81-2.31-3.7-4.13l1.28-21.36c.11-1.82,2-3.24,4.14-3.16l150.36,5.72c8.24.32,15.12,3.63,14.9,7.35l-2.62,43.65C784.3,732.48,777.12,734,769,732.31Z"/><path class="cls-17" d="M775.4,733.13a31.8,31.8,0,0,1-6.43-.7h0l-148.8-31.62c-2.2-.47-3.91-2.38-3.79-4.26l1.28-21.36c.11-1.89,2-3.36,4.26-3.27l150.37,5.71c6.06.24,11.5,2.07,13.86,4.67a3.9,3.9,0,0,1,1.16,2.82l-2.62,43.65a3.4,3.4,0,0,1-1.47,2.47C781.57,732.48,778.76,733.13,775.4,733.13Zm-6.37-.94c5.87,1.22,11.51.76,14-1.15a3.17,3.17,0,0,0,1.37-2.29l2.62-43.65a3.61,3.61,0,0,0-1.1-2.63c-2.27-2.51-7.77-4.36-13.68-4.59l-150.36-5.71h-.17c-2,0-3.74,1.37-3.84,3.05l-1.29,21.36c-.1,1.76,1.51,3.55,3.61,4L769,732.19Z"/><path class="cls-17" d="M568.59,663.77a58.63,58.63,0,0,1,6.89-1.8,53.19,53.19,0,0,1,17.35-.6c6.38.91,16.49,2.35,23.86,11.46.65.8,10.28,12.93,6.7,19.64-4.31,8.08-25.28,3.46-38.82.47a161.93,161.93,0,0,1-35.16-12.1"/><path class="cls-17" d="M611.12,697.13c-8.16,0-18.56-2.3-26.58-4.07A162.3,162.3,0,0,1,549.36,681a.12.12,0,1,1,.1-.22,162.45,162.45,0,0,0,35.14,12.09c13.7,3,34.41,7.6,38.68-.41,3.59-6.73-6.27-19-6.69-19.5-7.33-9.07-17.23-10.48-23.77-11.41a52.74,52.74,0,0,0-17.32.59,58.82,58.82,0,0,0-6.87,1.8.13.13,0,1,1-.08-.24,58.94,58.94,0,0,1,6.91-1.8,52.88,52.88,0,0,1,17.39-.6c6.59.94,16.54,2.36,23.94,11.5.42.53,10.38,12.91,6.71,19.78C621.68,695.94,617,697.13,611.12,697.13Z"/><path class="cls-17" d="M742,699.64l6.59,186.13c.1,2.71-1.62,5.33-3.82,5.89L719,898.19c-2.2.56-4.44-1.06-5-3.65L676.23,716.33c-2.08-9.77-.18-19.08,4.31-20.22l52.64-13.35C737.67,681.62,741.65,689.44,742,699.64Z"/><path class="cls-17" d="M718.13,898.42a3.92,3.92,0,0,1-2-.59,5.06,5.06,0,0,1-2.2-3.26L676.11,716.36c-2.11-9.9-.09-19.23,4.4-20.37l52.64-13.35a3.85,3.85,0,0,1,3.4.8c3.13,2.35,5.32,8.7,5.57,16.2h0l6.59,186.13c.11,2.75-1.65,5.45-3.91,6L719,898.31A3.47,3.47,0,0,1,718.13,898.42Zm15.92-215.65a3.46,3.46,0,0,0-.84.11l-52.64,13.35c-4.37,1.11-6.3,10.3-4.22,20.07l37.77,178.21a4.86,4.86,0,0,0,2.09,3.11,3.6,3.6,0,0,0,2.76.45l25.77-6.53c2.15-.55,3.82-3.14,3.72-5.77l-6.58-186.13c-.26-7.3-2.45-13.73-5.48-16A3.85,3.85,0,0,0,734.05,682.77Z"/><path class="cls-18" d="M888.71,900H735c-2.92,0-5.75-5.7-6.29-12.76L708.35,622.35c-.85-11.07,1.51-20.28,5.24-20.28H910.08c3.73,0,6.08,9.25,5.23,20.28L895,887.24C894.47,894.3,891.64,900,888.71,900Z"/><path class="cls-18" d="M749.25,704.55,684.67,711c-6.65.36-12.77-3.86-15.24-10.51L643.35,621.3c-2.11-6.45,1.3-12.13,7.58-12.76l64.58-6.45c6.65-.37,12.77,3.86,15.24,10.51l26.08,79.17C758.94,698.1,755.53,703.87,749.25,704.55Z"/><path class="cls-18" d="M902.73,602.07h25.51c6.63,0,12,5.91,12,13.21v60.91c0,7.3-5.37,13.21-12,13.21H902.73c-6.63,0-12-5.91-12-13.21V615.28C890.73,608,896.1,602.07,902.73,602.07Z"/><path class="cls-17" d="M836.83,608.46H800.29c-4.15,0-6.85-7.71-6.07-16.59l5.25-59.56c.46-5.17,3.21-9.21,6.15-9.21H831.5c2.93,0,5.69,4,6.15,9.21l5.25,59.56C843.68,600.75,841,608.46,836.83,608.46Z"/><path class="cls-17" d="M836.83,608.58H800.29a4,4,0,0,1-3-1.48c-2.52-2.75-3.78-8.73-3.2-15.24l5.25-59.56c.46-5.23,3.22-9.33,6.27-9.33H831.5c3.06,0,5.81,4.1,6.28,9.33L843,591.86c.57,6.52-.69,12.5-3.2,15.24A4,4,0,0,1,836.83,608.58Zm-31.21-85.36c-2.88,0-5.58,4.08-6,9.1l-5.25,59.56c-.55,6.35.71,12.4,3.14,15a3.79,3.79,0,0,0,2.81,1.4h36.54a3.79,3.79,0,0,0,2.82-1.4c2.43-2.65,3.68-8.7,3.13-15l-5.25-59.56c-.45-5.1-3.1-9.1-6-9.1Z"/><rect class="cls-17" x="753.56" y="329.88" width="116.56" height="209.17" rx="12"/><path class="cls-17" d="M858.12,539.17H765.56a12.12,12.12,0,0,1-12.12-12.12V341.88a12.13,12.13,0,0,1,12.12-12.13h92.56a12.14,12.14,0,0,1,12.13,12.13V527.05A12.13,12.13,0,0,1,858.12,539.17ZM765.56,330a11.89,11.89,0,0,0-11.87,11.88V527.05a11.88,11.88,0,0,0,11.87,11.87h92.56A11.89,11.89,0,0,0,870,527.05V341.88A11.89,11.89,0,0,0,858.12,330Z"/><path d="M746.93,311.91c-3.22,11.9,21.32,37.62,24.35,40.8,15.63,16.39,28.09,21.62,34.38,25.77,43.55,28.68,32.9,163.88,50.15,167.49,16.54,3.46,61.82-113.37,33-180.38-15.57-36.14-46.5-43.33-100.29-55.82C774.71,306.57,749.86,301,746.93,311.91Z"/><path d="M856.56,546.18a4.13,4.13,0,0,1-.78-.08c-6.86-1.44-9.34-23.23-12.48-50.82-2.46-21.63-5.26-46.16-10.78-67.84-6.42-25.16-15.22-41.14-26.93-48.85-1.32-.87-2.9-1.79-4.74-2.85a120.44,120.44,0,0,1-29.66-22.94,179.13,179.13,0,0,1-14.57-17.2c-7.87-10.72-11.17-18.7-9.81-23.72h0c3-11.2,29.17-5.14,41.74-2.23,26.86,6.24,48.08,11.17,64.5,19.05,17.44,8.38,28.51,19.74,35.87,36.84,5.78,13.43,8.92,29.65,9.34,48.22a237.47,237.47,0,0,1-5,51.88,274.06,274.06,0,0,1-13.24,45.57c-5.06,12.89-10.56,23.3-15.48,29.32C861.5,544.28,858.81,546.18,856.56,546.18ZM761,305.62c-7,0-12.63,1.56-13.91,6.33h0c-1.34,4.94,2,12.85,9.77,23.51a182.56,182.56,0,0,0,14.53,17.15A120.85,120.85,0,0,0,801,375.53c1.84,1.06,3.44,2,4.76,2.85,11.76,7.74,20.6,23.77,27,49,5.53,21.7,8.32,46.23,10.79,67.88,3.13,27.48,5.6,49.19,12.28,50.59,2.27.48,5.23-1.42,8.55-5.48,12.44-15.22,23.58-49.43,28.67-74.78a237.61,237.61,0,0,0,5-51.83c-.42-18.53-3.55-34.72-9.32-48.12-7.34-17-18.36-28.37-35.75-36.71-16.39-7.88-37.6-12.8-64.45-19C781.43,308.26,770.05,305.62,761,305.62Zm-14,6.29Z"/><path class="cls-6" d="M991,898.3H880.26c-5.18,0-8.85-7.43-8.18-16.34l14.35-191.24c.39-5.24,3.88-9.47,7.75-9.47h82.88c3.88,0,7.36,4.23,7.76,9.47L999.17,882C999.84,890.87,996.16,898.3,991,898.3Z"/></svg>
