<svg id="Lag_1" data-name="Lag 1" xmlns="http://www.w3.org/2000/svg" width="400" height="300" viewBox="0 0 400 300"><defs><style>.cls-1{fill:#999;}.cls-2{fill:#0e1b58;}.cls-3,.cls-4{fill:#fff;}.cls-3{stroke:#fff;stroke-linecap:round;stroke-miterlimit:10;stroke-width:0.25px;}</style></defs><title>Tegnebræt 1</title><g id="Sky"><path class="cls-1" d="M310.4,124l-14.09-5.65a6,6,0,0,0,1-3.21V115l10.35-23.38-39.89,5.75-5.25.75C255.15,96.79,246.88,95.72,238,95L237,94.6v.29c-8.62-.69-17.84-1.06-27.41-1.06-32.83,0-61.44,4.39-76.47,10.89l-.57-.44L113.44,89.61l-4.56,16.68a118.58,118.58,0,0,0-25.14-2.58,111.28,111.28,0,0,0-32.64,4.55v-.47l-22.39,9-22.42,9,21.88,9.83,8.79,4c6.61,4.48,16.68,7.95,28.64,9.71l-1.29,14.59-2.1,23.63,28.36-3,25.12-2.67c16.86-.11,31.61-3.65,40-8.94L173,195.28l22.17,28.81,26.17-26.41L239,179.88a217.84,217.84,0,0,0,28.79,1.88,204.52,204.52,0,0,0,39.61-3.68l.59.23,3.14-1a103.8,103.8,0,0,0,21.1-6.92l51.53-16.92Z"/><ellipse class="cls-2" cx="188.85" cy="128.77" rx="18.79" ry="16.56"/><ellipse class="cls-3" cx="179.52" cy="137.87" rx="2.7" ry="8.8" transform="translate(-29.37 225.05) rotate(-60.18)"/><ellipse class="cls-4" cx="194.75" cy="138.61" rx="5.58" ry="2.82" transform="translate(-44.16 146.43) rotate(-37.32)"/><ellipse class="cls-2" cx="226.67" cy="136.49" rx="11.2" ry="10.93"/><ellipse class="cls-3" cx="221.12" cy="142.5" rx="1.73" ry="5.39" transform="translate(-18.78 250.44) rotate(-57.02)"/><ellipse class="cls-4" cx="230.19" cy="142.98" rx="3.47" ry="1.78" transform="translate(-36.39 191.62) rotate(-42.19)"/></g></svg>