<svg id="Lag_1" data-name="Lag 1" xmlns="http://www.w3.org/2000/svg" xmlns:xlink="http://www.w3.org/1999/xlink" width="200" height="200" viewBox="0 0 200 200"><defs><style>.cls-1{fill:#9f5a00;}.cls-2{fill:url(#Ikke-navngivet_forløb_5);}.cls-3{fill:url(#Ikke-navngivet_forløb_5-2);}</style><linearGradient id="Ikke-navngivet_forløb_5" x1="105.14" y1="42.14" x2="103.55" y2="104.7" gradientTransform="matrix(0.74, 0.01, -0.01, 0.79, 21.91, 7.26)" gradientUnits="userSpaceOnUse"><stop offset="0.34" stop-color="#005b97"/><stop offset="0.4" stop-color="#0075be"/><stop offset="0.58" stop-color="#1e9cd7"/><stop offset="0.65" stop-color="#47acde"/><stop offset="0.77" stop-color="#80c2e7"/><stop offset="0.87" stop-color="#a9d2ee"/><stop offset="0.95" stop-color="#c3dcf2"/><stop offset="1" stop-color="#cce0f4"/></linearGradient><linearGradient id="Ikke-navngivet_forløb_5-2" x1="755.49" y1="29.54" x2="752.58" y2="143.91" gradientTransform="matrix(0.39, -0.08, 0.1, 0.32, -201.62, 194.04)" xlink:href="#Ikke-navngivet_forløb_5"/></defs><title>timeglas</title><path class="cls-1" d="M99.69,115.28l22.2,28.9,17.85,23.24-39.83.07L60,167.56l17.69-23.32,22-29m0-16.48L69.75,138.2,39.87,177.6l60.06-.11,60.07-.11-30.18-39.29L99.64,98.8Z"/><path class="cls-1" d="M60,32l39.88.07,39.83.07L121.89,55.42l-22.2,28.9-22-29L60,32M39.87,22,69.75,61.4l29.89,39.4,30.18-39.29L160,22.22l-60.07-.11L39.87,22Z"/><path class="cls-2" d="M129.19,46c-.24-1.85-4-3.49-8.85-3.74-5.1-.26-9.4,1.14-9.61,3.12v.06a10.9,10.9,0,0,0-6.23-1.73c-3.13,0-5.85.91-7.08,2.29H96.07c-1.18-1.41-3.86-2.41-7-2.44a12.23,12.23,0,0,0-5.35,1.06c-.79-1.76-3.8-3.09-7.43-3.13-4.26,0-7.75,1.72-7.8,3.93a2.78,2.78,0,0,0,.07.57h0v0a3.4,3.4,0,0,0,1.48,1.86l14,17.62L99.54,85l15.51-19.5L130.55,46Z"/><polyline class="cls-3" points="125.78 146.84 141.06 167.89 100.06 167.97 59.06 168.04 74.93 145.96"/></svg>
